<mxfile host="65bd71144e">
    <diagram id="Re5cgoxgeLRhVEYI_GBJ" name="Page-1">
        <mxGraphModel dx="815" dy="460" grid="1" gridSize="10" guides="1" tooltips="1" connect="1" arrows="1" fold="1" page="1" pageScale="1" pageWidth="850" pageHeight="1100" math="0" shadow="0">
            <root>
                <mxCell id="0"/>
                <mxCell id="1" parent="0"/>
                <mxCell id="3" value="" style="ellipse;shape=cloud;whiteSpace=wrap;html=1;" parent="1" vertex="1">
                    <mxGeometry x="125" y="40" width="310" height="250" as="geometry"/>
                </mxCell>
                <mxCell id="6" style="edgeStyle=none;html=1;" parent="1" source="2" target="5" edge="1">
                    <mxGeometry relative="1" as="geometry"/>
                </mxCell>
                <mxCell id="7" value="Push" style="edgeLabel;html=1;align=center;verticalAlign=middle;resizable=0;points=[];" parent="6" vertex="1" connectable="0">
                    <mxGeometry x="-0.4933" y="1" relative="1" as="geometry">
                        <mxPoint x="1" y="-17" as="offset"/>
                    </mxGeometry>
                </mxCell>
                <mxCell id="2" value="Local Git Repository of UTM FC Scheduler" style="shape=cylinder3;whiteSpace=wrap;html=1;boundedLbl=1;backgroundOutline=1;size=15;" parent="1" vertex="1">
                    <mxGeometry x="210" y="340" width="140" height="80" as="geometry"/>
                </mxCell>
                <mxCell id="5" value="Remote Repository of UTM FC Scheduler" style="shape=cylinder3;whiteSpace=wrap;html=1;boundedLbl=1;backgroundOutline=1;size=15;" parent="1" vertex="1">
                    <mxGeometry x="210" y="160" width="140" height="80" as="geometry"/>
                </mxCell>
                <mxCell id="8" value="" style="ellipse;shape=cloud;whiteSpace=wrap;html=1;" parent="1" vertex="1">
                    <mxGeometry x="430" y="40" width="310" height="510" as="geometry"/>
                </mxCell>
                <mxCell id="11" value="Vercel Postgres" style="text;html=1;strokeColor=none;fillColor=none;align=center;verticalAlign=middle;whiteSpace=wrap;rounded=0;" parent="1" vertex="1">
                    <mxGeometry x="560" y="320" width="60" height="30" as="geometry"/>
                </mxCell>
                <mxCell id="13" value="PostgreSQL Database" style="shape=cylinder3;whiteSpace=wrap;html=1;boundedLbl=1;backgroundOutline=1;size=15;" parent="1" vertex="1">
                    <mxGeometry x="520" y="360" width="140" height="80" as="geometry"/>
                </mxCell>
                <mxCell id="15" style="edgeStyle=none;html=1;exitX=0.25;exitY=1;exitDx=0;exitDy=0;entryX=0.145;entryY=0;entryDx=0;entryDy=4.35;entryPerimeter=0;" parent="1" source="14" target="13" edge="1">
                    <mxGeometry relative="1" as="geometry"/>
                </mxCell>
                <mxCell id="17" value="Writes" style="edgeLabel;html=1;align=center;verticalAlign=middle;resizable=0;points=[];" parent="15" vertex="1" connectable="0">
                    <mxGeometry x="-0.2172" relative="1" as="geometry">
                        <mxPoint as="offset"/>
                    </mxGeometry>
                </mxCell>
                <mxCell id="16" style="edgeStyle=none;html=1;entryX=0.75;entryY=1;entryDx=0;entryDy=0;exitX=0.855;exitY=0;exitDx=0;exitDy=4.35;exitPerimeter=0;" parent="1" source="13" target="14" edge="1">
                    <mxGeometry relative="1" as="geometry"/>
                </mxCell>
                <mxCell id="18" value="Reads" style="edgeLabel;html=1;align=center;verticalAlign=middle;resizable=0;points=[];" parent="16" vertex="1" connectable="0">
                    <mxGeometry x="-0.1574" y="-1" relative="1" as="geometry">
                        <mxPoint as="offset"/>
                    </mxGeometry>
                </mxCell>
                <mxCell id="19" style="edgeStyle=none;html=1;exitX=1;exitY=0.5;exitDx=0;exitDy=0;exitPerimeter=0;" parent="1" source="5" target="14" edge="1">
                    <mxGeometry relative="1" as="geometry"/>
                </mxCell>
                <mxCell id="20" value="Newest commit" style="edgeLabel;html=1;align=center;verticalAlign=middle;resizable=0;points=[];" parent="19" vertex="1" connectable="0">
                    <mxGeometry x="0.0966" y="2" relative="1" as="geometry">
                        <mxPoint as="offset"/>
                    </mxGeometry>
                </mxCell>
                <mxCell id="24" style="edgeStyle=none;html=1;" parent="1" source="14" edge="1" target="21">
                    <mxGeometry relative="1" as="geometry">
                        <mxPoint x="820" y="180" as="targetPoint"/>
                    </mxGeometry>
                </mxCell>
                <mxCell id="25" value="Application, data" style="edgeLabel;html=1;align=center;verticalAlign=middle;resizable=0;points=[];" parent="24" vertex="1" connectable="0">
                    <mxGeometry x="0.3525" y="-1" relative="1" as="geometry">
                        <mxPoint as="offset"/>
                    </mxGeometry>
                </mxCell>
                <mxCell id="14" value="Next.js hosting service for UTM FC Scheduler" style="rounded=0;whiteSpace=wrap;html=1;" parent="1" vertex="1">
                    <mxGeometry x="530" y="170" width="120" height="60" as="geometry"/>
                </mxCell>
                <mxCell id="26" style="edgeStyle=none;html=1;entryX=1;entryY=0.75;entryDx=0;entryDy=0;" parent="1" target="14" edge="1">
                    <mxGeometry relative="1" as="geometry">
                        <mxPoint x="810" y="215" as="sourcePoint"/>
                    </mxGeometry>
                </mxCell>
                <mxCell id="27" value="Requests" style="edgeLabel;html=1;align=center;verticalAlign=middle;resizable=0;points=[];" parent="26" vertex="1" connectable="0">
                    <mxGeometry x="-0.2003" y="-1" relative="1" as="geometry">
                        <mxPoint as="offset"/>
                    </mxGeometry>
                </mxCell>
                <mxCell id="21" value="Clients" style="shape=umlActor;verticalLabelPosition=bottom;verticalAlign=top;html=1;outlineConnect=0;" parent="1" vertex="1">
                    <mxGeometry x="820" y="165" width="30" height="60" as="geometry"/>
                </mxCell>
                <mxCell id="28" value="" style="shape=image;imageAspect=0;aspect=fixed;verticalLabelPosition=bottom;verticalAlign=top;image=data:image/jpeg,/9j/4AAQSkZJRgABAQEASABIAAD/2wBDAAEBAQEBAQEBAQEBAQEBAQEBAQEBAQEBAQEBAQEBAQEBAQEBAQEBAQEBAQEBAQEBAQEBAQEBAQEBAQEBAQEBAQH/wAALCAJzBLABAREA/8QAHwABAAICAgMBAQAAAAAAAAAAAAoLCAkBBwIFBgQD/8QAURAAAQQCAgEBBAQJBwgJAwQDAAIDBAUBBgcICREKEhMUITFZmBUWGjlBUXjV1xkiI2GxtrcXOFZxd5eh1iQyV1iBkcHw8RgltTM0U+FyiNH/2gAIAQEAAD8An8AAAAAAAAAAAAAAAAAAAAAAAAAAAAAAAAAAAAAAAAAAAAAAAAAAAAAAAAAAAAAAAAAAAAAAAAAAAAAAAAAAAAAAAAAAAAAAAAAAAAAAAAAAAAAAAAAAAAAAAAAAAAAAAAAAAAAAAAAAAAAAAAAAAAAAAAAAAAAAAAAAAAAAAAAAAAAAAAAAAAAAAAAAAAAAAAAAAAAAAAAAAAAAAAAAAAAAAAAAAAAAAAAAAAAAAAAAAAAAAAAAAAAAAAAAAAAAAAAAAAAAAAAAAAAAAAAAAAAAAAAAAAAAAAAAAAAAAAAAAAAAAAAAAAAAAAAAAAAAAAAAAAAAAAAAAAAAAAAAAAAAAAAAAAAAAAAAAAAAAAAAAAAAAAAAAAAAAAAAAAAAAAAAAAAAAAAAAAAAAAAAAAAAAAAAAAAAAAAAAAAAAAAAAAAAAAAAAAAAAAAAAAAAAAAAAAAAAAAAAAAAAAAAAAAAAAAAAAAAAAAAAAAAAAAAAAAAAAAAAAAAAAAAAAAAAAAAAAAAAAAAAAAAAAAAAAAAAAAAAAAAAAAAAAAAAAAAAAAAAAAAAAAAAAAAAAAAAAAAAAAAAAAAAAAAAAAAAAAAAAAAAAAAAAAAAAAAAAAAAAAAAAAAAAAAAAAAAAAAAAAAAAAAAAAAAAAAAAAAAAAAAAAAAAAAAAAAAAAAAAAAAAAAAAAAAAAAAAAAAAAAAAAAAAAAAAAAAAAAAAAAAAAAAAAAAAAAAAAAAAAAAAAAAAAAAAAAAAAAAAAAAAAAAAAAAAAAAAAAAAAAAAAAAAAAAAAAAAAAAAAAAAAAAAAAAAAAAAAAAAAAAAAAAAAAAAAAAAAAAAAAAAAAAAAAAAAAAAAAAAAAAAAAAAAAAAAAAAAAAAAAAAAAAAAAAAAAAAAAAAAAAAAAAAAAAAAAAAAAAAAAAAAAAAAAAAAAAAAAAAAAAAAAAAAAAAAAAAAAAAAAAAAAAAAAAAAAAAAAAAAAAAAAAAAAAAAAAAAAAAAAAAAAAAAAAAAAAAAAAAAAAAAAAAAAAAAAAAAAAAAAAAAAAAAAAAAAAAAAAAAAAAAAAAAAAAAAAAAAAAAAAAAAAAAAAAAAAAAAAAAAAAAAAAAAAAAAAAAAAAAAAAAAAAAAAAAAAAAAAAAAAAAAAAAAAAAAAAAAAAAAAAAAAAAAAAAAAAAAAAAAAAAAAAAAAAAAAAAAAAAAAAAAAAAAAAAAAAAAAAAAAAAAAAAAAAAAAAAAAAAAAAAAAAAAAAAAAAAAAAAAAAAAAAAAAAAAAAAAAAAAAAAAAAAAAAAAAAAAAAAAAAAAAAAAAAAAAAAAAAAAAAAAAAAAAAAAAAAAAAAAAAAAAAAAAAAAAAAAAAAAAAAAAAAAAAAAAAAAAAAAAAAAAAAAAAAAAAAAAAAAAAAAAAAAAAAAAAAAAAAAAAAAAAAAAAAAAAAAAAAAAAAAAAAAAAAAAAAAAAAAAAAAAAAAAAAAAAAAAAAAAAAAAAAAAAAAAAAAAAAAAAAAAAAAAAAAAAAAAAAAAAAAAAAAAAAAAAAAAAAAAAAAAAAAAAAAAAAAAAAAAAAAAAAAAAAAAAAAAAAAAAAAAAAAAAAAAAAAAAAAAAAAAAAAAAAAAAAAAAAAAAAAAAAAAAAAAAAAAAAAAAAAAAAAAAAAAAAAAAAAAAAAAAAAAAAAAAAAAAAAAAAAAAAAAAAAAAAAAAAAAAAAAAAAAAAAAAAAAAAAAAAAAAAAAAAAAAA/jIkR4jD0qU+zGjR2lvSJEh1DLDDLacrcdeecUltpptGMqW4tSUoTjKlZxjGcn9ELQ4hDja0uNuJStC0KwpC0KxhSVoUnOUqSpOcZSrGc4zjOM4znGTyAAAAAAAAAAAAAAAAAAAAAAAAAAAAAAAAAAAAAAAAAAAAAAAAAAAAAAAAAAAAAAAAAAAAAAAAABDl9rY8rjnWLrzWdC+GtozA5u7OUK7LlCwp5zzFzonAyZz0J+Jl6I607XWHJ9nBmUUf3l5dXrNbsnq02idDfXm97NB5SYvkJ6Ka9x7yJsTU/s11cg1nG/J7UyUlVrt+psYkR+OuSEsrz8d/Frr8WPR7DJx8TGdpprKUvLLVlEZTI8AAAAAAAAAAAAAAAAAAAAAAAAAAAAAAAAAAAAAAAAAAAAAAAAAAAAAAAAAAAAAAAAAAAAAAAAAOh+z3YzjXqT1/5a7IcvWiqjjzh7SLvddifZShydMaqoq3IlLUx3HGUy7q9n5i09PEy61iTZTYzKnWkKU4ik6739xuTO/Pa7mPtVyvKW5svKO0SJ8Cq+J8SLquowEprtO0+uz6YTiDrOuxoFW0pKUYfcYdlKSlb68GSPhy8i+0eMbvVxX2HhzrBXGk2WnQeeNahpXIb2niHZZcRGxNZhJzj49nrz8eDtdA43jMhm3pYzaMOsyJMaRdAaHu+rcl6Rp/I2j3ETYdL33WKLc9SvoDiXYV1rWz1kW6pLWI4nOcLjz62bGksq9fpQ7j1xjJ9YAAAAAAAAAAAAAAAAAAAAAAAAAAAAAAAAAAAAAAAAAAAAAAAAAAAAAAAAAAAAAAAAAAAAAAAAeOfX19f0en0+ufo/wDL9f8AWV1nthflMXvXIGqeM/h/YXkavxnLib92Xl18lv4F/vMyHEl6Fx+85HkLUqFqNbJkbHeRJDTeX7u2pU5Sn8Der8FwFkJ7H95Ss8ucRbF42eWb15zfeDKiXu3AU6zlPSHdi4lkWOc7JpcR6Q+4pMrj22nsTa6AhLaPxaucphIzHo5WGZugAAAAAABxnOMfX/qILPnu8zHmQ8UfcZ/R9G2Hg+x62ct1bm7cA39/wvDs7ZiojKjRNl0q7tkbAymyutQt3kN5mqjxnZlPY1Ep5n47rrjmjn8r88xf+kXXL/cbE/5kH5X55i/9IuuX+42J/wAyD8r88xf+kXXL/cbE/wCZB+V+eYv/AEi65f7jYn/MhOz8DHlZY8rfS+HyPuMiig9jOLL5ehdgNZo4aamCzfONrstb26lqMyZLkXWtxo1YegKw6tpm3rL+qStblW4pW7oAAAAAAAhn+0We0V8wePPnLjvqt0incfS+W6Ookbf2Av8Adtai7vT6/EvosTOjaNXV2LKEqHsLkX57Y75+QrCo0CVr8dhC1SpmWo4X5X55i/8ASLrl/uNif8yD8r88xf8ApF1y/wBxsT/mQflfnmL/ANIuuX+42J/zIPyvzzF/6Rdcv9xsT/mQmbezp90vJJ5D+v8Av/azu1Zccw+Lb3ZVaZwHSaXxqxpNhsedadW3uu8SpmLKc7LoEWjidYqMJQlqTZVd65hXpDby7I3AAAAAAAAAAAAAAAAAAAAAAAAAAAAAAAAABB79os89/kA8ZvfTV+vPWG24khcdW/XHj3k6WzvPGrG3XOdo2TdOTqKzW3aO28FSICoGqVOGIeGc4aeTIdw4r4+Up0LflfnmL/0i65f7jYn/ADIPyvzzF/6Rdcv9xsT/AJkH5X55i/8ASLrl/uNif8yG8H2fL2gXyF+SLyFQOtvZW34gm8ZyOGeTN5cZ0njJjU7vN7qudf8AwSrFs3cTlYiJ/CMn5iN8DOHvVHqtPuY9Z1gAAAAAAAAAAAAABrR8tvkN03xldIeVuy19Lpnt1iws6hwrqVrLbZXvHLuwxZber0sWJn3pE9ivTHm7LeNR2nMsa/R2kl/LTLS3UUs/IvIO4csb/uvKHIN7P2feuQ9qvt03DYrN5ciwutk2azk3FzZy3l5ypb0yfLfeVjHolHv4QhKUJSnHxoMiepnZzkzpr2M4j7NcQzm4e+8QbjV7ZUMylPYrbhiG9hNrrlyiO4287TbFVuTKe0baWh3MOY6thbb6GnEXZfTDtnxZ3m6y8Rdo+HbFqZpnKuqwbxEHEyNMn6xeJR8vsmnXaoqsttXmrXbU2msmlJbVl6J8dLaWnm/XKQAAAAAAA03ec7xlU/lD6J71xNV10RXOPHaZvJ/Xm7WiI1Mj8iUtbIxnU8WEvLTcWo5CrviaxaIeksQsSX6qzlLbXUxpEemruqW31y5ttev62dS3tDZTqa6p7OK9Csqq2rJTsKxrbCHIQ3IiTYMxh6LKjPtoeYfacacQlaFYx6wA3R+B3yX2PjJ788dck39rKY4F5Okw+LOwlWhzOY2NF2Ca01F3HDClpbXP4/uVRNmaVnGXHqyNb1zWULn4cRcgUd3UbLT1Oxa/ZQrmhv62Dc0txWSG5dfaVVlFam19hClsqUzJiTIjzUiM+0pSHWXELTnOFYye1AAAAAAMFPJJ3o458c3Trl7tXyLIhut6RS5g6RrT8puPK3rkm8w5A0rTa1GVYekPWlspD0/5VDrsGjhW1s6lESukvNUonN/Mm/dhuYeTedOUryXsnInLW77Hv24XUx1Trsy82WzkWcvDXvZ9GIUVT+IddDaSiNAr48WFFaZjR2mkdWgGeHjU6McgeRfuXwx1a0OPJaj7rs8GXyDsrLK3GNI4vqJTEze9tlKShaErraJMlFWw5lCZ93Ira/C0Zle+m634T4c4/wCvfEfHPCHFdGxrfHXFmo0ek6fSMYT7kCkoILUGGlakoRh2S6lrMiXIyhK5Ep159ePfcUdogAAAAAAAAAAAAAAAAAAAAAAAAAAAAAAAAAq1fbMfzs+ifsX8P/4m85kTEAlKex9/nhqn9mnnD+3UC1kAAAAAAAAAAAAAB4OLS2hS1rS2hCcqUteUpShKceqlKUrOE4SlOM5znOcYxjGc5z9BU5+0/eU1Pfju3YcLcXbMu161dTrG40TUnYElS6LduTWncweROQIqcIQiXFbnx16pr1h6vNSqmpes4Dy4Vw2pUZYAE0v2Q3yoPcGc7W/jr5c2bLXFfYe4c2Dg522lMtwdR5sbh5TY65CffynLEXk6shx2WIHxfgL2mpg/IsosLyZ87ZW4zjP04AAAAAAABWP+1w+LFPWrsnT98OINZxD4a7PWUiJypHrWlfJ6hz4y25LnWL7LbKWoVdyXVozcsPfFUlzZq/Yku4YVMgofhzgAs8PZJ/Ki12b6vPdEOWdjRM5w6sVDr/H0y0nLdu974Hl2zmarGfmXFKmyuMJtlH1B1UfOPgauvUkPM5eakTJUwgAAAAAAqzPaufKa33F7eN9R+J9k/CfAPUe4sae2mVsiVip3bnRxjEDdbX4a8NMToui5+Z0monpbcYdltbFLrX3q+ezKkxOgAWm3spfiqe6YdSZnbPlzXX67sF25qaW4rINo2lE3ReDI/vWWl07UdbSX4NluzkrG33/xF/EchfixCy0xmvfVKlhAAAAAAAAAAAAAAAAAAAAAAAAAAAAAAAAAAFWr7Zj+dn0T9i/h/wDxN5zImIBKU9j7/PDVP7NPOH9uoFrIAAAAAAAAAAAAACOR7S15SY3jz6J7BoXH947A7M9pINtxrxVmvkJZn6frL7bLHInJDmUq+YZVTUEx2m15xGE+u0XNdJ95TNdJacqQXXXHnHHnnFuuurW6664pS3HHHFZUtxxas5Uta1ZypSlZypSs5znOc5PAAH0Gp7VsWi7TrW7ahcT9e2vT7+n2jWL6rkOw7Ok2CgsI9rTW1fLZUh6NNrrGJHlxX2lpcZfZQ4hWFJxkuZ/Cd5I6Tye9DuMudZEyEjl7WW88bc/a+wuOh+n5Q1qLHbn2vyTCsfLVO617kLbaRWG0M/LWjsFHuyK+WyztxAAAAAAAMQe+XTrjXvt1P5n6s8pQI0ii5P0+0rae2dQpUrT91YiuyNK3arW3lLjdhquxogWzaEq+HMZYfr5SHoUySw7Sd9m+unJnUrn3lbrhzDUZpeRuIdwtdP2SKlL+Ikl+vd/6JbVbklmO9Ip7uvci29RLUy381WzYz/up9/0x0SAZleP7ulyX4+u2/Dvazi2XKRd8bbG25e0rD6WWNx0W2Rms3XS7DDiVsuQtj1+RMhYy8hWIszMSwZy3KhsPN3XnWjsLxt2v4C4k7H8Q3CLzjrmTRNf3zWJmMpxJYh3kFqS9U2jGFKzCvKKbmTS3tc5n41dcQJsJ/GHWFYO8gAAAADRJ7Qj5QYvjO6Gbjd6dZ/B7Gc6Nz+KuBYrK0YfpLi0h5TsvIsnHxW3UQ9EoHZM+DlrDi5GzydfiKbxEdmSI1PhZ2djdWVhcW86VZ2trNlWVnYzn3JU2fYTn1yZk2XJeUt2RJlSHXH33nVKcddWpa1ZUrOT8IBve9nv8Wk3yc959cptypXZPW7gjNVyhz5PfafxW3FZEsU/ivxpiQ2j4a5/IFvGXEkxfjMu41iv2Oa2vC4raHLhKJFiwYkWDBjsxIUOOzFhxYzaGY8aLHbSzHjsMt4ShpllpCG2m0JShCEpSnGMYxg/QAAAAAAAAAAAAAAAAAAAAAAAAAAAAAAAAAAVavtmP52fRP2L+H/8AE3nMiYgEpT2Pv88NU/s084f26gWsgAAAAAAAAAAAAB8xu2461x3pu2b/ALnbw6DUNH1q92/ab2xdQxAptd1uslXF1azX3M4Q1Fr62HJlSHF5wlDTSlZz6YKYLzLeR3ZvJ/3p5L7DS3ZMXjeqw3xxwXrbuHGm9e4m1adYKoluRl5x7ltsk2fZbVeurTh5VjcuRf5kWFEjsaqwAASEvZwPKLL8cnfHVqTe71UPrP2Tl1vGHM8eXLkN12sz5i32dD5LZYRh1hEnV9jlRoly6pn3ndTtLpGF4fYhqbt34smPMjMS4j7UmLKZakxpDDiXWX2H0JdZeacRnKXGnG1pW2tOcpUhSVYznGcH9wAAAAAACC17YX4sHd80TXfJ1xBruX9m4wq6TjrstBqIOVSbTj52z+R0bkia3FxlcuRqNrbI1i+sXGXJDOtTqVyXJTUa2n5OusABO49j48qjmqbhsfjH5l2Bz8Xd2dst+6xWdjMWpqo29lt6ZvfGaMPe+lETZoSMbTrjTbjDce3rb6L8KQ7eRvlrD/GfXHr/AO/7MHIAAAB625uKzXqi0vrudGrKalr5ttbWU15uNCrq2ujOzJ06ZJeUhmPFiRWXX33nVpbaaQpa1JSnOcU3fnd8nVz5Qe9u7cmU9hORwPxemTxb1911ySpcGPpdLPe/CO5fKpVlhNxyHcJe2GwlYwp/Nb+Aqpbq41PEQ1pdAPZ0lLb7Jc1Wva/WTrq9vbGFT01RWRnZljaWtlJbhwK+BEYSt6TMmSnmo8ZhpCnHXnEIQnKlYwXI/gm8ZNJ4w+iOgca2sSve525NiVvKHYK/jRPgPu71fVrD7OnIfW469JrOPK55rVob6lNNz5cSxt24kP8ACeYrO54AAAAAAAAAAAAAAAAAAAeuPq9fp/UPXH6wAAAAAAAAAAAAAAVavtmP52fRP2L+H/8AE3nMiYgEpT2Pv88NU/s084f26gWsgAAAAAAAAAAAAOPXHr6fp+shK+1++VB7hviDXPG/w/foa37nmlTtnYKfXSXEzNZ4gamYaoNLddjvI+FM5Is4sx+1iOpUpOq0+WpDfy2xR1KrcgAADnGc4zjOM5xnGcZxnGfTOM4+nGcZx9OM4z9OM4+otbfZbPKgx3m6WweuXJuxNTuyPUSjptPuMz5r0i93viFtX4O0HfX8y1uPTZVWwhjTNjmIcdVmfX1s+b8N+8b+LKKAAAAAAAPieSePNP5b4+3Ti/kGjhbLo/IOsXWn7ZQWLLMiFbUGwQH62zhPsvtusqS9FkOYTlba8IX7q8JzlOClp8tnj13Txm94OW+tewR7CVpcS0c2zhjb5jKG2t24m2J56Vq9s2plS2vn65GH9dvo+MpXGvKidjCMxnIrz2tMA+64x5K3bhvkTSOV+N7+dq2/cd7PTbhqGw1rqmZlTf0M5mxrpbSk5x76USGEJeYX6syWFOx30LZdWhV1N4qvIHpPkv6U8TdntXdqouzXNY3rnLmqVKpCWNI5aoY0VrctdQxMcemMQfmnmrajxJfkuO0NnWvZlysry+5sYAAAA9fT/wCM5/sIe3tbvlKR1k6v13RTijZm43NHaymmq5JxWvJVY6f1/aeVAt2Zq230u10jkyxS9rkFCmsqm0FftWFfDay3mRWIAAmI+yR+K9HZjszP74cv607O4W6vWny3GESe1HVUbnz69EaegSJDL6XFzq7japmp2JTLTbbednmay67KyzBlQJtnKnGcfTnP0/V/r/1/1/o/1HkAeKlJQlS1qwhCU5UpSs4SlKU49VKVnPphOMYxnOc59MYxjOcmCvYXyeePbqmy+rsD3E4E43mR0uKVQWG/09ttz3wk5U4mHpmtu3O2T3EYxn1ag0shz3vROEZVnGM6cOWPa5/D9x47PiahufNHM8mKtKIsnQuIrqrprDOc499bU/kCTp05lpCfez77tRjK1YwlKMpV7+MNti9tf6OVynca71X7KbInDyEIy9Y8e0nxGVN+8t70kXMrKPhuf0WGs5ypeP6TCk49cHpKv22zptKlYas+nfZCrjZbXnMtGzcbT1YXj09xv5dqxZV/P9c/z8L9E+n04z6mSXHftj/iw2eS3F3bV+ynG3xfTGJs7j2m2evZz8HDivmXKDaXZraMLwplCmK+SpS/cVlCG1KWjatwL56PER2OdgwePO9HDFZeT3GIzGt8oWNrw1fOzpGW0tV0SHyrV6g1bzFOOobSijkWjTrnvJZdd9xfu7XqLYqDaK2Nda1dVOw081GHYdtSWMO1rZTakpWlyPOgvPxnkKSpKsKbdVjOFYz9WcHuc/R/w/459AAAAAAAAcev9Wfq9fT0/wDf0nIAAAznGPr/AE59P/E8FuttNrddcQ202nKluOKwhtCU49VKUtWcJSnGPpyrOcYxj68mAvY3yo+OfqUlxvsJ3J4H48s20Zd/Fh3d4Gy7s61hOVKdjaJpuNi3KW0j0wlbkWiebQ4ttpSsOOtpVp85S9rs8P8AoT8iJqW3c3cwvNLdSxL0biC2q6eThp/LWF4l79O0+waQ83j5hj36j38tKSl5DDuVNpw22H22LpFXrUnX+qPZPYUYkLbS45a8eUuVR8Yz7kj3ZFvKynK8+mPg+uVI+vKs4PWVPttfTOVIW3a9PuyFRHSzlaJKNj43slOPYW2lLGWWbJhSMKbU4v4uVKSn4fuZTnK8Zxkzxp7Yz4rNvejxt5oOxvFbr6WPflWvHdbs9XFccUlL2JMnWdjlzvhx8K9/LkerkKcQlfuN+/7qF7W+v/nU8SfZVyHB4y7zcJxryathmNq/JNzO4e2V+VJddZbhQanlSu1B+4lfEaV7zdLmySlCmnMr+E+yte1Gkv6LZa6Pca5dVV/US8ZVFtKSwiWtdJwnOUqyxOgvPxncJVjKVfDdV7ucZxn0zg9uAAAADjGcZ/1/q/Tg6O5j7OdcuvNW/dc8c78Q8OVUVhyU/O5M5E1TS2G47SPiOPZVsFrAzlCUZwrOU4z9GcenrnOPXS7zP7Ud4YuHZT9dF7MW3MFlFW43JjcMcZ7ttcVC20rVjDGw29XrOq2KHcowht6qvpzGVOI951KPeWnXztPtpfjzq3nEatwH2a2plGXsNPPV2j6/8XCG0KazlqVs0xTeXnMrb9Mqz8L3PfVlWF4xjqrHtunUXOfTPSrsdhOc49c/jnxnn0+n6c+nzn1/p9PX9Hodyap7aH45LZ9De18J9nNRjqkfDckM0Wl7HluP/Qf9IwzF2mGpef5739DhWFf0P/W/pU+7sZ4R9ps8MfNr8Svb7Zw+J7mapeGqvm7R9148YbwhWE5XL2uRTT9Cgpz7yVIxN22Otac5UlGcIc9zcpxJ2B4K59omNn4O5k4w5f16VHxLj3PGu9azutc7GUvLaX0ytds7Br4WXEqbw5lWEZWnKPX3sZwdvHGM+uPU5AABVq+2Y/nZ9E/Yv4f/AMTecyJiASlPY+/zw1T+zTzh/bqBayAAAAAAAAAAAAAxh7mdruMukPWXl/tDy3NTH07ibULLYXYKJMeLP2S4Q1lnX9UqFSVJbXb7LcuQ6iCj0cyl2V8ZTa22l4KTXt32k5S7pdkOW+zfMluu23zlrb7PZZ6MKz8jR1zzym6LVqZrP/7ek1imbhUdUzn3nfk4Tbslx+U4++7jeAAADYj4r+/u7+NPuxxH2j1N6zkUVDZfi3yvq9YtjC944j2KTDa3XV1tSsfLPPOx40a3qcOqZ+BfVFVKakxXWESGrqjinlDRebONNE5e4x2KBtnHvJWq0m6adsdY58WFb6/sEBmxrpbWc4S42tTD6Uvx3kNyIshDsaS01IZcbT9+AAAAAAARk/af/Fcz346SzOauMNdiyOzHVGPa79rEmLGbxa7zxWzBkyeQ+OHXkN/GlPIjsx9u1hDzikx7eklV7GGU7BMeTU6KSpClIVjKVJzlKkqxnCkqTn0zjOM/TjOM4zjOM/TjP0HABJ89lz8pr3RLuxA6/wDJmz4q+tnb26oNH2PNrJw1Q6Ty0txVZxxvjji0KxWtWE2YjS9gm++xCxXW8GxuVpiULMqFa9+v1en04z+n9X6v/M5AAAOkOyPYTi/qnwbyb2H5mvka5xrxPqVrtu0WOcIXIXErmMrZra1hxxnEu4t5eWKunhfFbzLsZcZjLjaVqWmk175dy+UO/na3l/tPyzMWvYuS9mlTaqlS+p6v07T4asw9S0yowpKEortco2okBC0tNqmSESbB9PzMt5SsQADvHrR175J7Xc+8S9cuIaV2/wCRuYt3pNI1ivbylDaZVtJSiTYzn3MpaiVVNATLt7ac+pEeDWQZUt9aGmVqxdidB+mvGnQLqXw11U4rgssa9xfrDUSztEoQmXte42rzlvum4WjqW2lSbHY9kmWFi444jCmmHI8NpLcaKw03mGD1N5e02sUtrseyW1bQUFFAlWt1d3E6NW1NTVwWVyZtjY2Ex1mLChQ47bj8mTJdbZZaQpa1pTjOcRLPJd7W9096sWGw8WdPqLPbjmCmkrrp+1wpy6TgjX5qG/V5tG3tJdst5lRnFJZea1aF+Bku4dbzsSpMd6LiD73Q893lK7zv2lfyp2c2jTePJ7zmY3EvCjUfifQ4MNTqnWoMrGqpibRtKGVK/mSt22XZZyfTCW5LbSG2kaeZUqVOkvzJsmRMlyXFPSZUp5yRJkPLz7y3X33lLddcXnOcqW4pSlZ+nOc5P4AAGZ/V7yJ94ul1zFu+sPZ/lziRyK5EczTUezyLHTpqILinY0S30TYUXGl3dela15XXW9DNgPYVnDsdePTGJgPj39s62yunUOi+SHh+LsVO841Cm878EVUesvYScoQ01a7LxZMms09kjDyfjWrupWlOtDTrz9Zrzy2GKx+c/wBY+2fXTuVxfUcydZuWdS5d49uMZS3c6xYJdfrpSVLQ7WX1PITHudetmFtrQ/V3UCDNbylWcs+76KzkR6/zvT+r1/8Af9X/ABOQACjV7BdlexsTnrm6LF5+5sjRo3L3JUeNGj8q70yxHYZ3O6bZYYZbvkttMtNpS2222lKEISlKU4TjGDqL/wCp3sp/3hecf97O+/v8f/U72U/7wvOP+9nff3+P/qd7Kf8AeF5x/wB7O+/v8st/Y8t73fkDxy8rW++bltW7WzHZPZobFnt2w2+yWLMRGqas4iK1NuZk2S3GQ44taWEO4aSta1YTjKs5zLQPjd/5E0PinUrjfeTNy1nQdJ16K5Nvdr2+6ga/Q1UVtOVZem2lm/GiMYz6ZwhK3cLcV6IbStecJzFK71e2BdC+vc680fqtqm39vN+rMSIqtoq8fiJwpEsm8qbS0zttyy5se1IZdTlUh7XtX/AkhlTSq7ZJa1OoYiz9lfa2/Ldzc9awOL92426varPW6hiBxVx3rl/tDEFxWcpjO7tyXA2+e3JQn3U4s9fga5NxlOVNOM5VnBqD5E8qvkn5Yffkch95u0Gzqk/Dw41L5i3OPESlpfxG22INfaxIUVptz+ehqNHabSr1zhGPXJv09kf5t5m5C8ti6ffeW+Td2p3es3NFi5U7bvm07HWLntWuh5amqr7i1mRMy2vjPfCkfB+K38VzCFpwtXraDgA9Jsmya9p1DbbTtl5U61rVBBkWl3f31jEqaaoroqMuSZ1jZTnWIcOKyjGVOPyHm20Y+tWPXBER8lPtePUnrdL2Di/pLrau2fKcGO9Fd5GVKcouAtetVYdbQ1FuU+mw8gyITiEuzE6/Cr9eWh1luHtM1/5xiFCM7o+dryg96p1qxy72d27V9BsFKRG4j4bUnirjivh5cbdRDdrtVVEutlyh1vDqZ+632zWiVKW01Obi/Djt6iJEh+U+7JlPvSZMhxbz8iQ4t5951xWVOOuuuKU444tWcqWtalKUrOcqznOfU/kAAZt9VfJD3p6SXMO56u9n+VuJ8QloXjX629xeaPMQ2/iTiNbce7ZHvtGuYa38fFch2uvTIzi/Va2sq+kmNeOn2zSTmZr/AB55KuKo+Iby4VbI7C8IU60LiZUpphy63TivDznxYyMe9Ls3tFfzITj42arVXv6GBicn197J8D9q+N6nl3rtypp3LvHd0nGYWzaXbx7SIh709XIVgwhSZlVZMemcSK2zjRJzCsZw6wnOMneAAAOM59P/AD+n6fT0x+s0r+TTz0dCvGHDma7yZu73KHOyoynKrgLih2vvt0beW3hcZ7c56pTdJoNYv3kLU/fy0WjzGcuVdNZqTlsgad7vawfJb2mnWevcC7NA6Z8UycyY6afilmvsuSreEpxWIzlzyre1cjYaeUlnCMrxoWNS9XFPNPyZsdSUJjZb/wAl8icrbDK2zk7etu5C2eatbkrYN02K22W3fU5nGV+/YXEuZJ9FZTjOU4cwn6MfzfowfEAAHZ3FHNfMHBOzxd14W5Q37inbIT8eTG2Hj7bLvU7ZD0ReXYy1TKSbDdd+A5nK2kvKcQhecqwnGc+pJz6I+11eQ/ri/Rap2iTQdyeMYUmFHlT9tjV+o8zV9M2ppuQ1A5A12uiwtklpjpdcalbxRXltKmLwudfONY+GTz/G35qOiflBoYqOAuR869yw1Bcl7HwHySmFrXKlFmNheZjkOsRMl1m2VKENrlM3OqWVvH+SylyxbrJaJUGLtnzn09P68+n/AL/r/wCH6zkAAq1fbMfzs+ifsX8P/wCJvOZExAJSnsff54ap/Zp5w/t1AtZAAAAAAAAAAAAB6/Tj6/p/4f6ytc9r68paebecaDx0cR7JIXxz13u8bJzy5VTm81m1c0uwMtVOrTlxHc5mR+M6mdKRNrpKvgR9stZWJUbNlQRVw4VQAAAALDH2PLyn/jJrO2+MnmO+9bnT48zkPrDY2MxnGbDWHpEmVyFxm3mQ4h5Uyimvxtq1mNHw/iRVztljqTETTxMTZ44AAAAAAB4ONodSptxCHG3ErQ4hxOFpWhacpUhSVYylSVJzlK0qxnCk5zjOM4yVHHtKviza8cneSdt3HFExU9be1MjZuTeJodZGUxUabfsWER3kPjWM22w1EgRdctbqFZUFcwpTUbWburix8JbhLbajogH9WH3or7MmM85HkR3W3477K1NPMPMrw40804jOFtuNuJStC0ZwpCk4UnOM4xkt0fZtPKOz5F+idBrXIGwrsey/WZis4y5fRYyY7lptdMwwtGhclspQrD8iPsNHHbrLqQ80lxG009vlz1ZlQnpEiIAAHGceuM+n0Fd37YX5T/xx3HWfGNw/schFFx7ZVXInZqbTWjrce625+u+a0bjC1aje6iTC1mFPRuFzXyXnmV3kzXHHozUuiaWQTAAWJHseXiyVp2j7V5M+Y9bZb2LkBqz486z19vASqZWaPHcYb3PlGEp9v3oqtrskPanQvM5S8uop7uX65h28FxydgDE/uj3W689A+Btp7Fdld2Y03QNaRiPHaaaVO2Ha9gkMvu1ep6jTNZS/c7FbrjuNw4jam2kYSuTMkRojTz6KrbzCe0Fdr/KNtF7o9Fc7DwR1EYnLa1/gnWL6TFc3CHEk5XAu+YrWscj/AI42rvw481GvPKe1SimIbVXw5MyOi1d0AAAAAAzQ6PeQDtT48OYarmbq9yjfaPdR3G2tj1jE2VK0Tf6X4rTknXt61Jb6anYayRhpGWlymPnq2QhqfVS4U5hmQi028Lnnq69eWTUMaXIjMcPdstQoIs3fOG7Wxafh7Iyw1hmx3Hiy0dwy5sGt5kozInVL7Sb7WUymY9gibFw1by9+OMZxjHr9OTkAFDV2J/zgedf9sfJ399rs6cALP72MT82ry3+05tP90dUN0/ld8tvW7xOcHo5J5jmPbPyNt7NrD4c4X1+VDTt3It9Ajp951WJDyMUun1UuRBTs20vtvNVrElDUOLY2j0SukVT3km8vndHyhcgv7L2A5Gsa7juBJWvSeCdNsLKn4m02PhTmGnmdbTKyxe7Etpz4c3ar5M66koxhht+LCQzDa1dgEqP2PD879j9lrmz/APK8flqqAYfd4O9XW/x5cEX3YTs5vEfUNLqnc1tNWx8NTNr3nZnYkqZA1DSKJT8d692OwYhSnWojbjUeNGjyJ1hKhwY70lFVH5c/Pn278pm2WusvXt1wl1Yh2Er8Vevun7DNZrriEmQhUC05XtIP4PxyBfoQwy80xPjJ1+mkKdzTVbDq3Zb+iQAAAAGdfQvyPds/HBy7VctdY+Ub3V/cnRHdv48l2E+ZxnyVVx1q9+l3rTvmm6u4YU048iHY5ZauKd11cmpsIbylqXap+G/zfddvLVxmhmk+T4w7OajTYmcq8CWVoiTOhNR5KIT+3aJPeRHe2rSJjr0N3MtuOifr789iru2W3sx5U3d0AD8FraV1JWWFzcT4lVU1MGXZWlnPkNRIFdXQI7kubPnS31oZiw4kZl2RJkPLQ0yy2txxSUJznFeh5yfardi26dtXVjxg7bO1rTURJNFv/bOqccgbPsUmQqVFsqjhNeU4la7StQ8spTyNlUTZJM1+QrWo9ImuhX1lBZu7y62a3sdg2O4tNgvreW9Ptru7sJdrb2k6QvK5E2xsp7z8ydLfXnK3pMl5151WcqWtWfpPVgAAAH02nbpuPHez0u7aBteyaPuWtz49rr22aheWet7JRWcVxLsawp7ynlQ7Otmx3EpcZlQ5TLzS8YUheM49SwR8FntUqd+stT6l+TPYo0Hb7FyBQcZ9rJXy0Kp2Gc6tuHC17mhltDDFTbylrbxC3+KnFbPdypnYo1dI9y0mzvGXUPttvtONvMvNtusutLwtpxtxOFocbWnOUrQtKsKQtOc4UnOM4znGcH9QAVavtmP52fRP2L+H/wDE3nMiYgEpT2Pv88NU/s084f26gWsgAAAAAAAAAAABqW81fkh13xidD+T+dU2VZnl7Yoy+Ouv2sy1Iek7BynskWQ1Wz8QMPNPvUunwW5m138vHpHYiVjUJa8zbOvjSqY/a9p2DeNo2Tddstpt9tO331vs+yXllIdl2NxfX1hItbe0nSnlLekTJ9hKkSpL7q1uOvOrWtSlKznPoAAAAAd0ddOfOR+rfOnFXYfiO5coeRuIN2ot51WwT6qZVPpJjchdfYM+uMS6i4i4kVNxCX/RzaubLiOfzHlF194+O6vHPkI6i8N9r+MlsNVPJeuoXsFE1IzJe07eqheavdtNmLVhDmX9e2GNNhNuuttrlQkxJuEfDlN5zmkAAAAAAAarPMj449X8nnRrlDr7NaixOSqqDK5A4I2OThKEUXLut1k5etsypGcZXHp9l+M/q166jC1MVdu/MSzIXEbYcpf8ActP2jj3btn0PdqOx1ncdMvrbV9p124jOQ7Sjv6Kc/W21VYRXkpcYlwZ0Z+M+2tOMpcbVj6cemc/NAG2bwseSHYPGH3v4v54XKnP8SX0r/J7z9rMVavh3/F2yrxEnz0s4QvLlrpdguFudJhGEuPTaX8HKcTFsJWFXNum7dre/6lrO9abdV+x6juNDU7PrGwVMlmbWXVBewWLOptIMthbjMiLOgyWZDLzS1IW24lWFZ9fU+lAANbvlh8g+j+M7pHy52b2d2BN2mqrUatxFp0qShmVvPK2ze9A1SkiM59XX4kB1b2ybE4ylWYWtUttLz6rbbbcpZeUeS905m5I3vlrka9nbNvvJO2X27bhsFlIelTbbYdkspFraTX35Djry8uy5TmUYW4r4beENpz7qE4x8GAbI/E949948mHdjifrVrEeyjalOtY+08x7bChyJDOlcTUEyK/ttw/IabUxDmzo626CgXLW2y9sFtWs5yv3soVdRcc8e6bxLoWncYcd0EHVtE0DW6fUdR12tby3BptfoYLNdV18ZOcqVlEeIw2jLjiluurwp11a3FrVn7Mx87S9n+Gum/BHIfYznvboGm8acbUki2uLGY+y3IsJfp8Oq12kjOuN5stj2CwVHqaOrZVl6bYSmWU+6nKlpp3/LZ5YOefLB2Lm8q8mSXdc4u1GZd1XBXD8KQ9mi460+dKZSh2Q0qTJan7pfwq+qkbjeYXlE6xjpZgNxauNEitaqgAAAAAdj8Rcu8k8Dclaby/xDuF1oXJGgXkLYtT2zX5jkK0qLWC5hxp1p1vOMOMuYwpiXEeS5GmRXHoslp1h1xtVuP4GfM5p3lj66Oo256j1bthw9FrqrmzQYTqYrV5GfwqPU8oajXOr+OvWtjWytFnGjZko1q++JWSXUR5dU5K31AAoauxP+cDzr/tj5O/vtdnTgBYk+zVdxOLehPgv7cdqeX5bbep8W877hZRqfExiFP2/aJep6lB1PS6d59K04ttovn4VTEyll9TPzC5WWHUMLRmDn3m7t86eQfshvfZnsDsK7jcdxmKaq6eM5Ixrui6nFffXQ6RqUF91z8H6/RR31tsN4z8aZKcl2k5b9hOlPuYhAAlR+x4fnfsfstc2f/lePy1VBjJ3D7bcMdHOu3JPZrnzZo2s8c8aU2bGatb7CLK/tpTqINBqWtxHnWlWuy7NbyIlVT1jHvOvyZGHF/DjMvvNU7vla8pHO/lU7L33NPKc+XSaBTzbOq4T4gjWDsrXOLdHdkp+VgRse5HasdltWI8SXtexuRmZNxZJ9G2olbFgQImsQAAAAAHb/AAJz1y11i5f0Pnjg3dbjj7lPja9j7Bqe00clceXCmNJWzIjSEYz8KfVWkJ6TWXNTMQ9AtqqXLrpzD8WS60q3p8IPmG448tXWtGzLbqtQ7I8Wxaik5+4wizEK+StpLKmoO96zGdX865o+4vRZb9ct1Liqmxam0MmRIehNypW7AHipSUJUtSkoSlKlKWrOMJThOM5UpWc5xjGE4xnOc5zjGMYznP0YK1P2mzz8zuym27T4/unW7sY66adYS6Xnbk/VLJEpjnHaq+ThqVp1HbwJDsKXxfrU2Nn5iXAcdZ2+6b+YblOUtfE+fhagAAAAAE+H2YPz/wBw1e6d43u6e6MzKeyag691c5j2q3wzKqrFhvMeDw3t9nZL+FLhWLaY8bj61kS2JMSc0nV3Uz02VT8jYLY+r0+j6Po+j9f/AIfUcgFWr7Zj+dn0T9i/h/8AxN5zImIBKU9j7/PDVP7NPOH9uoFrIAAAAAAAAAAAD+T77MVh6TJdbYjx2nH5D7y0ttMssoU46664rOEobbbSpa1qzhKUpyrOcYxkqKPaRvKOvyNd7thoOO712b1p61PWfGHEaGHpSYG2XMSV8PfOSlxXvcR7+xXjDlbRuZZQ5jV6eqeVht+bLbxHjAAAAABL49ks8pyurPaWV0d5Y2hut4L7WXaHNIk3E11qo03n5uvag0eWPfwuPBRyXBgQtRkrzlhuTexdWbdX65wtNn/jP05+j6v0/r/9/wDE5AAAAAABx6Z9fX1+j0+orcva/fFjniHmfXvI7w7rHy3G/N78DUOf4dVEziFrvMkVuSmm3aThtXw4kPkOjYiwJnusoazs1FImOurlX+U4hKgAsoPZCfKkjmzhC28b/LexNOcmdeqGdtfBD1i4+qw2rhRy3Qq71tqW4lTUqXxtd3kZuDCckfOp1S3hswGHKvXZP4PmsY+nGM/rAB4qVhOFKVnCUpTlWVqzjCU4xj1znOc+mMYxj6c5zn0xj6yqE9qL8prne3uvM4E4xv8A5/rb1KsbbS9ccipW3F3PlfOUQeSN1Vn4ikyoEOdETqmtOfDRhVdVSrJOcpt8NsxhADnGM5zjGMZznOcYxjGPXOc5+jGMYx9Oc5z9WC1/9l48VzfQ3pTC575L1/8AB/ZDuBRavvuyYmp9bPTeJnIq7njLR1NZWr8GzJUC3ztmzQcpZmotbOJWXCEyqBmLCk8HCvq/R6Zz9Pr6/wDD0/T+oq5far/LdN7fdn5PSjhvbXX+uPVnZLKq3JVNLzim5J55rnHKzZbKW5Gdyzc1XHbjcnVqDL2HI7Nx+MthD99Mth9USIAH3fG3F/I/Mm5UvHnE+ibbyRvexy2YFFqOk0Fnsuw2kuQ62w01Dq6mNKlu5U662jK8NfDRlacuLTjPqScuovshnk55/ranaOcXeNeousWiPmEVnIt2ncOTURFI+IxIk6NortnDp8ycZSj5DYNoqr2C5lSLGkirRlvO7HQPYiOAokOGvk/vDyzd2WUMqnxdK4z1PX4CV4SvD7cObc3N9JWha8oy069DQpCUKwppeV4Uj7LY/YkOokyL7mq9yuwVDM+G7j5i507j/Y4/xVZbyyv5WL+Lq/cbwl1LjfzXq5lxCkrb+FlLus3sj7FV2y02utbnrH2Z4n5oVFS47Xahv9Ta8WbDZNttOOfAZukO7LrSZ76koZjNTX66Bl1zCpVlEZSt1MWrt74+e5nQ3a06f2y6/b3w/YPue5WWtvFhXGnXuM4ypK9e3vWJt3pt6lSceuUVd5KeZzhTchpl5txtGGwAM2PHp3j5a8d3bDijtFxHZyWbDSNhgY3DWcPrbquQePZcthvcdEvWcZ9x2DsFNiRGYkZTl+qssQreCtmdBjuourOs/YfjXthwJxR2M4guWr7jrl/TKnctant+8lxtixYxmXWzGlpQ4xZU1i3MqLSM4hLkawgyWVpxls70AKGrsT/nA86/7Y+Tv77XZ04AZ/bV20vW/G5xL0moLSTE16T2T5K7C8jwWFONs3NmzrGtaTxzEmKx7mHmaVnO6WXyucux3ZNpXynEJk10ZSMAQACVH7Hh+d+x+y1zZ/8AlePy1VOFKwnGVKzjCU4zlSs5xjCcY+nOc5z6YxjGPpznP1YwVVXtR3lvse8fbKw6s8SbG+vq/wBWb+w19PyL7qIHJfMkL4ldt+5y28Kw3JrNafxK1XUfVOcZYZtrf3s/hdlqLFdAB2PxVw/yrznulVx1w1x3uXKG93byGKrU9F1202a9muOLS2nLdfVRpL6WsLWlK33EoYb97GXHE4z6koPqh7Ht5LubINXsXYC54r6mUU9xl1dHtt/G5G5GagKUpWXpGu8dzLXXa159jDamIk/cW7KMt74VpWwX2XY+NzmhexE9eIcaO5yZ3d5fvpuffzKjaZxvqGtw0/zX0tpjy7e12J9f87Md1anIiP8AqOspT6OJeb+s2L2JLqBLiYb1fuT2EoZ2UuY+auNP4/2OP76vh/CV8nGTrq/db91z30/Oervvp9FNfDz8TV52M9iu7i6ZXWFv1p7HcPc2uRm5L8XU91hW/FWwT0s5dWzEiWrmdj1rNhKbS00ymwm1VfiSvOJNlFj4U+mLB2v6Mdueje650DtdwJv/AAvsS8qzAXs1azJ128aS481iVrO5Ucm10/Z4a1x38Il0F5Yx1/Cc9HPVCvTE8AG/b2dmi8j1H5AeMuWuhXEG1cj11FZRdf54w/Jj6zxVYcO3dnXxdyqN43K9VH1+EtiOpm3pGWHZuws31fWyqaslyWsMruAEZzlOPX6M+mPXH14xn9OMZx9GfT6vX+r6sZ+g8iKp7Ut5bZnRPqvD6y8I7Quq7NdpINhVOWVZIbRZca8LobfhbdtbbiM5fhXuzyFtarrDiEtuNNP39u0+y/VRESarRa1OLUtalLWtSlrWrOVKUpWc5UpSs+ucqVnOc5znOc5znOcniAebbbjzjbLLa3XXVobaabQpbjji1YShttCcZUta1ZwlCE4ypSs4xjGc5xg3ndIPZzvKh3nrqncNQ4IVw7xRbIZkROU+frRvjimsIbqkZxI1/V5LMzkLY2VtKW5Hn1mpLonXGlx3LmO9j3SRtw77EJXqr40jn3vTNZtMobXIrOJuKI70H4ik+rjCLXbdjZfxhpWfdw/+C1Yc931+EjCv5uUX5Ez0n+R+Fjtr2U/CHynw/nPwNxz8r878H3fmfkfwP8T5f4/9L8p897/w/wCh+a97+mMPOa/YhrqNDkyevHeSBazENuux6nl7i52obedxlWWYf4X1G/tMN4Vj3EKmLrc4xn3nPlfqQRsO83gL8n3QCvtdu5f6+zNx4nrZOWP8sfDFxA5M0fLWGsO/OWkOmWndtRiYx77WZG6ajrsdx9pxEZ6S3hDrmmnOM4znGcZxnGc4zjOPTOM4+jOM4z9OM4z9eDgA/TCmy62ZEsa+S/CnwJLE2FMjOLZkxJcV1D8aTHebylbT7DzaHWnEKwtDiEqTnGcYyW7Xs4/lbR5LuksCr5L2KPN7S9dXIHH3MsR/PuWe10yIbWNI5WSjCEtyGdsgMyK+6cZzlyNtVLb5kssx51Y/NkK/WAVavtmP52fRP2L+H/8AE3nMiYgEpT2Pv88NU/s084f26gWsgAAAAAAAAAAAIvftR/lSa6KdLpvXfjLYFQOyPbujvNNo3q2Wlq30PiR1KqzkDe8Zafbl18q0ivSNP1ee2nDibObYz4S0yKNxbVUYpSlKUpSsqUrOVKUrOcqUrOfXKlZz65znOc5znOc+uc/Tk4AAAAAB7KmuLXXrerv6Kwl1N3SWMK2qLWA+uNOrbOukty4E+HIaylxiVElMtPsPNqwtt1tK05xnGC4z8B3kzr/Jr0F4+37ZbiNJ7B8UsscWdharC0JlubjRM/Cqd2Qx72XM13IOvIgbHh73cNsXT13VoU5mty65uzAAAAAAAMau4HVvjTuj1o5k6w8t1UW20nl/SrfV5a5UdEp2jtJDCnde2qq9/wBFR7vVL1qv2CmmNKQ9Gsa+O6hePdzjNJ13O6o8m9H+z/MvVjl6AqHvHD+4TNdmSEtONQ76odaZs9Z2qpU4nHx6fadcnVd/VvoypC4dg1j3sqSrGMYQDJzpt2v5S6Q9l+JOz/D1m9X7rxTtUG9ZiplPxYexUuV4j7FqVxmOpKnqXZ6V2bTWTKsOIzHl5c+GtTaMF2R1A7S8ad1OtPD3Z/iKa5K0fl/SqnaoEWV8HFnQ2EmOlF5q102w6+yzd6xctzqO1bZefj5mQXXIr8iK4w+7kpj6sf6v9QBHa9pO8o+fHN0TvdY48ufwf2R7RRNg4s4kejPM4sNQpX65MfkDkuO0pz4qJOrU9mxEoZOGHWGNnuKiQ97yY2WH6jF996S89JkvOyJEh1x9995xTrz7zq8uOvPOrypbjri1KW44tWVLWrKlZznOcn8gCRV7Nh4sV+RrvJU7byPQ/P8AWXrE7U8k8rKlt+9A27ZWpmHOPuM0ozn0k4v7aKu4v21JVHRrNHZRZOUu2cFD1uSww1Gaajx2m2I7DTbLDDSUttMstIw22002nGENttoSlCEJxhKU4xjGMYxjB/U1I+cLvdnx3+NvsBz1TWiK7k20qYvFfCqErSmY/wApciqdpaWdBx8ZhSl6tV/hvdpSkOoebr9ZlrY9+RhlpymBsbCdb2E61s5b8+ys5kqwsJ0pxT0mbOmvrky5ch1ecrdfkSHXHnnFZypbi1KVnOc5PxgGz3xWeKrsP5XOwcfh7hmNH1/TdbzXXHMPLl81Ixq3G2oyZeWlyXMstOKt9ns22ZTOsazGymTazGVuPuwquLPsYlsj45PE/wBN/GHxlB0frrxtW43GVFa/HrmnZ4cK35W36zywy3KkW2zux/mq2my41lVdqtKqBr9WhbimIS5kibNl7Kjj0+nOf1/X+o5OMY9P05z/AK8nU/NnBXDfY3jrYeJud+NtQ5V442uC/XXuo7nTRriqmx5DeW1rbS8j48GY3jPxItlXvRbGE+luTDlMSG23U1mHtAXs4+yePl+47W9RIFvunTafMcc2/V35cy63Lr5Yy5jTcRmzfkJdm7BxxPXKSxU7O5IlWNI/Hcr9oylLlbbWkS8AFhP7GF5ApF1rHNPjm3u/lSpOo5nc78FxLB/LyIuuWUyvrOTtYp3H5anI8OHey6jamqmNFRGRKvb+zRnL0qcrM9EAoauxP+cDzr/tj5O/vtdnTgAB7vWtZ2Pcr6p1XUaG52jZr6azW0mva/WzLi7t7CQr3WIVbV17MibNlO59cNsRmXHFemc4T6YznEjDqR7Kl5ZO0VdUbPsuhaB1e0m1aaltXPYbap1JsLsJzOVZVE4+06i3LcW5a2cJdis7BW67DkYdbwqxZx8RbW7Hj/2H7CYMdzlPvzl+xWlpcqNoHC2IkJhWUuZeZjzdi3Sa/KwleWcNSXYMPLiUuKXEaytKW/oNu9h+1V2I8nRO/GwwbDMfPy69t4YrbWFiV6Peinm6fcqZ9THrmP6obdS5jCXs4XnK0YRkx4SPZye3Hin8ki+wvIPKvB3LXBy+DeSdDi7BpFht1Pu6Ng2iw1N6ratdG2HWWocOOtqomLck1u3XbbeEpw5lC1pSqaIaY/Pf36f8eXjW5x5U1ie5B5c5BrF8LcLyGFMfHq985BhzK3G1IQ9IZXnOmUWLfZY2WG5SvwpXVjT8bMV191qmrly5U+VJnTZD8ubMkPS5cuS6t+TKlSHFPSJEh51SnHn33VrdddcUpbjilLWrKs5zn84Btz8QniB598tXPH4hcfZzpHDmlvQp/NPNVpCfkUmmUzy8LRTVDKE4Td7xesodaoaRLjbSfRyys341dGdcVa++Pzxg9PPGpxjD486ycWVVDZyIcNO58nXLTdxydyDbMRGY0q22fapSFTfhyltLfZo6zMDXq34q266rjoUv39hAxj0/Xn/X9ZxnHr9Gf/k5Okuf+uHBfafjS/4f7CcXafyzx1ssGTBs9a3GmiWsZKZLKmcza2Q8385TW8bCviwLmpkQrSvkoblQpbD7TbiaxTz7+zq7l415dn2c60ruOROl95dojWcOV8xZbnwFZWr/ALldVbXI91a7rSJkheIFJuK1YkRZWWKvYUolSIc+wivnZ/DvCvLfYPkCj4r4R4627lLkTZH/AIFLqGk0k6+upmcZThx75WC07mPDj4VhcqdJyzDit5+JIfaR/OJ0Piw9jukSUa3zF5QNoRHZW6xaQ+rnGl4/8y5CUx8RqHynyJATFcgS1vqTmZr2iyH1MsNfCd2tMmQ7GhTseFuCuG+ufHmv8T8EcZ6ZxPxxq8Jqvo9P0aig0NPCjsp93ClMQmm1y5b2fedl2E1yTPnSFuyZkl+Q646rtbGPT6Mf/B6m/varWKO52S9nM1lJr9VYXlxYyVYTHr6qqiOzrCa+rP0JZjRWHnnM/TnCEZzjGc/QUoHlt7x7D5Du/vYTsrZ2E2Rql5uEzV+JamS9lxjWuI9OdcotFqYbSXnmY+ZVbGzsFt8sv4MvYLu4sEpRmXlCdboB93xhxjv/ADRyDqHFPFmqXG8ch77ewda1HU6CIubb3l1ZO4ZiwocdvHrlSlZyt1xeUMsMocffcbZbWtNoz4UvZnuvvQzWtZ5u7aazp3P3cCXHg2yEXUWLs/GvCE/3cPYrtDrZ0fNddbRCWrDUzeJ8WQ61IbcTreIUbOZUuVElCEIS2hOG0ISlCEIxhKUITjGEpQnGMYSlOMYxhOMYxjGPTGPQ5zj19P6s+v8A7/q/WcnHp9P15+vGfr/V/wCmf0n8ZUWLNjPw5sZiZEktLYkxZTTciPIZcTlLjL7LyVtvNOJzlK23EqQpOc4VjOM+hDw85Hsv3EXajW9u7K9AtS1jh7s5ATabNtXFNMwzQ8bc5r92TYWLdbWxkIrNN5JsZK1vRbKI1GotimrzHuWIkuV+GG6zbYtdvtRvrnVtpprPXdl12zm0t9Q3UGRW29Nb1shyJYVlnXy22pUKdClNOMSY0hpt1l1CkLThWM4PTAG7X2ffv3Z+P/yX8HblZ3b9fw7zBdRODucIOXlogO6dvktqtqNkktfESzmRou2u0m0Nvqbdf/BsK3ro3uZs3FFyA24262260tLrTiEuNuIVhaHG1pwpC0LTnKVJWnOFJUnOcKxnGcZzjJ5gq1fbMfzs+ifsX8P/AOJvOZExAJSnsff54ap/Zp5w/t1AtZAAAAAAAAAAAD4Xk/knTOHOOt45W5FvYWs6Hxzql9uu3X9i8hiFU69rdZJtrSY844pOP6KJFdy20nOXH3fcZaSt1xCVUrXlX8g29eTPuryn2f21yyh69aSsanxJqdi/h3OjcSa7LnfihrbbTalRo0haZs29ukRfVl7Ybq3le+84+t9zXMAAAAAADeV7P35O5fjL766dtm220xrrxzSmNxVz5UIk5bgx6O2k5Tq+/KaWlxnE7jzY349wp73Euu6+9sVUmRGRZrkNXENbYwreug2tZKZnVtnDi2FfOjOIejTYU1huTElxnm8qbdYkMOtvMuoVlDja0qTnKc4yftAAAAAAAzn0/Xn/AFfWQq/a9/FevnDg6j8jHENCmVyd17q4mq85V1dDU5ZbVwnInuZrNo95tzGXpHGV1YPOzW8suLVrF3YzMutNUXw361sAE2n2QHymO8Q8zbH44eX9h9OOec5z238ATbaxS1F1DluDDku7HpsHEleEYhcmVbbEyJDaUnDOz0KcxmlPbBNXmyPB89tu2a1oerbFu25XlXrGpajSWmybNsV3MYrqejoaWE9Y2ttZz5K248ODAhR3pMmQ8tLbTLa1qzjGCmI80Hkj2Xygd6eSue3pM5jizX3nuOOBNbkyH1x6LijWrKdinnIiusxvlLLcJUiXt922qOiQ3Ot8wn3HUwWVY1PgH0mnahsvIG26zoumU07Ytu3G+qdY1mhrGVybC4vbycxW1VbDYRjKnZMybJZYaRjH0rXj19MeuS5z8Lvji1jxkdEeK+CWYcN7lW8r2eQOedoREiszdg5S2WO1Lt4C5DGFOP0+nMrY1LXkOvO+7XVWJavSVOlqXthBXZ+2v9rpNvy51X6XVM5eK3StOtufdzhId/o3bncrCfp+m/HbSj0UuJWa7srrSVue8ymfleG8JkYWqCmAfWaHo218nbvqPHOi0svYt03vZKXUdUoYCPiTLfYNhsY9VU18dOc4ThcqbKZa99aktN4Vlx1aG0KVi6P8Rnjb468XvTPj3r3qbFfY75MhQtw5w3yPDajyt65Wt62JnYpynvhpluUlK43ig1ZiYtb0Whr4mHMIfdfxnZ6AAPTGfrx6nze4afq/IOqbJo270FRtenbhRWms7RrN/XxbWkvqC7hvV9tU2tbNafiTq+whSHo0qLJZcZeZcUhxCk5zgpuPOf40Jfi67671wtRR7F3hTeoDPK/ANzNS47iRx1sdhYRfxcenKcexKtdIvK6z1qw+KtEx2NErLV9htm2iuPacgDaF4X+1U7pn5OeoPODdtKqtfh8rVGjb98uv0bn8ecmpd0Lb4MtpWfgvspqr9yfHw+lSItlBgWLfuSITDrd1ky60+028y4l1p1tDrTiFYUlxtxOFtrSrH0ZStOcKTnH0ZxnGcH9AUNXYn/OB51/2x8nf32uzpwAGwnxteNPsh5QOwVPwVwBQrahsuwJ/JXKFvBnr0TijUpErDMnY9psIzWW8yFMolKo9fbfatNlmRXINYnKkPvMWu3i/8K3S/wAW+iV8LibR63eOaZUCO3uvYfeaausORdhn5iIYsG9fkvIl50TWJDvxlsa3r0lDWWXEos5tq+3iTnbyPTH6vq+r+oAfT64+j/Xn9RW++2sdq5u2dmOsfTynn5zrvEPGVhzFuMRl9fuP73yfay6WhjTo+F5bw/Q6Zq6Z8J3LeF/B3WUj3s4+jEIkA7T4P4d3nsLzFxjwZxpUSb3fuWd41vQdTqojDkh6VdbNaR6uJnLbWMr+XjqkZlS3f5qGIjLz7q0NtrWm6o8Z3QHinxrdROL+sXGMCC5L16pas+SN0bgtRLbknku0abkbXuN24lx951cmbnMGniuyn26mghVlVFVhiIn1z9AAB8XyLx3pPLWi7ZxnyPrNPuWibzRWGtbZq9/Aj2VPe0drHXFn18+FKbdZeZfYcUn+cj321+660pDqELTXva57GXyxt3d3mGr2nmaq4u6KUe7SbfjLaazEXbuZN40q2dVaQNPhUWVwqrW7TXWH8a9abbsC347zkRNnXa7Z/MuRY02Lov40OmXjm0NWj9V+GNd0l+chnOzb5NYbu+S9zkMNIaS7s+82Dbt5OjIylTkeoakxqSC69IdhVsd2TIW7nljPrjGf1nINFHtI3aid1R8QvaLYddt1U+9cs12vcA6RKj2K62wbm8q3UWn2qVWSGc4lJsKzjlrc7OIuJlDrUmIy78VlKcuJp3gAWPvshHikp+NOHpnkw5eoEy+R+ZYdxqfXuDbwGlY07i6HYZhX291uJCFON3W+WtfIq4Fk38JxjV695EVWY9/KU9N7AABxn0xjP0fR+rGCvq9sC8UFVRL1/wAnnCWsIrmbSdVaD2ip6WA03BVZy1ph6Nys6zCZR8vKsHc41TbJr6cszJatcmOutzXpSpsB0A82nXGHG3mXFsvMrQ6060tTbjTjasLbcbcRnCkLQrGFIWnOFJVjGcZxnGMl1z4aO0Su5HjD6b882E1udsl7xFU6pu7qHMKX+PvGkqbxxuC3kYaZyyqZe6tMsmGso9Uw50bOHX0KTId2eAq1fbMfzs+ifsX8P/4m85kTEAlKex9/nhqn9mnnD+3UC1kAAAAAAAAAAA9fT/4zn+wgg+2HeUx3VNU1HxlcObDHxc7xGh8idnZ9dLSqXWaow+xJ4941cww5nLDuyTmpG1bG2/hDiaut16M2lbNrMw3XigAAAAAAAtG/ZPPKmz246mr6Xcp7BFd546ha3T1WpImPLTbbzwA0puo1W1ZzIkvOWcvj6R8ppt24yhv5Otf1F15vKpqnVS3QAAAAAAD5/a9X1/d9Y2HTdsq4l5rG2Utnrmw009rD8K1pbmE9X2dfKaVjOFsS4ch5hzH1+6vOU5wr0zimP81Pjcv/ABhd7uT+Cm2rGXxHsU2TyJwDslhlDr9zxXsc+U9UV06SwxHjyLzUZCZGq3bjLEdEmXVpsURozM9phvUuAfSabt+ycfbfq2+6bbzKDbtK2Kl2zV72vdUxPpth12yjW9NaQ3kZwpqVAsYkeUwtOcZS40nP6C5+8NXkc1jye9F+MewUSdW/5TKhpHHfPWuw8NMO63y5rVdXqvfer0POqhV2yQ5tftVHnPusuVlyyhnGFMOtNbViFP7Xt5T2+FeD9f8AHZw7s+GuUee4bWy87SamZjEvUuGIrysVmqTMs59+PY8k27XvvR1rStGr0s3D7PwruE6Vr4AJsHsgXi0xzNzbe+R7l3VnpHHHX+3lapwCm1YR+C9j5qer0/hvbIcZ5pWbBHGtNZMpr5qVIiw9quY0iMp20olKr7JfHr6/o9P0Yx/w/wCByCnf9pU5pk82+Z/uZY5lKfquOdl0/haii5dbdbrY/Feg61q95EZU2pWMJkbnG2i2dbWr4jMqzkNLS3lHwkaJwDOnxudy6bx/dwuKu2ttwrUc+yeI3ry21zj6822RpVaraZ9HPqKPYnbyLr2zvof1mTOzcQYyatSX58aN8R5ptCsLltflxnJf2c+jfeWv/wCCw/LjeS/s59G+8tf/AMFh+XG8l/Zz6N95a/8A4LD8uN5L+zn0b7y1/wDwWH5cbyX9nPo33lr/APgsPy43kv7OfRvvLX/8Fh+XG8l/Zz6N95a//gsPy43kv7OfRvvLX/8ABY0j+aDzts+Y3TOHKbaen+s8F7pwxsN7ZUXINHy3O3ydYa9ssCPGudTm1s/jnV8twH5sCstWX2bT1ZlwvRUZ3DvqiPoAfphTJVdMiWEJ9yNNgyWJkSS0rKXY8qM6h+O+2rH0pcadQhxCsfThScZ/QXpHRrltHPfTDqbza24y7/lX65cM8gOqYUtTaZO1ce69cymf6TCXcOMSZbzDqHUpeadbcbeQlxKk4ynBQ1dif84HnX/bHyd/fa7OnAD7fjXjnc+X+QtJ4r46opuz75yJtFJpuoa/XNqdmW+w7FYR6urgspTjPu/GlyWsOOr9GmGvffeUhptasXPXiH8ZvGfi26faRwPqcOtsOSbeDXbRzzyDHYTiZvvJkqJldm7mYttEp3XtcclSKPU4j2cIiVTOX0ssSJ8vCto4ABx+nH9fr+j/ANfX6P8AiU0vtCPMMjmrzCd2tick4lQtZ5Na40p3P+k+8ms46oKnVm2VplPv5SpmXXy28pZ+FG9E4yyw2nPpnTEAS9vY4+o0DmTyCb92X2OocnU3VPjGVM1eU/HUuvi8kcoYm6hWSMO5aW1+EoWpfjc5DaWtCk4kLlt4y7FbW3aBAAAAAAEE723PmiVWcSdKOAIr6mmNt3rkXlK1Yw4nGJTOn01RrdbhbPv4XnEaTtEpaXPh5SnLuU+/jKvdzXcAHm1lrDreXkOOM4cRl1tpxLLq2sKxlxDbq2n0NOKR6pQ4pl5KFZwpTTmMZRmb7xH7Z/sXCvFXGfDukeNrQa3TOKNB1DjjUq9jsjdx2oWt6Tr9frVLGbZa4Vw22lmtrYyPcRj3U5xnGM5+s7D/AC43kv7OfRvvLX/8Fh+XG8l/Zz6N95a//gsPy43kv7OfRvvLX/8ABYflxvJf2c+jfeWv/wCCw/LjeS/s59G+8tf/AMFh+XG8l/Zz6N95a/8A4LD8uN5L+zn0b7y1/wDwWMdO3Xte9l3G6yc59XuRvHPojWoc4ca7Tx9Y2WOxFzYytek3tY/HqNrrIj/DbDbtzqdxmBsdNnMiPlFpWRF4fayn30wxwAWdHsX/ADS/ufjw5q4blvuPL4X7F2suvS69lamKrkrWKW6TGjtqXlTcNqzqbOT6ISlv5qdJV9LjiskxAFWr7Zj+dn0T9i/h/wDxN5zImIBKU9j7/PDVP7NPOH9uoFrIAAAAAAAAAADDTv8A9zuNfH/1L5i7U8pTY7VLxvrEp6iqHXMIf2/ebFC4WlabXpwtDjs3Yr9yHC9Gs++xEzLmZx8OM56Un3ZDsByX2p535W7E8wXsjYuR+YN3vt42ixeV/RImXc52S1WVzCcJag0tLEVHp6OsjIbiVlTBhwYrTbEdtCekwAAAAAAAZw+ObvHyP46u3/EParjZTkuTod82xt+sfFSzG3jjy3UiFumny3FocS1i4plvpgyvcVmBaMwZ2ErxHy2u654F50407L8N8b89cPbCxtXGfK2qVG4ahdMe4lb9XbxkPpjzmEOO4h2cB3LkC0gKcW5BsI0mK5nK2c5z28AAAAAAAR5vaQ/Fmx5Iei9xe6BQom9luszd5yfw/IiMLXb7PUN12V77xfjDKVuTGdsq4MafTw/hOPp2qjpUQ1NNzJ7UyohUlSVZSrGUqTnKVJVjOFJVjPpnGcZ+nGcZ+jOM/TjP0ZOACRl7NN5R8+O/vXRaVyRskmr6zdoJNTxrykl5xK6nVNqfkLY455IkMu/zWGKO8lpqNgmsKbeY1m5sZisSsVzUN60v7c9q+LOmXWflrtNy3bNROPOKNNmbVLVHeaVIvpWUIY1/X6ZWMrRKtNouJNdT1KGvifFkz2VJSpPqUnHcntRyV3Y7O8z9ouWbF6duXMG8XO0vRVOqdia7SyJK2ta1CoSr/wDRpNS19qu1+qaxj3vk69px5Tshx55zGUAyW6edWOTu63Zbh/rBxBW/P7vy5udTrEOQ6l78G0FZIkJXfbVePsMvuRKLWadE26tZKWXVpiQ1tsNPyXGWHLs3p91Z4v6Vda+IusXD1U3VaLxLqMDXYOU4XmRcWeE5lbBsli46t11602S8kWF1YOuOLVmTNcSlXuJRjGSoBRy+S3Z17p5Ce6u0u5dU5d9nOZ5qsvYyl3OVb3dI/n4y9IzhX8z/APmc/wD8v1YQgAAAAAAAFzh7P5eSth8M/j5nzPX40fgmLRo95xbufldY2rZtagfzl/TjHyNTH91vH8xlPoy3/MQk3EAoauxP+cDzr/tj5O/vtdnTgBLK9j+6dRuwHkb2fsBs9S3O0vqNxlI26E7KjNSIiuVOQJi9U0ONhLqsZRIhU7O7bIxJaQ7mLKoYaF/CVLZWWluPTH0Y/R9f/icgAAos+92yzty7u9wtrsvexN2HtDz3bPtqecf+BmbyntTzcVDzv9ItqI0pEZnKvTOGWkY9MenpjFMAspfYlOPYtd0j7ecqYiqTM3PtLXaC9MymP7r0XjbijT9hjxkKTjEr1jO8qSnXEvKyx6Sm8x8Yc+Z9ZqYAAAAABWu+21bG/M7o9Q9UVMQ5Hoett/eMwMLXlyK9s3JFrDkSVt5XlCEzUaxHbQtLaFOZhLwta8Now3CpAAAAAAAAJ+/sPmyPLd7/AGnqltZix2+D9kTB99XxkvzVb5WLl5R8T3cNONwEMpV8PCsraVjK84xhOLAEFWr7Zj+dn0T9i/h//E3nMiYgEpT2Pv8APDVP7NPOH9uoFrIAAAAAAAAAAcZ9fT6Pr+j+0rDva2fKfjs/2ehdFOJtjkSuFuqd4+5yLIq7R1dDvHPT0D5WzQ9GY9yLPRxfAmzNVjSHVScRr+dtbUb4WEqckQ+QAAAAAAAAT5/Y7/Ka7Cn7V4w+YtjW7EsnLjkrrBPuLNpKYMpDXzm/8VVzcn3XHWpuEPbvQRGXVrYfb2dttlbMhnEWwRAAAAAAAOM/T/N/Xj1+jP0/Xj+3/wD6VQ/tR3iwZ6G90v8ALvxVrqK7rj22lXu7UkaorHIlHoHKzUvMnftFzlrGYUNmzcls7jrkdv5ZtcGzs4EOP7lE+sjAAHkha21pWhSkLQpK0LQrKVoWnOMpUlWM4ylSc4xlKsZxnGcYzjPqbrO7vm17E93fH70+6Lb+9bNwOu6JbnJu7SL2VOm84WWuKmU/E1psKFOJdce07TZzlbOasMzM2V+zjY8yMyXkNQ9KIALJn2QfxXucJ8K7J5F+Y9ebZ5G5+q1arwLAtIKPnNU4bjSkuW+4sZlMZfh2fI9xGbjw3o3w8t6nTMrS++zsUmOxNfABRkeQerfpe9fcKqkracfg9k+ZWXXGMrUypWN+vVereXENryn0Vj6VITn+ow+AAAAAAAALl72eeHKg+F7x/MS2Fx3V8Nz5iEL9PeVFseQNzsIT+PTOce5JhymJDf0+vuOp97CVeqcbmgUNXYn/ADgedf8AbHyd/fa7OnACyh9ie4trqLpv2s5bzHZzd8gc+02r5mJwnD34D0XS4b0KG5nC1Kyhm02a4kt5UlvGPm14SlWPVeZq3pjH/j6f8DkAAZ9f0Y9fp/8ALH6yiT7hVC9f7bdpKFyI5AcpOxnN1Q5BeyvLsJdbyZs8NUR3LiluZcjKZyyvLi1r95GffUpXrnOOYBZvexSbJBl+NrsjqDeFfhKi7tbbsUvOcpyjMLauDOB62vwlP/WwrD+oWWV5V/NUnKPd+lKiY0AAAAAAVnntr9K9G79dX9gUpeWLbqm1VtIywpLaXKPlPepLykScqyh5a03rOHGUoSqPhDa1qXiQjCIZQAAAAAAABPX9h6ovd2/yC7LnEnOHtb4FovXLf/Q/+jWfJNh/Nd9z6ZP/AEvHvt/Ez7rWUK9zHveubCEFWr7Zj+dn0T9i/h//ABN5zImIBKU9j7/PDVP7NPOH9uoFrIAAAAAAAAAAaV/PH5N6TxjdDeQOQ6axhL585SjTOL+vmvOSsNSnN0vYbjM7dHmW1pkqp+PKd2RskvLXufN2TNPT/MRc2mJcenAt7ayv7azvbmbIsri6sJtra2Mx1T0ufZWMlyXOmynl5yt2RKkvOvvOKzlS3FqVnPrk9cAAAAAAAADsvhnl3feAuWeN+beLb6XrHIvFO6a7vumX0J1bT9dsOsWca1rnVe4pPxoy34yWJsRzOWJsJ2RDkocjvutquqvF73z0bySdKeG+1OmrgRLHbqdyl5H1aJKZekaRyjrLuanddYnR0OLkQcIsmPwvStTEtvzNXtqK2bS5EsYz7uwLGcZ9f6vr+jOP7TkAAAAAAGufyr9ANJ8lXSPmXrFtDUOJs93r07YeH9rktJUrSuYNfgy5eh3ynMNOv4qV3HwqrZosfCX52t2FrFYcZkuR5DNK5ylxlu/C/JG88S8la/Yarv8AxztN1pu369aR3Ys6pvqCe9XWEV5p5CF+6l9hSmXcJ+HIYU1Iaypp1Cs/BAAAG1zwy+NjaPKL3i484BjxrWLxXRe5yHz5tdc0vCdY4poLCC1atYm4yluJbbVPmQNVos+/8fE61+daacagSVN3PGnajregalrGi6bTQNd1HTaCn1fV6Cqjtxa2k1+gr49VT1MCO1jDbMSvr4seLHbTj0Q00lP6D6QAFMP59uJH+E/MN310t2OuKzP5slciVzK1ZXhNRy5rtBynU/DXltv3mvwfuEdKMZwtSMY+Gt15xCnFafwDs7h3hblvsJyDR8T8G8cblyzybsuJ6te0PQaGw2ba7rFXXybWx/BlJVsyJ03MKthypshLDK1Nxo7rqse6jOcZy/yMHlp+zh7l/d/5G/cI/kYPLT9nD3L+7/yN+4R/IweWn7OHuX93/kb9wj+Rg8tP2cPcv7v/ACN+4R/IweWn7OHuX93/AJG/cI/kYPLT9nD3L+7/AMjfuEfyMHlp+zh7l/d/5G/cI/kYPLT9nD3L+7/yN+4R/IweWn7OHuX93/kb9wj+Rg8tP2cPcv7v/I37hH8jB5afs4e5f3f+Rv3CP5GDy0/Zw9y/u/8AI37hH8jB5afs4e5f3f8Akb9wlvp45OGrTrx0F6YcG30CTV7HxX1h4T0naK+bEkwJsbaqPj6hibOmZBmoblwpeb5FiuVDkNtuxX1LYU23lHuJzRBQ1dif84HnX/bHyd/fa7OnACz+9jE/Nq8t/tObT/dHVCX0AADjPr9eMYznH6/1fp9P1FJ95m+MZPEPlT756VJiriZR2T5H2ZlCkZSl2Nvdw5u7MlpWWmcONPp2H38OIRlGVZVjC3MpytWskAncexJdhoNPyb3L6u2Nm3Hlbxq+h8yaxWuoawubL0mZZatsSornv4eypuv2aqdlM+5lrLbDLmFpWjKV2IAAAAAABX9+2/cUy1Suh/NzUL0gsscvcXTrBCfpXKkuaptVdGkKw1nOcNtRLJyN772MJy7IwhvOVqViAWADZDT+Hjyp7DU1d/Q+PTt5dUd3XQbemuKvgnf59ba1VnGam11lXTY1K7GmQZ0N5mVElR3HGJEd1t5pa21pVn2X8jB5afs4e5f3f+Rv3CP5GDy0/Zw9y/u/8jfuEfyMHlp+zh7l/d/5G/cI/kYPLT9nD3L+7/yN+4R/IweWn7OHuX93/kb9wj+Rg8tP2cPcv7v/ACN+4R/IweWn7OHuX93/AJG/cI/kYPLT9nD3L+7/AMjfuEfyMHlp+zh7l/d/5G/cI/kYPLT9nD3L+7/yN+4R/IweWn7OHuX93/kb9wj+Rg8tP2cPcv7v/I37hJ7/ALI30S7AdO+s/Z2/7L8Kcj8Hchcocxa/GqNX5R1G30zY39T1DVG0NWTVVdR4s5yslWlzMTHmZjoYcejyG2luZbc9yXMCrV9sx/Oz6J+xfw//AIm85kTEAlKex9/nhqn9mnnD+3UC1kAAAAAAAAAB+WdNiVsKZY2EhmHAr4sibNmSFpbYixIrS35Mh9xWcJbZYZbW66tWcJShKlZz6YyU8XtBXk+meTXvntmzanaLe69cHIn8S8CwGkOMRrKiq7SQ7sXIElla1Yds96vfizG5PuNZRrcHXIHw/ehOPP6LgAAAAAAAAASqfZWPKfnpV3Ja6u8r7Qiq64dtbGJr7kmyVJXXaRzY1HVE4+2JPw1KagwdrkZb0i/lLZ+C0qwo7ObIjQamU6Wp2Mpz/OTnGcZ9Ppx9OM/R9Hp+j09P04+jJyAAAAAAAV4Xth3iyVq23695PeIdbUjXt0e1/jns5GqorKItXuDbaarQOSZ7TXo6j8aYjcXTrqf8PMbNtXa9mS4iwufelwRAAAf0ZZdkPNR47Tj777iGWWWkKcdeddVhDbTbaMZUtxxakoQhOMqUrOEpxnOcYLcf2a7xZxvHZ0X13d9/om4PZbtJU65ydyuqXD+Dc6hr02Bmw0Pi6S46nD7L+sVViqbsUPHuNM7VZ2sbHx0QmZLsizGPTHp/6en/AAOQAVnvtofV9/Qu7fBvaisgSU0nP/D7OmbFNRHziD+O3Ec1cGPlyThGEqnztPu6Rj4KnFqTFo2lYwlOfphkgHd/Wvn/AH7qvz5xJ2K4vmJg75w7vVBveuOO5ViNImUc5uS5XTcJxlSoFrFxIrZyU497MSU9hHov3c4uxOhfdXiPyBdWOKe0fDdk3J13kHX4r13ROvsrt9I3KG0hja9KvmWVr+Baa9bpkRc5zhKZ0P5Syj4zFmMqzmL9YAABxnPp6f1/14x/b9ZyADj0x65z+nJyChq7E/5wPOv+2Pk7++12dOAFn97GJ+bV5b/ac2n+6OqEvoAAHGf1evp6+v6vp/8Aj+oqwvbButEjhvyhVfM0GqxD1XtDwzq25x50djDUOTumiOv6HucPK8NN4ds2otfq13Y+q3lYRskJzK04dS0iKKAbDfFV3guvHb3z6+9qYCpL2vaTtmKjkunj5dVjYOK9vjO65vtWthrGVSX2aOweuahvKHMNX9TUS0tOORkJzda8bci6by7x9pXKXHd7D2fROQ9Ypdx1DYa9eVwrnXdhr2LOpsGMqwleESYclpz4a0pcaVlTbqUrQpOPtgAADR/pvtCfjQ2Puty10Z2HmeHx5yRxrumOPqTd9wRmFxLyPuENLUXY9b1zfmku0tTd65fZl69Ij7S/TQbWxgvsUdlYyfdim7eHMiWESNPr5UedBmMMyoc2G+1JiS40hCXWJMaSypbMhh5tSXGnmlrbcQpKkKUnOM5/SARs/asOqsvsf4juVNy16scstx6v7ZqPPdczHSnMp3U6qfjV+Skpy4tDaItXpWx2O4Ts+vxlx9Sy1Hwt1xLL1SmAC0m9lJ8rFR226jV/THlXbmX+xXU+jrtf1ti4lr/DO/8ABTGHYum2sB6Y+t27maDHjp1C7RFwp6tqI2sSZrePn0yXpaQAABxnPpj1/wD6/tOcZ9f/AF/T6Z/UADj0+vH1Y/R6fX+vP/E5BVq+2Y/nZ9E/Yv4f/wATecyJiASlPY+/zw1T+zTzh/bqBayAAAAAAAAAAiWe1e+VNfTrqfE6d8T7A7B5+7eUFxX30qufS3YaLwHhx2n262W8hfxoc3fpOZWl0mUIwt2va2yU0+w9XM/Fq2gAAAAAAAAAD9ESXKgSo06FIfhzYchmXElxXVsSYsqO4l6PIjvtKS6y+w6hDrTrakrbcSlaFYUnGcW+/s7HlDieSbofqidzvGp3ZLrxFpuLedIjqkIn3S4UNxjSuRvg5fecWxu9DA+JYylYaSvaa3YUNMtMoaRjfyAAAAAAAdIdk+v3HPangflfrvyzTx7zj7l/SrrStlhPsMvqbi20VTceyhpfQtDVnTTkxbaqlYxh2HZQosplaHWULTSheQPpbyV4+u3XM/VLlCM5+GOM9plxtfvsNOIr920SwWqdpO8U7jjbWXq3ZaB2HNxj3EOQpuZtXLbYnQJUdrDMAAk6ey8eLJPfLu1C5x5T1tu261dTpldu21RbBvC67duUV4ckcbaQ4042puXXxLKPnbtiaxnKXIFJGq3k/DucuN2wKEpbSltGMJS2lKUpTjCUpTjHolKU4+jGEpxjGMYx6YxjGMen1HmABn6s/oNCHtInQ+R3q8XvL1TqlK3bcv8AAb0fsBxZ8JhTtlKlaRFlZ3bWoSm8fFVnZ9Dk38VmL7yY711Go5Mj6ITak0+6kqQpSFpylSc5SpKsZSpKk59MpVjPpnGcZxnGcZxjOM49MnABvH8JPmv5d8RvNMx12NdckdXOS5te3zNw2xYe68hcbOWWN/48bnyWquq32qiuLYcw6uJB2mtQ3T3UhrEarsKu2Y6mdwuuveHh2g536y8mUfJfHl8hLa5lY8lu1oLX4DMiTru2UjucWOt7HAQ+187UWbLMlvC0Ot4djuNPOZMgAHoNq2rWdH1y62/c9hpdT1TXK6RbX+ybFZQ6ejpayIjLkmfZ2lg9HhwojCMe84/IebbT9GMq9c4wQIPLL7XXs+mdgNU438ZGdY2bjnirZsyuUOVt615i41nm2QwhceVpum1zqmbSu0eJla1ObmxJrLq4tGkLqmWaSKiTd7nPFl7T30i7+/i7xfy9La6o9l7DCIf4m77axf8AJpulj7zTTX+TzkaQuNFclzluZU1rOzxqa4aXhTEF27QjMrMmBKkrThSc4ylWMZSrGcZSpOcYzhSc4znCk5xn1xnGc4zj6cfQeQABQ1dif84HnX/bHyd/fa7OnACz+9jE/Nq8t/tObT/dHVCX0AADjOPX0+v6PX6v6yKj7XJ0dmdmPHKx2C1Ko/CW99Ndnf5HmZjQ/mLJfE+yMRaPklLbrTD0pNfTpZodss0Jy3Gag69IsZbjbMBS8VWwAJqns0HtCFJ1SZ1nx990dkfgde7K1nMcD8xWkltyBwtdXs+RaydJ3R6S829E4yvbeXOk1dzHxMVqV/ZYYmRG9ZnybHX7JWrs667ra65p58K1p7eBEs6q0rpLM2vsq6ew3Kgz4EyOtyPLhTIrrUiLJYcWy+y4h1pakLSrP7wAcfT9P0/r9Mfr+jHp/X9fqRDfaLPaFdG6acf730x6i7q1f9zNojJ1zedroPcmUnXzVriucVavuXbL/wAB3lebDkMRaOmhfMOatiTIurp2DYQ6yvn1gcyZLsZkqwnypE2fOkvzJs2U85IlS5cl1b8mVJkOqU6/IfeWt155xSnHHFqWtWVKznO/nxZe0W96fGxMo9FnbPO7FdZo02KmbwpydczLCRrdZhxlExHFu5y/nbnSXMxUOZj0uFT9R+cUqWqhRKflSXrHTxoeb/ol5QqKFF4X35zR+Y0Q8v7B195TcrNe5NqX2lZTIzTMsz5dPu9T9HzEa11SwsFZiLQqzhVM1EuBF3A59fXH6vp9fo/8vX9RyfD8m8eaty5x1vfFm71zFvp3Imo7DpO0Vkltt1mdRbNVSqizjrbdSptWHIkx3CffTlOFemc4z6FH1326obd0d7idg+q+6xnWbTh/ka61+tlOIfS1d6lJWi40jZIa5CEOPQdj1CxpbmI8rHvLampwv0cStKcRADILq12h5r6ac68f9jOvu5TtH5P45uWbWmtIilqh2EXKsItNc2CDhaGrfWthgZeqr2pkZw1Nr5LqErZewy+1bVeHjzr9XvK1x/WU0Cxr+Ju1FFUMK5E4E2GxaamS5sZnGLHY+MJ0pxP45ag+42uYhuNld7Qx3m417CayhMyRvLx6/p/8/o+n/wAjkAAjFedD2ibhLxx6Vt/A3X6/peVu795UTKypqapUG807guTMaXHRtPJclL64rt/We/iZR6ElEiXPloacv0QKpK0y9U/iz9sR13YZGt8PeTvU0ataSss1cLs7xnSJVqzsvOV/Dmcp6FHkJmUEd/Hw2Hr/AEiLbRGZWW3Zet19c5KsK+cdxdyrxtzZouu8ncRbxrHI/Hu2QU2Oubjp1xCvaC3iKzlOVxLCA88wpxpzCmZDClJfivocYkNtPNrbT9+AAVavtmP52fRP2L+H/wDE3nMiYgEpT2Pv88NU/s084f26gWsgAAAAAAAAB1RzpzTx31z4f5H5z5Z2CFrHHPFmoXW57ZczX2WER6ykhuy3GWMvuNNvT5y224NbEwvDk2wkxorXq48nGaUHyNd5eR/Ir2+5e7UcjrlxHt6v32dM1R+wVZRtC47q3HIum6XBk5ZitutU1ThpMyS1Eion2j0+w+XZzKy2nBwAAAAAAAAAAG4Xwd+S648X3e/QOZbCVYv8MbwhPF/P2uxZC0x7LjvYZsb/AO/qifzm5Flols3D2qsXhOJHuwZ0BpfwbKUy/cta7sNFttBR7TrFtXX2ubLUVt/QXdRMYsKu4pbeGzYVdpWzorjsaZAnwpDEqJKjuOMSI7rbrS1IWlWfcgAAAAAAZx6/rx/q+sh9+1p+KzPabrFWd4uHdbxK5z6twJCOQ4FTU4etOQOBJK3pFu445DZVNmW/GtmpvYa7D/xWk61M2pn1S4zARmsLAB9zxhxtunMfI+h8S8c0U3Z9/wCTNw1zRNL12tZckTrvZ9qtolJSVkVlpK1rdmWM2Oyn3U59338qz/NTnJdM+Jnx96b40Oj/ABH1k1yNCd2qvrfxu5g2eM23l/ceXNnYjSdwuZEpCErkxobzUfX6LDil/K67TVUNtXuMY9dkwAAP5utNvNuNOoQ426hTbjbiErQtteMpWhaFYylaFpzlK0qxlKk5zjOM4znBUc+0leKWx8c3drYN/wCPtdchdWu0F7sXIPEb0OKtFRpeySZDdlvXFOHviOpbRrllY5sdaaey06vVbKBFTiS7VTJbsdEAGXHTvvX2r6FcmROV+q/MW1cXbIh6Iq5r6ya5I1LcIUR9L6ajdNTlKco9mq15TlOY9lDdcYwtS4b8V/0dTNx6Se2p6ZYQKrUu/fWu31y6ZZjxpXMfX+ei8obRzCktuTbvivY1w7agUlnGX5L+vbbsrcuUpSYlDVx8obRI74T9oG8QHO8WO5rfd7iXT58hhp5ym5anTuKZ8TD3uJw3KkbxDp6bDyFuYS42xbP5R7qlKzhtOV4zbheQHobZRGJ9d3a6jWEGSj4kaZC7JcNyokhv1yn32JDG5uMuo95Oce82tSfXGcevrjJj3yt5ovFJwxCmTd27+9Y3sw/5rsPSOUNe5Ps/i+q8YjJrON5O1zMyMLbU242tlGWHPRMjLPrg0VdvfbKeiXEcG2qOqvFXJfaXdmfej1tpaZTxDxeh7KVYzLl31xX3u2zmGFZacbiVum4TPxh1lVrWZwl/MJvyS+cXvv5PJ8iq5q5HxpfDqZXzFZwJxWuy1jjNn4b3xorl9EzPk2m6ToisJzHm7XYWfy60YdiMRnPVWdPpylSkKStClIWlWFJUnOUqSpOfVKkqx6ZwrGcYzjOM4zjOPXH0kjzxW+0u93fHW5Q8c8hz5/azrPCVGgr4y5F2ecncdPqErS3nHGnIs2PdWNMiAxlWYWt3EW21taEIhR49SjLcyNY2+OPzF9HPJ7qaLHr1yfEruRoMRqRs/Bm+yK/W+WtdVlHq87jXXZjuNkp2XPVpd/q79tVIXltMl+K48y2vad6/V6/R6/2/qABQ1dif84HnX/bHyd/fa7OnACz+9jE/Nq8t/tObT/dHVCX0AAAfKb1petckaVuHHm6VMS+07fNWv9N2uknsokQrjXNnqpdJeVcxhxKm3othWTpUSQ0tOUONPLSrGU5zjNLT5d/HdufjI7w8q9b75ifL0fE1W68K7dJiOMRty4m2SVKe1qwYcUt1tydTqZl6xfNJfcVHu6WbjOctOMOu6yAAb7/F37RN3v8AGVGqePqq5i9hOukGTG9eDuWLe1dj0Na2pXzEHjXdG8WFxx8l1txxTERiFda3HmfDlOa1K/p2ZE3vqV7W54tuwUSFD5it996k7i6lhEys5Son9m1BqQtptT/4P3rRo1ozKgtyFqYjybWjoZj6EZkP1sNGfdxub0XyleNjkuK3L0vvn1GtsOMpkphv9gOMaa3SxlDK/ju0d5slbcstIxIZQ6t6A2ll1eGXcoexlvH1OweRfx+apXOW2x95eoVNXtqyj5mf2R4dZS67hp17EeOjO4/FlSlNMvONxYyHZDqWnMttK9xXpq87H+08eH/r5WzlV3YxfO+wxY0hcfWuDNZuttely2sPYag5v58am1djMlxvCESV3KoiEuNuuPJbzlRD58mPtb/bntrSXvFPULUZPTbia1Zl1lltkHasbLzvs9Y/hbKlY22BW09dx2iVGV6OQdTbsLaEta8M7lK9G1txJ7Gysbiwm21vPm2lpZSn51jZWMp+dYT5slxT0mZNmSXHZEqVIdWt1+Q+44664pS3FqUrOc/iB7nXti2DUrur2XVby31rYqOdGs6a+obKZUXNTYw3kSIk+ts4D0ebBmRn20PR5MZ5t5l1CVtrSpOM4ms+GD2qHtxQ8gcR9Re2/HuxdwKnfdo1bjfQ+R9XkR4vPdHPu58alq8XrEhjFRydXsZeYzNk2Mqg2KPFZk2cy9uHEKjuWQqc+uMZ+rOcYznGfT1x649fTPp+k59MfqwQrfa5vE1P594dpPIfwfrL1tytwPUsa1zjQ0tbl+z2zhdLsqRD29CIUZcqbYcbWL6lTkPLUnGqWU+U2pv8DYak1rIAPptM3TcOOdqoN54/2nYdI3TVbSHd6ztup3Nhr2ya/cV7yJMG0prqqkRLGtnxH20PR5cSQy804lKkLxnBMB8e/tifazgOs13jnuxxhA7YaNXfAgK5Mo7ljRecayubabaxKnuOV07UOQZDGELcUxZx9Vs5zjylydoThpDa5W3XT2onw/c/QK1Vx2Bn8CbBOQyl/W+cNRu9bXCluobyqI5sFPH2DV3MNLcy2uYm4TB9W1qxI9zGFZ2han5KPHfu8JdhqnevqDdxkfDU/iL2N4iTJi/GU6lnE2C/tzU2Fl7Md/4GJcdnL2GXFN4UlCs49XvHlB8b3HMN6buffLqHTpaj4lZiI7C8WWlw7FziRnD8ahp9osLqUytUSQ0hyNXvJW80phGVPZS3nUl2c9q58SnAESxj6RyRunZnZYmXGo1JwvqE5VbLfbUlPuK23cc6xQNMYUr1zIbfk4W2hxcduRnCEORD/It7Wd3w7f1d3x11zp4PSvia0xNgyHtE2WZs3NF3VvZS2hNjyi5W0H4vLdZS5lbOlUNHKjfMrj5uZ+WGpiorU2bMspcmfYy5U+fMfckzJs2Q7KlypLy8uPSJMl9bjz77rilLcddWtxxasqUrKs5yfmNiHQPym91PGxvbe39YuXruio5b7K9p4rv5Mq/4p3KO3IZfdbvNKlycVrc51LPwEX9Smu2CKw481Gs22nXW12Lviv8AalumXe57X+K+wjNX097F2S4NTDp9x2pibxHvlw/hEZOdM5FsoVKzTTrSZlPyOqba1FmtPSWauBebFISmVIlCx32JTLUiM81IjvNodYkMOoeZeaWnCkOtut5UhxC05wpK0qylWM4VjOcZwf2AKtX2zH87Pon7F/D/APibzmRMQCUp7H3+eGqf2aecP7dQLWQAAAAAAAAAr9fbEfKd83I1bxg8O7K38GDJpOS+0E6nn5U8uTiO5M4/4qsssY+G2whuSxvOwQFuqfddTqiX2mWUOolwEQAAAAAAAAAAAWZXsjflUb7Fdebfx/cwbG2rl/rTUx7Dhx+e8lMvd+CnXvl81EZxeMZk23GVo41Xux/eU+5q9rTPsJcaqrJcaZcAAAAAAAevtqqtvqqzo7qBFtKa6r5tVbVk5lEiFY1tjGchzoEyO5hTb8WZFeejyGXE5Q604tC8ZSrOCm988XjIsvGF3v3fjehrJ7XA3Ka5/KPX22kJkvxfxJt7F7M3TcWb7aUzbHQLRxdBLwp12Z+D8U82Ypa7BDz2lkAnW+x6+LF/cN52Tyccwa6+zrPHsu1486zRLSI18DYNzkw1wt85HhtSoy3FwtTgSvxVorOK40l29sNgQ25lyldTmxLAAABhP5B+h/Cnke6ucgdXOc4Lv4vbZHRY6ztNdHgu7Fx5vdYzI/FredYdsIspli1p3pL7L6PcRixp5tpUOutMWDriabvyBdAuwXje7G7Z1z7B61IrLiofkTtO26NFkp1TkzS1ynWajddOsHUYbm1dg23jEqNhaplPYJkVVk2zMjrTnCMAAAAAA7d4DY5ul8z8aQetv+UDPO9jt1PXcVt8WOXDXIMjcZ0lMWpjasuhUi1/CUh534KUxVY95lbqX/8Ao+XS6g8ZHHfcri7phw9qffbleHy92WYqMzNyvo9VXQnqKJLQ0qn0y1tqt1Ubcb/XIiPl7rcPgxl29g8+jCZTcRuxnZ9gFDV2J/zgedf9sfJ399rs6cALP72MT82ry3+05tP90dUJfQAAANF/nm8QereV3qfPqNcajUnaPhuNabX1621xcSNEsrZaGXLjjfbJD0dx1eq7rDjZiMvNSIjlDsiKe++JJhQ7KptKhPlDjHfuF+Q9y4n5T1W40jkTj7YbPVdx1O+iOQraivaiSuJOgy2HMYzhTbreVNOt5WxIZU3IjuOsOtuK+DAAAAABylKlqShCcqUrOEpSnGVKUpWfTCU4x65znOc4xjGMZznOfTBY8+yq+Dyw4MoafyT9p9Rn1fK+9a3Ia63cdbNXNR39F0XYERXM8rWtbNjYsYO27bWoXH1NLq42a/ULOTYqjOv3kJ+FN+B+C1qq29q7KkuYMazqLiBMq7WtmsokQ7CusI7kSdBlsOYU2/GlxnXWH2V4yh1pxaFYylWcFVJ7Rj4Jdk8dPLVv2X69a5ZXHSzlnZpcxpqE05LVwHuN5JdmfiHd+icPI06xfVLzo1znDzEOOynXLeRHnIp3bqLiAAAAAAPq+os6PZMOL/JvVddrLk/s9ypuMfp9sdUms638K8n1rlrt8tmOqDhrkbV7m4V+MOo8buR25dXr9G8tUDZU4VeVsGPUIqrGzmIAFWr7Zj+dn0T9i/h//E3nMiYgEpT2Pv8APDVP7NPOH9uoFrIAAAAAAAAM/wDrj+36TAPyb97tA8cHS/mPtPvshhyRqFHmo4+13OPiyd05R2PDlZourRI2MpceTMuHGplq7jKW4FFBtbKQ41GhuuopUOaOX9/7A8t8kc38qX8vaOR+V902Hfd0v5q8rfsth2WykWlg9jGc5wzHQ9IyzEjN4SzEiNMRWENsstoT1kAAAAAAAAAAADLTox3C5Q6GdquHO0/Ek9cfZ+LdtgWs6qUvOK/btSfdTE2/Srlv0Ulyq2nX3Z9TIX7vxoTkhmyhLYsIUSQ1di9XOyXGnbzr5xJ2T4gs/wAK8e8wadU7hQOuZxiXCRYNe7OprJvGE5YtqOyamVFmxlKctToT6fT3fdznv8AAAAAAA0Xe0EeMCu8mvQ/bte1mmZl9huCI17yv18nI/mT52xQqrC9k4+ae99vHyvI1NXtVCY76sxFX8PXJz+EKrmX2KeGbCmVsyXXWEWRBnwJL8KdCmMuRpcOZFdWxJiyo7yUOsSI7za2X2XUJcadQpC0pUnOMfmMwOhnTPk7v72s4h6scURnfxg5L2WLDtr35R6ZB0zT4isS9s3O2bZ93P4P12lblTloU41iVIRHhJdbckoVi7K64de+MuqvBnF3Xrh2hj63xzxLp9Rp+t1zCMJcdjVkVDUiznuYznMm2uZnzFtbS15yuVYzJL6s49/GMd3AAAA4z6/R6Z9P1/wBZrZ8nXi360eU/gadw9zzQ4h7PTxrSbxJy3Ssso3bivbZcRTTFtTyV+7ixppD6Iv4w6vNX+Db2E18FeYsxuJPiVNvk48SnbbxYctSNE571BdloNzLlOcZc26s29Y8c8hUyZEhuKuPZIRlWv7Khln3rXUL5MK7r15w+0zMq5EGymawAAAAADv7rP1b587icua5wZ1u4z2PlTkzaH0t1+v6/GSpEWNhxDci3vLSStiroKKD8RK7C6uZkKtht5wp+Sj1TjNpV4K/Z7eJfFxrUPmfmVGtct92NhrVs2e9RUSpurcRVdgwlM3UOMG56GErlPYypi93d+ujXFqjLkCv/AAdTuPxpsk/OPX0/qz6nIBQ1dif84HnX/bHyd/fa7OnACz+9jE/Nq8t/tObT/dHVCX0AAAB9RGS893s+PH3k71J/nPgCJrfG3djVICERr6Qlqr1rmzX62ukNRNK3t1tLTMa/ZU3XxtW3aSrOamMyqptUyKpxh2sq0udeA+Y+svKG08M888ebNxfyZptg9XX+qbVXuwJ8Z1pxbaZMZavejWVZL9zLtfbVz8qtsI+UyIcp5laV56hAAAAB+qDBmWc2JXV0SRPsJ8liFBgw2XJMuZMlOoYjRYsdlK3X5Eh5aGmWWkKcccWlCE5UrGMz7fZ8/Zjryvu9M7s+SHRY8JmvzF2XhXrFsXq9PXOTn41PvXMNY3nDEVqMrDdjr2hynn3nXflpu1RI6WsVD0/xhhmKwzGjNNsR47SGWGGUJbaZZaThDTTTaMYQ222hKUIQnGEpSnCcYxjGD+oGfX9GfT+v6z4Tk3jHj7mXQ9o4w5V03Xt/493WolUO16htVZFuKG8qJreW5EOfXzG3GHkKxnCkKyn4jTiUOtKQ4hK8ViHnG9ma5g6MW+1djOm1Lf8AMPT5eM21vrUZybsHKfCKnpT+JMS5gtRFydp0OG2qLmv2yI7ItoTbj0fYoDbcL8NzomWcZxnOM4zjOM5xnGcemcZx9GcZxn6cZxn68HAAAAAP1QoM2zmRK6thyrCwnyWYcGDCjuy5kyXJcSzHixIrCHH5El91aGmWGULddcUlCEqUrGMzr/BD7LNs+0XWm9t/JnpKaTR4D1RtfF3Vu5flNX21yo7rFpT7DzHEhSI/4J1tLzcZ9vjuY6/I2FjK423w2Kh6RT2FhnX18CqgQ6qqhRK2srYseBX18CO1EhQYURlDEWHDix0NsRo0ZhCGWGGUIbZbQlttKUpxjH68Y9MYx+r/AMDkFWr7Zj+dn0T9i/h//E3nMiYgEpT2Pv8APDVP7NPOH9uoFrIAAAAAAAAM/R//AGVXXtVvlQb7pdw8dWOJ9gXP699SLKx16RNr5ri6nfean22428bAhpl9UWXX6itGdLpZLjXxFyoWwTY61wrCKtUUwAAAAAAAAAAAAE5f2Pbylucf8k7D4zeXdlX+J/Kk+43/AK3v3NjIcYo+RY8BM3cePKhMhbkeDC3CqrpGz11cxmPHc2OBbustqsr575qxg+n19f0en6/o9fU5AAAAAABxnGM49M4xnH6s49cFW17WB4smuoPbiH284i1nFdwF2wlTrTY4lXXtxajReeGHJEnbKltqLhLEWs3eB8tt9Vj4bWFW7m0RkpS1Hi/EiWlnP7JL4qm+snWqb325c12O3zR2o16DjixFjE/+5aPwA463Y10mJ8XGVRJnKMxmHscmQ2lDr2twdbabyhiTL+amI/WAAAAAdT83cE8OdkuNdm4e55421DlfjPcIDldsOm7tSw7ynnMLylbbyGZba1wrCG+21MrbSC5GsqycxHnV8uNMjsvIgf8Ak79jku4cm95X8ZW8xrSuUuXYTetnKtuqPaRkrU8/iPxxyG41mJNbbx8NiPQ7kmG98P1W3s0hxKIbkJXsJ1i7B9UN+l8Ydj+H994b3iJ8RWKPeten0jlhHaUhK59LMkNYr76t95xCcWVNLnQcrVhv4/xMZRjokAAA+j1HT9s3/ZaXTNF1m/3LbtjsI1Tr+r6tT2F/sN5aTHUsxK+pp6qPKsLCbJeWltmNFjuvOLVhKEZzkld+Nv2SDun2hd1/kTuDatdP+GpSmpzmtWkNu/562iEmQn1hwNPQ81UaQzNjIdV+GNus1WMLDkRxjUbRLz2YlhX0O8bPT/xv8ZNcadWeJqXTsSmoyts3qe0zcclb9PjsNMZstx3OSz+FbNSstfEYrWnI1LXKW4mtrYiVrSrO8AAoauxP+cDzr/tj5O/vtdnTgBZ/exifm1eW/wBpzaf7o6oS+gAAAPrOPTGP/D6v0+n+r1NZXkj8SXTLyi6A1qvY7juIneKKDMjaBzXqjMWn5U0JUxTTjrVXsKGVZtKN55hp2XrN+3ZUb7ifmEQ2JuES0VxXkr9mC8gXRCTfbtxhr7/bvgCA3mexvnElHPf3uhr1OrRljdeK2lWGwRJUJOG1SbHWHNmpXY7rcvMuGrEyHAjcyY0mFJfhzI78SXFedjyoslpxiTGkMrU28w+w6lDrLzTiVNutOJSttaVJUnCsZwfwAAANs3j58J/kG8kthVzeCOGrKi4tnPIxJ5z5OZsNM4ojxPmFx5EutvpUB+XtmYrjT6HY2oV94+l5lyOtLb2MpLFrxI+zb9PvGnml5U3pFf2b7Tw2kyG+Vd01uI1q+gznWGkvp4r0ucu0ZopTCvmGWdrsZM3Z3WHnfl5FU0+uGmRvjGMYx6YxjHpj09Pox6enpjHpj9GMfVj9H6DkAA/k+wxJZejyWWpEeQ2tl9h5tLrLzLicocadbXhSHG3EKUlba05StKspVjOM5wRUPKx7Kt1I7uz9t5i6ty6bqN2JucZspMKg15hPBW7XSE5y+9sOi0jcNWp2F2rGPwhsWnIQnM9xy6sNdupzszE2vx75eH/v745LOerslwVsFfoTFq7V1vMeoIXt3E90rDi0xH2NsrGlNVPz6E4ciRNkjUtgvKss5iYkNutI1kgAAA3Y+PHwA+RvyLyNe2Dj/iWVxNwrdLiSHOdeaY9hp2lLpZKsZVb6xXPxF7NvDamM4dhfi1VSoU7328psWY+XZLNhp4rPZxuj3jVRQ8h3NND7L9m6+KhTnNXJmuVzlbrFqr4K35XFmhS3bmr0h5DjWUQrxcy326NFcejt7A21KltvyE/q+oenp/4/SACrV9sx/Oz6J+xfw/8A4m85kTEAlKex9/nhqn9mnnD+3UC1kAAAAAAAANBvtD/lHrvGp0U25Wn3Ne12T7CwL3ivg2rXKZxZUjlnXKh7bye3X/FxIfi6BU2CJUB/LS4P40ztejzcOsPORn6gCVKkzpUmbNkPS5kx96VLlSHFvSJMmQ4p1+Q+85lTjrzzq1uOuLUpa1qUpWcqznJ/AAAAAAAAAAAAAH2PHu/bdxVvmmcm6BeTda3jj/Z6PctR2GteWxPpdj1yyjW1PZxHm1JW2/DnxGH21JVj6Uenr6ZLpDxEeQvUPJj0Z4g7I082sa3x6oRp/NupQXkqkaby3rTaIW0QH42VKfYgXKkMbPrrq8e7KoLmAvGUvoksMbNwAAAAAADBjyP9HePPIp045o6qchR4kdG/6xKc0jaHoLUyboXJNS2ufo+61iFux1ok0t61GVLabkx02VO9ZVElzMOwkIVVzeJzwt8r9sfKra9NOdNRuNW0/q3t1pd9scyYz0T5DW9KvGoUfVYr7qUpzL5NslQYFC43lapOuTLHYYiX4letebeyipKjWaSn1ugrolRQ6/VV9JSVNew3FgVdRVRGYFbXQozKUMx4kKHHZjRmGkJbZZaQ2hKUpxjHtAAAAAADqnmHgvhjsJqMnQOdOKuP+XtKl/EW5rXIup0m3VDchxpcfMyJEu4UxECxQy6tLFlC+XnR/eyqPIbVjCsRuu03siXiy56esLrihnlfqrs8r4rrKuK9mjbBpeJK8p9z5rSN9hXzeITaffx8pQ3WuOrWpKlTPRPuK0Nc0+xLdoNfdtJXAvcHhvkquYW4qpr+QtO2rjTYZrX1tNP4q5W9Ucd/H/UcXm2+FnP89Pu+uUJ1y7r7Jb5kNTmZj1nF3Eu8xsu5Q1N1TmLXMtqb/pPdddZvWqV5nGcN4zlHurWnLjeM+vqr3emvyYbzWf8AdBd/3q8R/wDOx9vq3sqnmg2R2K1K6+abqeJKlYW9tPMGhR2onuv/AAcKlZqLS5WlKk/06fgofz8DGc5xhz+jM8+GPYtu/m3Soy+aOfOvPD1Z8Rv55NPJ2nkq7S0tvCnMwYldV0VVIdaczlGUSrqC2vCVLS79KcZ3W9aPYvOivGk+vvOyHPnNnZOfCdYfd1ymg0fC+gTsoWpxyPYVlTJ2/dJTec4aRhcXfa1txtD/AMaKvEhKI8mjqp0F6bdJKJVB1a668ZcPNSGsN2NzreuRc7bcYwlKc4udysMTNns21ZTlz5aXauRG3FurZjtKdX65gAAAEcfaPZUvDXuOzbFtt7wpyi/d7Ve2+x3D7PPfKEdl61u7CRZ2DrbDN6llht2XJeW2w0lLbSVYbRjCU4xj0n5Jf4Vv+w/lX7wXKn7+H5Jf4Vv+w/lX7wXKn7+OM+yX+FbGM+nB/Kuc/tBcqfv4269DfHl1g8bfFF3wt1T1XYNS0HYNumbvZ1+x7hsG6THdhnQoVfJkt2exTJsxlhcavjJTFbdwyhSVLSnClqznN8AAAAAGtTuZ4g/HZ33XZWnZLrJoWzbrZNfCf5O16I7o/J2c4w2hLz+7ao5V3Nk+hpltll24escssJwyz7jecpIy3ZD2JfgPYV2Vt1T7f8k8aynHnZELTuZdQpOSNeQlzH9HAjbVrMjSr+tisK+lMifU7TLWj+jcUpefjGnTlX2NryhaZmUvjvdut/L0eO2+6jNXvF5qEuSlnC1IaYi7VrUVOZD6U4w02t9tv4i0oW8lPqvGHV77Ld5pqWViMx1eqb9Ocu4+bouWuMnouPhqwnCsqsdlrXvR3195r0ZznKcZyvCM+mM+siey/eaqVJZjr6lNw0urwjMqXyvxQmMxjOM/z3lMbg+7hGPT0zlDLivXOP5pkrxx7IJ5cdyeiK2us4F4xgSFIw/I2PlVq1mwkqy37ynq3Wqa1U57iVqznDMhzOVNqTj605VtT6/+xEWrsqHP7S93okOvShhybq/A3HDsyykZW22qRHa3Tf58aHWLYcy42h/OjXbb+Epc+G165SSN+oXs4Pid6eP1F3r/AF1g8zbzUIby1vHYaajlGwdlpZyw5YY12whxNEiSXcKU57sLVI8Zh7OHYjEdxDa0bzoUKHWxIldXxI8GBAjMQ4MKGw1Fhw4cZtLEaJFjMJQzHjx2UIaYYZQhpppCW20JQnCcfqAAAAPyzoMKzhTK2yhxbCusIsiDPgTo7UuFOhS2lsSocyK+hxiTFksOOMyI7za2nmlrbcQpClJzov7d+zfeJrt+qwtbzrlXcKbnOw6r8deuktviqe3IcQhtMleuV0OVokpbKUerTMvVH43vrcccZccVlRHa5+9iFXiTIndW+8uFw3FvZi6xz5xp7kuI2ltxTGHt549scsWTjrvwmnPc49qEMow4+nL2VJYTqk5K9j/8tmmPTFajF4C5RgRnVoYf13lLFNNmtpxjKHma7Z6WrU3hz6ce4/IbWjOMe9jOM+uMaLH2XnzUwJSozfVCNZJShCvmq7ljitcVWVY9coSqVtsV7K0fUv1ZwnGfqUrH0n6Kn2XLzT2jy2XerFdTpRhGcP23LPF7bK/eXhOUozC2ic5nKMZ99fvNpxhGM5xlSv5ucs+L/Y5/KpuUmHjfL3rnxNAlJyp2VcciWO0SYWPRPomTX6trk5zLmc5VjKGXncYwn19/PvYNuHXn2IvjqA7Ds+1Xdjb9lSl7GZen8DcfVWqMqbbdUpOPx832XtUh1uS3hCH2W9BgvMY+J8GctS0OMyR+nfgh8XXSFdZb8SdXdO2PeqvKXI/JPLyFcp7q3Kxhr1mQ5u2pnVtPJw638dh2lq65cRxxxMNTDSvh42+oQlCUoQlKEIThKUIThKUpTj0wlKcfQlOMY9MYx9GMfRg8gAAafO9/gt8dnkg5pruf+1XG28bbyVVaHR8awrTXOVN20yAjU9dttiu6uIqo120hwFyWbDaLhxyctrMl5D7TTi8oYawnC/8AJL/Ct/2H8q/eC5U/fw/JL/Ct/wBh/Kv3guVP38PyS/wrf9h/Kv3guVP38Zf9HfAx44PHfzkz2J6v8Z71qvKMfU9h0pq22Dlfedxrsa/s+YX4XjZptgtZlep9/wDB0XLUrLPxmMJV8JSffV67lAAAAAAAAequ7uo1untthv7KDTUdFXTbi6t7OUzBrquqrozkyfYz5klbceLDhxWXZEmQ84hplltbjikpTnJTU+cvyZ3PlD72b1y7XWExXCXHqZXF3XukfThhmFxzSWkx3OxZi4Q2pFlvVs9K2ee7KwqamPKra15aWauNHY05AAAAAAAAAAAAAAktezFeUpfQLvFX8Tcm7Kuv6zdqna/QN3Zlqb/Bmo8kOSG4/G/InxHVoxBZjTn39Y2F1CsNOUl7mbIbedpoPw7ZttaHEIcbUlba0JW2tGcKQtCsYUhSVYznCkqTnGU5xnOM4zjOMnmAAAAAAAdXatwrxVpPJHJvL+qaNQUXJfMv4qf5UNyr4SGbrdPxHp/xf1XN1Kx6qkKpqbCK6KrGEZzGaYQ7lz4DWUdogAAAAAAAAAAAAAAAAAAAAAAAAAAAAAAAAAAAAAAAAAAAAAAAAAAhwe1y+Ux7rZ1woeh3D+x5hcw9oK2ZO5Ym1cttE/TuBobnysmrfU0vEqJYcnW3rUx8Ywj3tZqNkw7lOJ8LLlZMAAAAAAAAAAAAAAeSVKQpK0KUhaFYUhac5SpKk59UqSrGcZSpOcYzjOM4zjOPXGfUttvZovKkx5EekFZx1yJf/Pdl+qNbq/HHJ2JrjP4T2/TkwXq/jnkn0+Jl+c7dVlM/T7LPU0ledmqJkmT6ZtIy3pIAAAAAAAAAAAAAAAAAAAAAAAAAAAAAAAAAAAAAAAAAAAAAAAAAAAAAAAAAAB0J2g7G8a9SOAOVux3LtuzS8f8AEenWu330h11LTszEBnOIFNBypC/fs72yXDp6xlKHFuz5rDaW15V6ZpOO9XcLk3vp2s5l7UcsTFubLynt0+2gU6JMiRW6dqbDioupaTR4kKUpmn1ehahVcbHohcpxl+wk4VNmSXXMSQAAAAAAAAAAAAAAbSPDv5F9n8YvebizsTCXYzuOpUxGic4atBlvMp2TifZpcWPsakxkq+XnWmtZQxtVBHlIy25cU8ZjD0T5jMtm6F0TedS5N0vVORNCv67adJ3jXqja9U2OofTJrbvX76CxZVNnDeT/ANdiXCkMvIwrCVo97KHEIcSpGPqwAAAAAAAAAAAAAAAAAAAAAAAAAAAAAAAAAAAAAAAAAAAAAAAAAAAAAAAAB9H6f/eSun9sK8p7HIO+694xuIdhak6xxba0vIXZOdUTXlM2PIi6/E7SuNp6mV4iy2tPrbJnaLmFn47cfYrCoZkfDtKB1mLBfAAAAAAAAAAAAAAABY/eyA+VPPK3Eux+N3mfZm3+QOG48vcOu06ykyFT9j4kfU2vYtGTl7Lrbsrj24ccsqzKHWsu63ephIipTr6pEqbzjPr+jOP9ePQ5AAAAAAAAAAAAAAAAAAAAAAAAAAAAAAAAAAAAAAAAAAAAAAAAAAAAAAAABrM8uPkO0zxm9H+WuyF++xK3Vird1DhjVFORsTNu5Y2Rh2FqkRpiSr3V1dNIUvZNjfw2/wDLUNROWhiTJXGiSKW3kXkLceWd+3Pk/kO+m7RvfIOzXW47fsVivDk662LYbB+0trGSrGEp+JKmyXncoQlLbeFYbbSlCUpx8YAAAAAAAAAAAAAAADIzqR2f5Q6ZdkOIOznDly9Tb/xBudVtVUtCs/KW0OO78G81m4Y9cIm0O0Uj1hQXcF3+jlVthJazlKspWm7G6UdsuOO8vVrhbtTxRLS9p3L+nQthbhZfYfl69dtqcrtn1S1+A66lm21fY4dnRWLClfERJgr97GPewZTAAAAAAAAAAAAAAAAAAAAAAAAAAAAAAAAAAAAAAAAAAAAAAAAAAAAAAAAAjs+afwV715iN84qsbvuhYcI8UcRa7Ni63xRW8QtblFk7ndzHnNg3m1uneQtc+bny6xqppq6JmqSiphwZeWX3V2srJpA/IdaH7RG3+7lC/i8PyHWh+0Rt/u5Qv4vD8h1oftEbf7uUL+Lw/IdaH7RG3+7lC/i8PyHWh+0Rt/u5Qv4vD8h1oftEbf7uUL+Lw/IdaH7RG3+7lC/i8PyHWh+0Rt/u5Qv4vD8h1oftEbf7uUL+Lw/IdaH7RG3+7lC/i8PyHWh+0Rt/u5Qv4vD8h1oftEbf7uUL+Lw/IdaH7RG3+7lC/i8PyHWh+0Rt/u5Qv4vD8h1oftEbf7uUL+Lw/IdaH7RG3+7lC/i8PyHWh+0Rt/u5Qv4vD8h1oftEbf7uUL+Lw/IdaH7RG3+7lC/i8PyHWh+0Rt/u5Qv4vD8h1oftEbf7uUL+Lw/IdaH7RG3+7lC/i8PyHWh+0Rt/u5Qv4vD8h1oftEbf7uUL+Lw/IdaH7RG3+7lC/i8PyHWh+0Rt/u5Qv4vD8h1oftEbf7uUL+Lw/IdaH7RG3+7lC/i8PyHWh+0Rt/u5Qv4vD8h1oftEbf7uUL+Lw/IdaH7RG3+7lC/i8PyHWh+0Rt/u5Qv4vD8h1oftEbf7uUL+Lwz7DrQ/aI2+f/8AXOF/F4kV+FvxHb94iOP+UOH3e2c/sNxNvN/D3HW9RtOMk6PnQduUxiFsNnUTW952pt6HskKPWpn1yYcNOJle3Nw+txxxKt3QAAAAAAAAAAAAAAAAAAAAAAAAAAAAAAAAAAAAAAAAAAAAAAAAAAAAAAAAAAAAAAAAAAAAAAAAAAAAAAAAAAAAAAAAAAAAAAAAAAAAAAAAAAAAAAAAAAAAAAAAAAAAAAAAAAAAAAAAAAAAAAAAAAAAAAAAAAAAAAAAAAAAAAAAAAAAAAAAAAAAAAAAAAAAAAAAAAAAAAAAAAAAAAAAAAAAAAAAAAAAAAAAAAAAAAAAAAAAAAAAAAAAAAAAAAAAAAAAAAAAAAAAAAAAAAAAAAAAAAAAAAAAAAAAAAAAAAAAAAAAAAAAAAAAAAAAAAAAAAAAAAAAAAAAAAAAAAAAAAAAAAAAAAAAAAAAAAAAAAAAAAAAAAAAAAAAAAAAAAAAAAAAAAAAAAAAAAAAAAAAAAAAAAAAAAAAAAAAAAAAAAAAAAAAAAAAAAAAAAAAAAAAAAAAAAAAAAAAAAAAAAAAAAAAAAAAAAAAAAAAAAAAAAAAAAAAAAAAAAAAAAAAAAAAAAAAAAAAAAAAAAAAAAAAAAAAAAAAAAAAAAAAAAAAAAAAAAAAAAAAAAAAAAAAAAAAAAAAAAAAAAAAAAAAAAAAAAAAAAAAAAAAAAAAAAAAAAAAAAAAAAAAAAAAAAAAAAAAAAAAAAAAAAAAAAAAAAAAAAAAAAAAAAAAAAAAAAAAAAAAAAAAAAAAAAAAAAAAAAAAAAAAAAAAAAAAAAAAAAAAAAAAAAAAAAAAAAAAAAAAAAAAAAAAAAAAAAAAAAAAAAAAAAAAAAAAAAAAAAAAAAAAAAAAAAAAAAAAAAAAAAAAAAAAAAAAAAAAAAAAAAAAAAAAAAAAAAAAAAAAAAAAAAAAAAAAAAAAAAAAAAAAAAAAAAAAAAAAAAAAAAAAAAAAAAAAAAAAAAAAAAAAAAAAAAAAAAAAAAAAAAAAAAAAAAAAAAAAAAAAAAAAAAAAAAAAAAAAAAAAAAAAAAAAAAAAAAAAAAAAAAAAAAAAAAAAAAAAAAAAAAAAAAAAAAAAAAAAAAAAAAAAAAAAAAAAAAAAAAAAAAAAAAAAAAAAAAAAAAAAAAAAAAAAAAAAAAAAAAAAAAAAAAAAAAAAAAAAAAAAAAAAAAAAAAAAAAAAAAAAAAAAAAAAAAAAAAAAAAAAAAAAAAAAAAAAAAAAAAAAAAAAAAAAAAAAAAAAAAAAAAAAAAAAAAAAAAAAAAAAAAAAAAAAAAAAAAAAAAAAAAAAAAAAAAAAAAAAAAAAAAAAAAAAAAAAAAAAAAAAAAAAAAAAAAAAAAAAAAAAAAAAAAAAAAAAAAAAAAAAAAAAAAAAAAAAAAAAAAAAAAAAAAAAAAAAAAAAAAAAAAAAAAAAAAAAAAAAAAAAAAAAAAAAAAAAAAAAAAAAAAAAAAAAAAAAAAAAAAAAAAAAAAAAAAAAAAAAAAAAAAAAAAAAAAAAAAAAAAAAAAAAAAAAAAAAAAAAAAAAAAAAAAAAAAAAAAAAAAAAAAAAAAAAAAAAAAAAAAAAAAAAAAAAAAAAAAAAAAAAAAAAAAAAAAAAAAAAAAAAAAAAAAAAAAAAAAAAAAAAAAAAAAAAAAAAAAAAAAAAAAAAAAAAAAAAAAAAAAAAAAAAAAAAAAAAAAAAAAAAAAAAAAAAAAAAAAAAAAAAAAAAAAAAAAAAAAAAAAAAAAAAAAAAAAAAAAAAAAAAAAAAAAAAAAAAAAAAAAAAAAAAAAAAAAAAAAAAAAAAAAAAAAAAAAAAAAAAAAAAAAAAAAAAAAAAAAAAAAAAAAAAAAAAAAAAAAAAAAAAAAAAAAAAAAAAAAAAAAAAAAAAAAAAAAAAAAAAAAAAAAAAAAAAAAAAAAAAAAAAAAAAAAAAAAAAB//Z;" vertex="1" parent="1">
                    <mxGeometry x="530" y="110" width="70" height="36.62" as="geometry"/>
                </mxCell>
                <mxCell id="29" value="" style="shape=image;imageAspect=0;aspect=fixed;verticalLabelPosition=bottom;verticalAlign=top;image=data:image/jpeg,/9j/4AAQSkZJRgABAQAAAQABAAD/2wCEAAUDBAgICAUICAgICAgGBwUIBwcHBwgICAkIBQgICAUICAUIChALCAgOCQUIDBUNDhERExMTCAsWGBYSGBASExIBBQUFBwYHDggIDBIMEQwSHhISFBIaEhISEhIUFB4SFBISEhIeEhISEhQSEhISEhISEhISEhISEhISEhISEhISEv/AABEIAtAFAAMBIgACEQEDEQH/xAAdAAEAAwEBAQEBAQAAAAAAAAAABwgJBgUEAwIB/8QAYRABAAEDAgIDBwoPDgMFBwUAAAIBAwQFEQYSBwghEzE2QVFhcQkUIjJCdHWBsrMYIzM0UlVicnOCkZKTsbQVFyQ1U4OUoaLC0tPU4RYlwSZDZKPiVGPDxNHw8WVmhKXl/8QAFgEBAQEAAAAAAAAAAAAAAAAAAAEC/8QAFhEBAQEAAAAAAAAAAAAAAAAAAAER/9oADAMBAAIRAxEAPwC5YAAAAAAAAAAAAAAAAAAAAAAAAAAAAAAAAAAAAAAAAAAAAAAAAAAAAAAAAAAAAAAAAAAAAAAAAAAAAAAAAAAAAAAAAAAAAAAAAAAAAAAAAAAAAAAAAAAAAAAAAAAAAAAAAAAAAAAAAAAAAAAAAAAAAAAAAAAAAAAAAAAAAAAAAAAAAAAAAAAAAAAAAAAAAAAAAAAAAAAAAAAAAAAAAAAAAAAAAAAAAAAAAAAAAAAAAAAAAAAAAAAAAAAAAAAAAAAAAAAAAAAAAAAAAAAAAAAAAAAAAAAAAAAAAAAAAAAAAAAAAAAAAAAAAAAAAAAAAAAAAAAAAAAAAAAAAAAAAAAAAAAAAAAAAAAAAAAAAAAAAAAAAAAAAAAAAAAAAAAAAAAAAAAAAAAAAAAAAAAAAAAAAAAAAAAAAAAAAAAAAAAAAAAAAAAAAAAAAAAAAAAAAAAAAAAAAAAAAAAAAAAAAAAAAAAAAAAAAAAAAAAAAAAAAAAAAAAAAAAAAAAAAAAAAAAAAAAAAAAAAAAAAAAAAAAAAAAAAAAAAAAAAAAAAAAAAAAAAAAAAAAAAAAAAAAAAAAAAAAAAAAAAAAAAAAAAAAAAAAAAAAAAAAAAAAAAAAAAAAAAAAAAAAAAAAAAAAAAAAAAAAAAAAAAAAAAAAAAAAAAAAAAAAAAAAAAAAAAAAAAAAAAAAAAAAAAAAAAAAAAAAAAAAAAAAAAAAAAAAAAAAAAAAAAAAAAAAAAAAAAAAAAAAAAAAAAAAAAAAAAAAAAAAAAAAAAAAAAAAAAAAAAAAAAAAAAAAAAAAAAAAAAAAAAAAAAAAAAAAAAAAAAAAAAAAAAAAAAAAAAAAAAAAAAAAAAAAAAAAAAAAAAAAAAAAAAAAAAAAAAAAAAAAAAAAAAAAAAAAAAAAAAAAAAAAAAAAAAAAAAAAAAAAAAAAAAAAAAAAAAAAAAAAAAAAAAAAAAAAAAAAAAAAAAAAAAAAAAAAAAAAAAAAAAAAAAAAAAAAAAAAAAAAAAAAAAAAAAAAAAAAAAAAAAAAAAAAAAAAAAAAAAAAAAAAAAAAAAAAAAAAAAAAAAAAAAAAAAAAAAAAAAAAAAAAAAAAAAAAAAAAAAAAAAAAAAAAAAAAAAAAAAAAAAAAAAAAAAAAAAAAAAAAAAAAAAAAAAAAAAAAAAAAAAAAAAAAAAAAAAAAAAAAAAAAAAAAAAAAAAAAAAAAAAAAAAAAAAAAAAAAAAAAAAAAAAAAAAAAAAAAAAAAAAAAAAAAAAAAAAAAAAAAAAAAAAAAAAAAAAAAAAAAAAAAAAAAAAAAAAAAAAAAAAAAAAAAAAAAAAAAAAAAAAAAAAAAAAAAAAAAAAAAAAAAAAAAAAAAAAAAAAAAAAAAAAAAAAAAAAAAAAAAAAAAAAAAAAAAAAAAAAAAAAAAAAAAAAAAAAAAAAAAAAAAAAAAAAAAAAAAAAAAAAAAAAAAAAAAAAAAAAAAAAAAAAAAAAAAAAAAAAAAAAAAAAAAAAAAAAAAAAAAAAAAAAAAAAAAAAAAAAAAAAAAAAAAAAAAAAAAAAAAAAAAAAAAAAAAAAAAAAAAAAAAAAAAAAAAAAAAAAAAAAAAAAAAAAAAAAAAAAAAAAAAAAAAAAAAAAAAAAAAAAAAAAAAAAAAAAAAAAAAAAAAAAAAAAAAAAAAAAAAAAAAAAAAAAAAAAAAAAAAAAAAAAAAAAAAAAAAAAAAAAAAAAAAAAAAAAAAAAAAAAAAAAAAAAAAAAAAAAAAAAAAAAAAAAAAAAAAAAAAAAAAAAAAAAAAAAAAAAAAAAAA/mcqUpWta0pSlN61rXalKeWtXHcQ9KfDmn81MrWdPtyj34RyYXZ0r5K2rPNKlfSDsxCGsdaPhLH5qQycnJrTxY+JcrSvonc5aOT1DrjaLHeljS9SvbeO5LGsxr6JUuSr/AFAs2Kl3+uhZp9T4euy8nPq0IfJw5Pw+jT//AG1//ef/AOcC3YqdjddDHr9U4evR/B6pC58rFi9rTuuJoc9qX9N1Oz5ax9bXY0+OlyMv7ILLiFdG6z3CORy0lmXsate/TJxLsaU/HjStHfcPdJGg6htTD1fAvylty26ZVuFyu/kx7laTr+QHWAAAAAAAAAAAAAAAAAAAAAAAAAAAAAAAAAAAAAAAAAAAAAAAAAAAAAAAAAAAAAAAAAAAAAAAAAAAAAAAAAAAAAAAAAAAAAAAAAAAAAAAAAAAAAAAAAAAAAAAAAAAAAAAAAAAAAAAAAAAAAAAAA5/jbjHTNFx65Op5lnEtey5O6S9ncrHvxtWaeyuS73ZHyg6B8OsarjYVmd/LyLONYt+2vZF2Fq3Tzc860pv5lR+lHreXp91scP4dLMPZU/dDOpSdyXkrZwaext+mcpd/vUVq4u4s1LV73d9SzcjMuby5a37lZRhv7alu17W3TvdkYi4u5x71q+HdP54YUb+rXo81Ket6dxx94+XNu073njGSCOMutfxHm88cKGLpdqvNSlLEO73tvFvlXuzm88YxQACve4o401bVKyrqGo5mXvXfkv5FyVulfucffkj8UXggAAAAAAAADp+FOkHW9KrH1hqmbjRj3rUMidbP9GnWtv+ymTgzrb69ickdQxsXU7dNt69uJkbebIt0lDf0wkroA0D4B6z/DOp8lvIu3dLvy5acmdGnct6+Kmbb3jt55cqasDMs5FuF6xdt3rVym9u7ZuRuW5U8sbsK1pKnoZJOl4G481fRLvddMzr+LvWNZ24TrWzc2/lMWW8J+msRMaoCpfRZ1u7c+5Y/EOJ3KvZT90cGlZQr572n17YffQlLv8AtaLPcL8RYOqY8MrT8qzl49zvXbFyk6Ur3+WVKdsJfc1EesAAAAAAAAAAAAAAAAAAAAAAAAAAAAAAAAAAAAAAAAAAAAAAAAAAAAAAAAAAAAAAAAAAAAAAAAAAAAAAAAAAAAAAAAAAAAAAAAAAAAAAAAAAAAAAAAAAAAAAAAAAAAAAAAAAAAAAAA+fOy7Vi3dvX7kLNqzGs7t27OMLcIR7ZSlclWlI089XH9LXSdpfDWL641C7vcuUn62w7VaVyL8oeKFqteyO9aezr2dqhvTT0z6txRdrTIn62wITrKxptide5R+xlentSt+53vZS+KlAT7009a6zYrew+Hbcci57KM9Uv0r3GFe9/BsWtN7tfupbR81d+ypfFHEOdqeRdy9Qyr2XkXPbXb86yrSnf5Yx70IU7eyjywaAAAAAAAAAAAAAAAAAAHvcEcY6louRHK0zLu4t32PP3OXsLkaV3jG7Zr7G5Hv9kvK8EBeDoU60+DqNbOHrsIadl15IwzYy/gV6suzee/biy38vNHz07yyNqcZRjKNaSjOlJRlGtKxrStN6VpKnZWlaeNkcmHoK6fNU4alax7nNn6XWVOfBu3Np2qb+yli3q79zr21ry19jLzd8TGig5fo54603iDDhm6bfjet+xpdt17L1icqb9zvWe/Cff/J2buoEAAAAAAAAAAAAAAAAAAAAAAAAAAAAAAAAAAAAAAAAAAAAAAAAAAAAAAAAAAAAAAAAAAAAAAAAAAAAAAAAAAAAAAAAAAAAAAAAAAAAAAAAAAAAAAAAAAAAAAAAAAAAAAAAAAf4hbrEdO+Hwzbli41IZmr3oV7nj830vGpKnsLuVKnbTv70t9+Xmo8nrQ9PVvh+3PTNMlC9q9+Eu6XN6ShgwnTsnOnelfrSvZDxd+vipWiOoZl3Iu3r9+5O9evzncu3bsqynOc67zlKde2ta1FffxbxJm6tl5GbqGRcycm/Xedy5XvU9zCEO9CFPcxo8kBQAAAAAAAAAAAAAAAAAAAAAAAHR9HnG2o6Dm2s7Tb8rN2PLS5Dv2r1vfetq9a704V//DQDoG6ZdP4qxvYbY2o48I1y9PnPeVPFW7YlXat2zWvj9zvtXy1zcehw7rWVp2Vi5mFenj5ONOM7V63LaUa0/XGtOzaoNZRDnVv6bMbijG7hf5MfV8S3GuRjUrtG/GPZLIx6V78d/bQ9zv5ExjIAAAAAAAAAAAAAAAAAAAAAAAAAAAAAAAAAAAAAAAAAAAAAAAAAAAAAAAAAAAAAAAAAAAAAAAAAAAAAAAAAAAAAAAAAAAAAAAAAAAAAAAAAAAAAAAAAAAAAAAAAAAAAAg7rR9NdvhrF9Z4Uo3NYzrde5R3pWmJar2euLsfsq9vLGvf2371O3r+nbpLxuF9Lu5l3luZV/mtafi1ltW9f279du3uUOakpVp5dvHRm7xNrmVqWXl52Zdleycu5O5euS8dZeKkfcxpTakaU8gPkzsq7fu3r165O7dvzncu3bkqynOc61rOUp17ayrWVX4gNAAAAAAAAAAAAAAAAAAAAAAAAAAAAPv4e1nJ0/KxszDvTsZOLcjcs3bddpRlH9dK9tNq+Voj1d+lzH4qwOavLZ1LCjbjn4lK+OXZHIsxr21syrGv3teyvi3zfdB0ecYZuhahialgz5L2NLtjWte53bcvqtm7Gnftyp2f/AIBqqOT6LOOMPiHTMPUsOu0b1OW9ZrKlZ2L8KU7vZnt46Vr3/HStK+N1gyAAAAAAAAAAAAAAAAAAAAAAAAAAAAAAAAAAAAAAAAAAAAAAAAAAAAAAAAAAAAAAAAAAAAAAAAAAAAAAAAAAAAAAAAAAAAAAAAAAAAAAAAAAAAAAAAAAAAAAAAAAPg1zVLGFjZWXlXI2cfEtXbt+7OvZGFqlayr569nefep116elCty5a4bwrnsLNYXtVnGXtrldpYmL2eKNPZy++jTxV3CDOnTpIyOJ9WyM65zQxrXNa0/GrXelnHpX2G8e93SXZKVf/pRwQDQAAD7uHtNnm5mn4dvsnnZWJjQr39pZd2NuFfyzoC8/VY6JdLtcOaZk6hp2Hl5eqUnlynl4tq9KFq/X+Cwj3WNeWPc4xr2fZO+1voW4WzKVpd0TBjv3pY9r1vKm/jpKzWPa7nTcO3j2cbHtR5bWNas2bUae5t48KQtR+KMKPpGVY+OOqBpWRSc9Jz8jAudtY2smNMvHr9jTfeNyHp5pehXLpN6DOItApduZOHXIxYb1rm4O9+zSMfdT2pz2qeeUYtKSoMihoT0vdXLQ9c7rfx4U0rPlzVpk4luPcZzr47+DStIz3r448tVM+ljom1nhq7y5+PzY85SjZz8feeLc+xp3Xbe3P7mXLL8g04IH16XpeTlT7ni49/Jn/J41m5en2+19hbjWoPkEiaL0IcV5fLW1omZGNfdX4RsUpv5Y3ZUq63Tuqxxbd2rLHxLFK/yubb3p6YQ3qCDhYzH6oHEUvbZmlW/vr2RL5Fir6a9TnXtv4z0jfyc2Z+v1uIrULF5XVC4jj7TL0u597fvx+XZo8LUuq5xdZ7Y4uNfpT+RzbVa/mS2qKhEd/rfQxxTh81b2iZ9aU91Ys+uKV9HcKyq4jPwb2POVu/Zu2LlO/bvW52509MJ0pUHzgk7od6Eda4mlS5j2/WuDzbT1HKjKlnv7T7jDv35U7eyPsfLWgIxpRLfRr1euI9bpau0xqafiz5a0ytR5rVKxl7q3i7d0n2fcrhdEfQLoXD1LV2Fn19nR5a1z82EZTjKPurGP2wsdvk7fOlgTVb+CuqNoeLSEtSysrU7vZzRjtiY+/mswlKdaemf5EqaP0O8L4kaRs6Hp/Z472PG/Wvple5neAirnXR6LdOt6Ha1PTcDFw7umZMPXHrPHt2aXMfL2ty5426UpXlnS3Xevll5VLWqnSPoVNT0jXNPrSlfX2Dl2Yb9v0yduvreu3muUjX4mVdaeLyCwAFAAS11YulafDOqx7tKVdM1KVq1qFvetaQ5a1pZyow+zhz173to1l5mi2PehchC5blGcLkYzhONaSjKM6UrCUZU7KxrStK7+dkeur1HOlGuZi3eHsy5vkabDumnTnLtu4m9e62e33Vqu1fvZ/ciVaAAQAAAAAAAAAAAAAAH45N+FqE7lycbcIU3nO5KkIRpTv1lOVdqU9KNOK+nzhbTqyjPUoZNyO+9vBjLJ7aeLusPYf2gSiKzaz1vtMhWVMTSc3I271b+RZxY19HLG7Xb0xczl9cLMrX6VoeNCni7rn3btfyxsw3Bb8U1+i/1X7Uaf+lyf8T97HXCz6e30XEl95l3ofrhIFwxVPT+uJbr2ZGgTj5ZWNTjP/wAueLH5Tq9F61/Dt7amRY1DEr46zsW7sfzrNytdviBYEcJwv0u8N6lWMcbVsTukuXa1fuet7m8u9SkL3LvXzUdzSu/bTtpXvVoD+gAAAAAAAAAAAAAAAAAAAAAAAAAAAAAAAAAAAAAAAAAAAAAAAAAAAAAAAAAAAAAAAAAAAAAAAAAAAAAAAAAAAAAAAAAAAAAAAcb0ycb2uHtG1PU7m0p2bfJi2pV27rk3t44sPRzdtfuYyZjatqF7Lv5WTkTldv5V27evXJdspXL0qynKvxyqsN16+PvX2q42jWJ/wbRKSnkUjXsnm5UY83N+Dt7R/HueVW8WAAoAAkXq04NMjizhK3XtjTOhcr//AB4TuR/rhRHSU+qfcpHjDhff3V+/GnplYu8oNIgBkAAfLqmBYyrN7HybVu/YvxrC7ZvQpO3ONe/SUJU2q+oBGfD3QTwpg3J3bWj41ycpVlT11zZEY81a15Y2rtaxpHzbeJIeBhWceEbVi1asW4+1t2bcbcKei3ClKUfSAAAAAAAPj1XS8bLh3LKx7GTbr37eTZt3ofo7lK0fYAjHP6BeE7+RYyZaPjwnanGfJZrO3ZnWPepcxoy5JR8ySMezC3CFu3CNu3bjGMLduNIwjGNNqRjCNNoxpTxUfsAAAAAMqekjBpjazxHjxptHH1TVbcKfc2sm5GH9mNGqzLjppuUlxHxbWne/djVqfm5Fykv641FjkQBQAB7HBPEeTpGoafqOJLlv4N6F2HbXllSlfZ257d+Eo7xl6XjgNWeBuJMfV9O03UsWu9nPsW7saVrSsoVlT6Zblt7uMuaPxPcU/wCoLx9tPUeHsifZOlc3TeavelTs1CzTfy05LkfvbnlXAGQAAAAAAAAAAHzalnWcazkZGRchZs49udy9duSpGEIQpvOUpV71NgfreuRhGcpypGMKSlOUq0pGMY03rKUq9lKUpHv18iuHTF1osPBldxNCtwz8iO8Z51ytaYduve+lwj7LIl3/ALGPnr3kQdYvp3ydfuXcHAlPG0i3KUeWlaxuZnLX6pf271v2Psbf5d696EAdPxzx/q+t3OfUs6/kU33jZrOsbEPvMSO0I187mAAAAAAAAdt0e9KmuaFKHrHOu0sxrHfDvSrexq0j4vW867Q/F5XEvR4Y0mefm6bhW/b52Vi48a07dq5FyMOb0U561+IGmXAGs3dR0vR8+9ZpYu5+HjZE7Ma1rGNciFJ05a17eWtJUr2+V7z8MLGhZtWbNulI27Fu3btxp3owtRpGFPipGj9wAVn63vTNe02tND0q7W3lXrXPqGXbltOxbuU+lWLUqdsbsqb1lL3MeXbtr2BKHSF01cPaHOdnKzaXcmG9JYuJHu92Nae5ucvsbdfNKqP7XW14frPlrhapGO/1StrGrT08kb/MpNKVa1lWtd61rvWte2tay8dfOA0r6PelHRNe7NOzYXLtKc0sW7StrIpTx19bz2rKlPLHd2zKXT8y7j3bN+xcnZvWZxnau2p1hOEodsZRnHtpVfHqt9LkuI8K9jZlaU1TS42vXFabUpkWZ7xtZEYU71d6csqU8dY/ZAmkAAAAAAAAAAAFdOuvx1qmj2eGbWm5dzD/AHQuavLIuWdqXJUwaYncY0nWnZH+Fzr2eSKsf78PFH27z/03+yePVCva8EeniP8AVpqpoO6/fh4o+3ef+m/2P34eKPt3n/pv9nCgJz6B+lviK9xDw/j5GqZOTj5mVCzfsZEqThKF2kqV7K07JU7K70XuZsdX/wAJ+FPhHH/vNJwAAAAFCumvpd4jt6/xBYsark49jEzcixZsWJUhCFvHlyw9jSnbXs33r5V9WaHTh4ScV/CmofOVB9H78PFH27z/ANN/sfvw8UfbvP8A03+zhQHdfvw8UfbvP/Tf7LR9SzjbU9Yw+IYallXMuuBkYPcLt7atykcuF6t2FZ0p7KO+PSvb5VIluvU+vrfi/wDD6L8jLBacAAAAAAAAAAAAAAAFPet30ma5p+v+scDUL+HjWMPEnSGPWkOaeRSspynPbeVe9T4kNfvw8UfbvP8A03+ztuu34VZHvDTPkVQeDuv34eKPt3n/AKb/AGP34eKPt3n/AKb/AGcKAtN1PeknW9R1vIwc/PvZmPcwci7SGRWk6wuY8o8koXNt6dk602W7UW6jfhNP4Nzv1216QAAAAAAAAAAAAAAAAAAAAAAAAAAAAAAAAAAAAHP9IfEtrR9L1bU721YafjXrtIVrtz3I02x7e/3U5Rj8boFXPVAeLu4afo2jW5ez1K9dysmlK97Hwdo48a08k7t2tf5iQKb6xqF3LyMvKyJ1uX8u9evXp178rl6VZzr+WVXygNAAAADr+hbV6YPEPC+VKu0bOp4NJy720L1ylq7KvmpG7WrkH9WoylKEYUlWUpRpCkaVrKspVpy0jGnbWu+3eBrmPC4Dycu9pejXc+1Kxm3MLDrl2ZV3lG/3Ondt9u9Wst67efbxPdGQAAAAAAAAAAAAAAAAAAAH5ZV+NqF25OtIwtQnOcq96kbdKynWvmpSlWTvEGoVy8vUMqXZLMysvIlSvlyrsrlf65tKOsLfzbfDPE37n2Z38i5hX7dIW/b0tX6cmXOMe/KsbUp12ozJFgAKAAAA9zgDiW9o+p6VqVjfumBk2bvLSu3PCNfp1usvJKEpR+NqZouo2szGw8uxLns5lizfszp47eRCk7dfNXaVGS6/HUc4u/dDh2WFOW97QciWPWla719b5O93Cr6Oy7H+bEqfQBAAAAAAAABTHrldLMs3JnoGDc2xMGf/ADG5CX1fJhWn0nmp/wB3brGvZ7qVfuViOsRx5/w/oWdl25Upl5H8FwaV7/d8iMtrlKePkjGU/wAVnNdnKUpSlWspTrKUpSrWtaylXeVayr21rWu4P5AAAAHTcC8A6vrdyUNMwb2TSNY0uXqR5bEKy+zypbQjXzJv4Z6omp3aRlqGqYmHv37ePYnmXKeWla1nbhSvolIFahcjD6oGl0p9O1fPnXx1tWce1T82VJvrl1RND8WparSvnlh1/q9bgpYLhZvU+0+v1HWsy3Xxd1xLN6nxxhOG7ldc6oWpW6Srh6th5O3ejkY93ElXzU5ZXY7+mQKzph6nugeveKdNnWm8NNtZOZPs3pStqPJZ3/HvRePxf0GcT6ZSUr2mXb9uPNvdwtsqO3l5bW86U/FTt1DeE72Pa4i1PIsXLVcmWJiYtbtuUK1hj90uZtY81N6xrOdmn82C0QADL7pI1meoavruZcrWssrOzZ03rvtDulY2Y/FCMafE1BZj9LnD9zS9c17CuRrTuGblVt7023s3p1uYsqeWlbc4g5YABK3VO1ieHxXoVI1rSObK/i3aeKsMi3Ksd/LtKEaopS/1QeH7mdxTpVyMa1t6XHIzL0tuyNIQrbtUr6Z340BoEAAr1xb1p9M0/P1LBrpmdelgZORjzuxuWIRlPFnWF2sYVrvSPNGvfWFZj9L/AIQcVfC+rftNwFn/AKMDTPtPn/p8c+jA0z7T5/6fHU3AXI+jA0z7T5/6fHTD0N9I2NxPgXc/GsXseNrJu487V+sKypO1GE96ThXasa0u0ZrLudQ3we1L4WyP2fHBYUAAAFUPVCva8EeniP8AVpqpq2XqhXteCPTxH+rTVTQAAd11f/CfhT4Rx/7zSdmx1f8Awn4U+Ecf+80nAAAAAZodOHhJxX8Kah85VpezQ6cPCTiv4U1D5yoONAAW69T6+t+L/wAPovyMtUVbr1Pr634v/D6L8jLBacAAAAAAAAAAAAAAAFDuu34VZHvDTPkVQenDrt+FWR7w0z5FUHgAAnjqN+E0/g3O/XbXpUW6jfhNP4Nzv1216QAAAAAAAAAAAAAAAAAAAAAAAAAAAAAAAAAAAAGcnW24m/dPirWq0lva06sMC1270pTDptf28n02VxoTxNqsMHC1HNue0wMXLyZ0323ji25XKx38teTb42UeoZc797Iv3Zc13Ju3rt2VfdTvSrO7KvplKv5RY/AAUAAAAWu6knRFG/KPEmo297dmfLpFicd6TuQrWl3Llv4o1jSMPuuavipvXvol4Nu6/rGlaXarWNMu9Tu9ylN+549r2WVc5fLSEa/jNPtE02xh4+JiY1ulqxiWbVmzbj3o27MaRt08/ZHviV9oAgAAAAAAAAAAAAAAAAAAAAop1y+iKOj5cdZ0+3y6dql2dMi1CO0cXLl7LalKdlLVztrH7GsZU8i9bwuO+GcbWNO1HTcuO9nOszt1rtSsoSlT6Xdhv7uMtpfEDKcerxdoN/S87UtPyo8t/AyLti55K1tV2jOO/uZU2lH0vKGgAAABP/UW4n9ZcRzwpS2ta3iXbNab9ndsPe9i128ctu6R/HQA93o912umaromoU3/AIBm4l6W3frbtXKd2j8dvmp8YNWB/EJUlSMqVpWkqUrStO2laV7aVp5tn9jIAAAAAAD88i9G3C5cnWkYW4znOVe9SMKVrOtfNSlKgpL14uLq5mtYumQlvZ0Sx7OlK9lcnP5Z3q1p5aW4Wo/neVXx7HG+uT1LUtWz5782fl5V/avbWMbs61tQ/FhtT4njgAALDdWboD/dmkNV1ek7em0lvjY1N4zzK0rXmlKffhj0rTbentvFttujrq/8AV4i1vDwpb0xbP8ACc6UfFj2K05ob+Ks5SjDf7pozh41uzbtWrUI27VmELdq3ClIxhC3SkYRjGnZSlKUpQH56TpuPiWbOPi2bePYsx5bdmzCkIRpTxUhHsfWAAAAAAAAACButN0LS4gtWtR06kaaph25QnartSmZYj2wt89e9ej28ta9/favi2nkBlNqWDexrt2xkWrli9ZlKNyzehKFyEo9+koSpvR87TvjPgPR9ZpSmpafj5Uo02jduW6UvRp5I5Mdp0p5t3D2urhwlGfP+585du/JLLv1h+Zzd4FEeFeHc3VMmzh4GPcyci7X2Nu1Gtdqe6nOfehCn2VV/Orv0V2uF9PnbnKN3UM/uVzPvxp7He1SvcrFute3ucOeXb7qtZV8jtuFuF9O0q1Wzp2Hj4duvLzRsWqRrLl9rWc/bTrTevbJ7QAADMfpf8IOKvhfVv2m404Zj9L/AIQcVfC+rftNwHLAALudQ3we1L4WyP2fHUjXb6htf+z+q+bV8j9nxwWGAAABVD1Qr2vBHp4j/Vpqpq2XqhXteCPTxH+rTVTQAAd11f8Awn4U+Ecf+80nZsdX/wAJ+FPhHH/vNJwAAAAGaHTh4ScV/CmofOVaXs0OnDwk4r+FNQ+cqDjQAFuvU+vrfi/8PovyMtUVbr1Pr634v/D6L8jLBacAAAAAAAAAAAAAAAFDuu34VZHvDTPkVQenDrt+FWR7w0z5FUHgAAnjqN+E0/g3O/XbXpUW6jfhNP4Nzv1216QAfLl6hYs/Vr9m1+Fuwh8qtAfUPOsa5hXK7QzMWdfJDJtSr+Skno0qAAAAAAAAAAAAAAAAAAAAAAAAAAAAAAAACJetzrPrPhHiCtK7Sy44+JGvj/hd2NJbfixkzkXe9UF1LueiaFjUr25mqVnKnlhhWJ1l/bvW1IRYACgAAALf+p88I0pb17W7sfZTlawMOtad6MKd1z509NZWI/iS8q2yMOq3olMDhPhq3ttLIx65dzs78s6UrtK/myik8ZAAAAAAAAAAAAAAAAAAAAAAAAUj6/nCNMbVNJ1e1HaGr2LtnIrSnZTJ07k5ZV88rV6P6KSszQHrvaJTL4VyL2289My8LJhXyUrWVm9/ZyKs/hYACgAAANQOgvWfX/DfC2VWu8rmm4UJ133rWeLClm5WvnrWzWvxu1Qb1ItS7vwniW613rhZmoWK+anPS5Cn5LtE5DIAAAAAA4Tp/wBXrg8M8UX6V2l6wyLMK77V5s2lLFNvPter+R3aD+uvn9x4Wv26dlcvO0+18UZVuSp+S0ChwAAALrdRXhamLo2fqco/TdXyeSEq07aY+n80bVKeaty7dr+b5Fi3HdCukUweHuGcalNqw07CnOn3eVCl67v5+a9WnxOxAAAAAAAAAAAVj6yvTzq2g6x+5mnWsaMLGNj3bt2/brdlcnlU540pTelIRjTaizihXXW8LM33lpXzNAfV9FRxR/4D+if+o+io4o/8B/RP/UgkBO30VHFH/gP6J/6kt9V/pv1XiHUs3T9St41aRxJ5Fm9j262pRlZnCM4ShvWko1pd/s+dS5P3UU8JMr4Ly/nLILx1cHxR0v8ADem81MnV8Ss4772se5TIubx79OWzzbV81X29M1yUeHuKZRrWNaaVqW0o12rTezKnZKne7N2ZoLpcT9bfR7HNHAwMzOlTfaV2UMO1XyezlSc/7CoHFmr11DP1POlClquoZeXk1tUlzUhXKuSuShSdaU5qU59t3mAAACSOi7po1jhzEvYen+tu438iWRPu9juku6ThCEtq702ptaj2I3ATt9FRxR/4D+if+o+io4o/8B/RP/UgkBffqrdKmdxPja1XULdmN7Tb2FGN3HjWEbkMyN2tKStVrWlJRrjV7afZeZNSq/qfH1DjH8NonyMxagFUPVCva8EeniP9WmqmrZeqFe14I9PEf6tNVNAAB3XV/wDCfhT4Rx/7zSdltwTr9zStQ03UbVuF25p9+F6Fu5zUhKsN+WkuWu+3svEnz6L/AFf7Vab+flf5gLmimX0X+r/arTfz8r/MPov9X+1Wm/n5X+YC5opl9F/q/wBqtN/Pyv8AMPov9X+1Wm/n5X+YC5rNDpw8JOK/hTUPnKpi+i/1f7Vab+flf5iAOL9bnqWfqWfchC3cz8i9kTt296wjK9KspRjzdu3svGDygAFuvU+vrfi/8PovyMtUVbr1Pr634v8Aw+i/IywWnRV1lukrJ4Y0vEysSzavX8zNt40K5HNW3bp3K7dnOsI1pWVdrO22/jSqrh1+/wCJNB+GI/smSCLPosOI/wCQ03+j3P8ANPosOI/5DTf6Pc/zUAAJ/wDosOI/5DTf6Pc/zXpcL9arXLmbp9vJxcC5YvZOPbvRt27tufJenSE6wu90rSkqUlv2q3PQ4Z+vtM9+YXz0AaogAPM4o1P1lg6pm8ndPWGHm5Xc9+Xn9ZWZ3eTn2ry79y238703OdKX8RcU/A2t/sd4FQrnWy4irKVaY+mxpWsto9wu12p7mm9bu9X8/RYcR/yGm/0e5/moAAT/APRYcR/yGm/0e5/mn0WPEf8AIab/AEe7/moAAac9FXE0tZ0bRtTnajZnn49Lly1CtaxjOkpQnSNa9vLvCte3yuoRt1YfBLhT3pc+fupJBQ7rt+FWR7w0z5FUHpw67fhVke8NM+RVB4AAJa6q3F2BomtZGdqN7uOPb0/NjvSMpylOdYckIQjTeUq8tfyJF6Qetrl3aztaJgwxrdOalMvNrS9el9jKOJHa3a+OU/iVgAdlxN0pcQ6lWXrvVs2UZd+1bvys2tvJ3GzyxrT0uOnOsqyrKtZVr21rWu9a188qv8AHs8PcWanp8oywc/LxdvFYybkIV5fLapLllT0vGAWH6NutRq2HK1a1e1DU8b2NJXoctnLhTxypOlOS7X7mUY+mi2vR/wAbabruJHM03Ijet+xpch7W7ZnKm/Jes17YS7//AEZhuo6MeOs7h/Ps52DPasaxjfsSrXuWRa33nauxp36V7e33PfoDTkc30c8XYmu6dh6lh1+lZMfZW5VpWdq7HsvWZ7e6jLen9fjdIAAAAAAAAAAAAAAAAAAAAAAAAAAAACnvqimZvd4Mx/sLWu3pU8vdpYUIV+LuEvyqmLN+qFXt9Z4ct/YaTOe34XKvU/8Ag0VkGgAAAAAGrvBOJTH0zRLFOymPp+nWqU81nHtw/uvYfHo0t8bCrTx4+PX8tuj7BkAAAAAAAAAAAAAAAAAAAAAAABwPWGxKX+FuLrde3/luTP8Ao+12nzTMhqH03S24b4tr/wDpOp/12ZUZeCwAFAAAAXZ9T2zObR+IrH8hqlq5TzUysa3Tb8uNX8qzipfqdN7e1xtb+wu8Pz/Sx1CP/wACi2gyAAAAAAK39frI5dF0K3/K6tzV89LOLf8A+t2iyCsHqgcv4BwrHy5uoV/Ns26f3wU9AAf3Yt1nKEKd+coxp6Z1pSPyn8Pv4ajvm6ZSverl4VK/jXYA1NxbNLdu1bj7W1CEI081ulIx/qo/UAHCdPPEuTpHD+t5+HWMcnHtQ7jOcaSpGV25GHNyV7K1pSde+7tFnWu8EuIvweL8/bBUH9//AIt+2939FY/wH7//ABb9t7v6Kx/gReAlD9//AIt+2939FY/wH7//ABb9t7v6Kx/gReAlD9//AIt+2939FY/wH7//ABb9t7v6Kx/gReAlzROsJxXDJxJT1KV6Eb1nns3bNnknHmpzwlywpWlK03p2NBWUmD9Vx/wlr5VGrYChXXW8LM33lpXzNF9VCuut4WZvvLSvmaAhMABP3UU8JMr4Ly/nLKAU/dRTwkyvgvL+csgtn02eDnFfwVqXzUmZzT7pM0u9m6Nr+Hj0pK/l6fnWbMa12pK5dtSpCPNXvb17GfkuhziilZUromd2V2r9KpX2v3VKg4Qd1+89xR9pM/8AQ/7uM1DEu4929YvQlbvY9ydu7bnTaULlqtYzjKPirSsa0B+AAAOk4W4D1nVLU7+n6dk5dm3clblcsQ5o0uRpSVY1lv39p0r8YObHdfvPcUfaTP8A0P8AufvPcUfaTP8A0P8AuCf/AFPj6hxj+G0T5GYtQrz1K+CNT0fF4jnqWJcxK59/Te4W721LlaYkL/dZVhSvZHfKjTt8klhgVQ9UK9rwR6eI/wBWmqmrZeqFe14I9PEf6tNVNAAAAAAAAAAAAAW69T6+t+L/AMPovyMtUVbr1Pr634v/AA+i/IywWnVw6/f8SaD8MR/ZMlY9XDr9/wASaD8MR/ZMkFLQAHocM/X2me/ML56Dz3ocM/X2me/ML56ANUQAHOdKX8RcU/A2t/sd50bnOlL+IuKfgbW/2O8DMEAAAGjHVh8EuFPelz5+6klG3Vh8EuFPelz5+6kkFDuu34VZHvDTPkVQenDrt+FWR7w0z5FUHgAAD0uG9BzdSvwxsDGvZV+fetWLdZy2+ylt2Rj207ap54K6pur5UYXNSzcfTYypSvcoW65mR6KwjOFuP50vQCuguphdUbQ4xp3XUNTuy8dY1x7cfihS1WtPznj8V9ULFrbnLS9Vv27tKSrG1n2rd23OvuY+uLNISt08/LIFQx7nHHCedouZewdQsSsX7XbtXthOEt+S5bu07Jwry17aPDAABYPqTceSwNWu6Ren/BdbpvapKvZbzMeMq25R8nPDmjX72PkXeZVaHqV3DycLLs15b2Hfx79qXknjzjOG/m3jRqPoOpW8zFwcu19TzcfGyLfj9hlW43IUr59p0B9wAAAAAAAAAAAAAAAAAAAAAAAAAAAKP+qEU/59oNfLosKfkzMv/FRWpaD1Q2xtqvC93+U03Kt/ocmsv/mKKvjQAAAAADVrgPJ7tpWg3qV37vpumXN/L3XGty/6vbR91c9Spl8K8KXd9600+xar5q4m9nb8lqiQRkAAAAAAAAAAAAAAAAAAAAAAABH3WNye5cKcXTrXb/l1+P6asbf99mW0O652pUx+EdWjv25d7Ax6U8vdb0ZS/qtVZ4iwAFAAAAW69Tmp2cd18v8Awz/Z/dT/AOtFu1UPU67G2Lxjd/lMnRrf6G3lS/8AmKLXjIAAAAAArD6oFD/l/C0vsc7Op+fZhX+5VZ5XPr7Y1ZaFo1yn/catDev3N3GyKfrjEFKgAH1aPe7nk4Vyvet38edfRCcZf3XygNYR5fCWoUy9P0nKpXemXhYN/f3xZhP++9QBFnWu8EuIvweL8/bSmjbrL6ZkZfC/EVnGtTv3pWbUo2rUaznKlq7CU+WFO2VaRjWu1PIDOcel/wAPZ/8A7Dmf0S9/gP8Ah7P/APYcz+iXv8APNH2ZmlZVmPPexsi1Hfbnu2LluO9fFzSjSm74wAAftg/Vcf8ACWvlUatspMH6rj/hLXyqNWwFCuut4WZvvLSvmaL6qFddbwszfeWlfM0BCYACfuop4SZXwXl/OWUAp+6inhJlfBeX85ZBeMABmP0v+EHFXwvq37TcacMx+l/wg4q+F9W/abgOWAAXa6hfg/qnwve/ZsZSVdrqF+D+qfC979mxgWHAAABVD1Qr2vBHp4j/AFaaqatl6oV7Xgj08R/q01U0AAAdX0PaTYz9e4fw8qHdMfLzbNq9b3rHmhPfmpzU7aLv/Q78Jfayn9Iv/wCMGeo0K+h34S+1lP6Rf/xn0O/CX2sp/SL/APjBnqNCvod+EvtZT+kX/wDGfQ78Jfayn9Iv/wCMGeo0K+h34S+1lP6Rf/xqNdKmmWcLW+IMTHh3OxiZ+Xas29615bdqdaQpzV7a9gOaAAW69T6+t+L/AMPovyMtUVbr1Pr634v/AA+i/IywWnVw6/f8SaD8MR/ZMlY9XDr9/wASaD8MR/ZMkFLQAHocM/X2me/ML56Dz3ocM/X2me/ML56ANUQAHOdKX8RcU/A2t/sd50bnOlL+IuKfgbW/2O8DMEAAAGjHVh8EuFPelz5+6klG3Vh8EuFPelz5+6kkFDuu34VZHvDTPkVQenDrt+FWR7w0z5FUHgAAsr1AP424j+DLP7TbXMUz6gH8bcR/Bln9ptrmAAAhPrf8CW9V0HIzIQp680OM8mzcpT2VbHZ69tVr448tKT/EUKasalhwyLOTj3Kb28mzes3KeWF+FYTp+SdWVudjys3b1qXtrFy7bl99alWMv641B+IADRHqs6nXK4U4dlWu9bFq9j1r72uzjH+ranxM7l6eo7k8/DFYfyGo58afj8lz++CeAAAAAAAAAAAAAAAAAAAAAAAAAAAAVI9UVwd4cGZNKe1nrdiVfv6YVy1T/wAq5+VUFe3r76X3bhvCyKU7cDVMWda+SOTbu2ZfFvcj+RRIWAAoAAAC+PUP12mTw3exK13npWfkW60rXtpby6UvWa+jeU6firCKLdQviumHrmoabcltb1vFjyUrXanrnTaznj/HW3ev0+PzL0jIAAAAAAAAAAAAAAAAAAAAAAACqvqheu0hg8M6bGvssrKzMu5SlfcYNuNq3v5qyzZfo1NEz9cjiump8UZ0IS5rOkW7WBb2rvTms1rPK2/nbsqfEhgaAAAAAAXi9T9wuTQNYvVp25WrT2r9zj49iMf7Up/lWTQ51ONL9bcIaJWtNq5c83Jr56Xr0qRr+SFExjIAAAAAAhrrj6b644U1KVKduJfwcilfJSF2kZ/1Xaplc10o6JXUtF4gwaU5pZeBlwt08t2kKyx6fpIRBmGAAADQ7qra7TP4V0Ku+88KF3DudvbSuHOsYb+T2FYpTU86h/GcbOVq2iXpbRz6Qy8PevZ3fHjyZcKeedvudf5nzrhgAAAAgLr0+DWP8J4XyLqja8nXp8Gsf4TwvkXVGwAAftg/Vcf8Ja+VRq2ykwfquP8AhLXyqNWwFCuut4WZvvLSvmaL6qFddbwszfeWlfM0BCYACfuop4SZXwXl/OWUAp+6inhJlfBeX85ZBeMABmP0v+EHFXwvq37TcacMx+l/wg4q+F9W/abgOWAAXa6hfg/qnwve/ZsZSVdrqF+D+qfC979mxgWHAAABVD1Qr2vBHp4j/Vpqpq2XqhXteCPTxH+rTVTQAAd11f8Awn4U+Ecf+80nZsdX/wAJ+FPhHH/vNJwAAAAGaHTh4ScV/CmofOVaXs0OnDwk4r+FNQ+cqDjQAFuvU+vrfi/8PovyMtUVbr1Pr634v/D6L8jLBadXDr9/xJoPwxH9kyVj1cOv3/Emg/DEf2TJBS0AB6HDP19pnvzC+eg896HDP19pnvzC+egDVEABznSl/EXFPwNrf7HedG5zpS/iLin4G1v9jvAzBAAABox1YfBLhT3pc+fupJRt1YfBLhT3pc+fupJBQ7rt+FWR7w0z5FUHpw67fhVke8NM+RVB4AALK9QD+NuI/gyz+021zFM+oB/G3EfwZZ/aba5gAADLvpDhSOscRRp3o6rq0aeiOVdo1EZcceXefVdenTvXNS1WVPx8m7X+8DxQAF3eof4Pah8LZG36CwpEvJ1GLXLw1fl/Kanm1p+LC1H+4CfQAAAAAAAAAAAAAAAAAAAAAAAAAAARz1lNErn8K8T2aU3nbw7mTCm2/ssCtL8q/m2pM0Gt+Xjwu271q5Tmt3rdy3cjXvShdjWM6V9NJVZS8YaLPTtQ1XAub1np+XlY9a1ptzet7lYRly+SVI0r8YseUAKAAAA9PhTW7+m52m6hjV2v4GRZv2t+9WtmVK8stvcypvGXpak8G8Q4+rafp2o4suaxn2LV6HbvWPPT2cJbe6jLeNfQyjWm6jnSpHFvXeHc65tZzbndNLuTltS3kS39cY9d/c3OyUfuoy+y7CVc8AQAAAAAAAAAAAAAAAAAAAAcd0wcaWtA0bVdTuVjz49qUcaEq/VMm97HEht46c8qV9FKuxUJ65nSpHWtShpeHc5tP0Wd2kpwlvDIzK+xvXOzsrCFI1hH0yr4wQLmZM71y9euyrO5fuTuXZyrvKU7sqyuyrXx1rKVa/G/IBoAAAAKU/rHa9BXDtdV4i4aw9uaFzOx7l6m29O44ku7XqV81Y2q0+MGj/Rtov7naPoODWm0sLT8Gzcp/wC9haj64/8AM5nQgMgAAAAAAAM2en7heukcRa9iUjy2q5M8jG7Nqdxza91tUp5qc9Y/iuEXC69nA1b+Lp2u2IbzwObFzuWnfx70qSxLlfvLnNH+e8ynoAAPv4c1jI0/Lws3FnW3kYV61eszp4pWq77Vj4417abedo30O9IeJxJptnNx6xhejSEM3F5t549/b2Ua+OsK8taxl46U81Warouj3jXUdBzIZunX62rtPY3IV9lavW996271rvTj/wDdAafiv3Rr1otGz4wt6pGWlZW0aSlLmvYk6+6lC/GnNbpv4pR8ffr301aHxNp2dGksPOxMqku963ybVyvxwjLelfSD1wfhlZVq1Te7ct26eW5OMKfllUEE9enwax/hPC+RdUbXL66/FOm5OhY+Lj5+JkZNNRxZ1sY+TavXKQhC7ScpQtyry0pzU7/lU0AAB+2D9Vx/wlr5VGrbKTB+q4/4S18qjVsBQrrreFmb7y0r5mi+qhXXW8LM33lpXzNAQmAAn7qKeEmV8F5fzllAKfuop4SZXwXl/OWQXjAAZj9L/hBxV8L6t+03GnDMnpijWnEHFVK/bbVa/nZFyv8AeBygAC7XUL8H9U+F737NjKSrgdQTX7MsLiDTKypTIs5drNhCte2dnItRszrGPj5J4tN/wsQWhAAABVD1Qr2vBHp4j/Vpqpq2XqhXteCPTxH+rTVTQAAd11f/AAn4U+Ecf+80nZsdX/wn4U+Ecf8AvNJwAAAAGZ/Tf4R8V/CmofOSaYMzemvwj4r+FdS+dkDkAAFuvU+vrfi/8PovyMtUVbr1Pr634v8Aw+i/IywWnVw6/f8AEmg/DEf2TJWPVx6/MK10LRK/Y6xb3/GxMn/rt+UFLAAHocM/Xume/ML56Dz39492sJwnHslblCca+eFaVj/XGgNXh5nC2sWtQwtPzrFaStZ2PYvwrSu+1L0aSrHfy0rKtPiemA5zpS/iLin4G1v9jvOjct0sXYQ0HimU5RhT9x9ZpzTlSNOaeJdjCnNXx1lWlNvODMcAAAGjHVh8EuFPelz5+6klG3Vh8EuFPelz5+6kkFDuu34VZHvDTPkVQenDrt+FWR7w0z5FUHgAAsr1AP424j+DLP7TbXMUz6gVafutxFTx10y1tT73JtrmAAA+fUMqFizkX512hj2rt2dfJGzGs51/JGrKrLv1uXLtyXtrs5zl6Z1rKv8AXKrQHrWcaW9J4d1C3z0pk6xC5hYsN/ZVpepSmbOlPHGNqde37uPlZ9AAAL+9TjD7jwnpVa9/Iv6he9NJ3pUj/VBQJpb0H6TXB4c4Xxq02lDTsSc6VptWksqPdp0r56VvVp8QO0AAAAAAAAAAAAAAAAAAAAAAAAAAAAUD68PC3rDiWWXGO1rW8a1k0rt2d2s/Scum/l3hCX46/iAOvHwf+6PD0M63Hmv6Df7vStKb19b5XLbzaej2NqX82ChIA0AAAAP6s3JQlCcJVjOEoyhONaxlGUK0rCUZU7aVpWNK7v5AX56rPTla4gx7em6hcjb1jFtxpSUq0pTOtwp9Vt/++pSnso/HTx7T2yRwcq7YuWb1m5O1dszhO1dtyrCcJwrvCUZx7aVpXxrkdAPWhsZMbGn8Ryjj5FOSFrVe9YveKNMmFKfSbne9nT2Mt+3l27SLTj8rF2FyMJwlGcLkYyhOEqSjKMqb0lGdOyVK0rTto/UQAAAAAAAAAAAAAAAAHy6nn2MWzeyMm7bsWLMZSu3r0427cI079ZTlXaiovWC60Nb0b+m8NylCEueGRq9d4zlSvZKOHarTeFO/9Mr7LyUp3wdL1t+naGDaydC0i7SWdfjct6hl2p9mLblTadm3OnfyJUrWla09pt5a9lKX+zlWVZVrWtayrKta1rvWtZdsq1lXv13f4NAAAAAACzvqfvC3d9T1vVpx9hpmNaxrNa079/UqyrOsa/c2seVP52KsTRzqn8H/ALj8MaTGceXI1Klc/IpWm0ubNpSuPSXnpZjboJUsgCAAAAAAAAPP17SrGdi5eHkwpcx8yzcs3rdfHC7StJeivbvv5mbnS7wLk8O6rm6df3lGFazxL9Y7Uv40617jcp4t9o7SpT3VJNM0ddO/RfjcT6f3CdY2czF554GXy71t3JUpzW57dtbM+SNJU82/iBnGPW4u4czNJy8rBz7ErGRjy2lCVOytPcThPvThWnbGtHkgAAAA/WmTc227pPbyc8tvzd35SrWvbWta18tQAAAAB+2D9Vx/wlr5VGrbKTB+q4/4S18qjVsBQrrreFmb7y0r5mi+qhXXW8LM33lpXzNAQmAAn7qKeEmV8F5fzllAKfuop4SZXwXl/OWQXjAAZz9ZvS64nFXEsK02peyY5EPvcuEZ7/llVowqH19OD5Rv6PrdqNa271uWFmVpT2tyz7PCnKXklCdyP81Hygq0AA9PhbX8zS8rHzcG/PHyceu8Ltuvb7L20ZR70oVp2bVeYAs9wv1vcy3bhDUdIs5U6UpSt/FypYta+eWPO1cjWtfNKL3MjriY9KfS9BvSr5J6nCFPzo40lRQGg3V76ZocWU1aNcCuBe031pKsKZPrmFy3l90pCVLvcoVjKlceVNtvGltUT1Pn644w/AaL8vKW7BVD1Qr2vBHp4j/Vpqpq2XqhXteCPTxH+rTVTQAAd11f/CfhT4Rx/wC80nZsdX/wn4U+Ecf+80nAAAAAZm9NfhHxX8K6l87JpkzN6a/CPiv4V1L52QOQAAW69T6+t+L/AMPovyMtUVbr1Pr634v/AA+i/IywWnQf11tMrkcL3rkab1wc3Bv1+9lWtqdfyXk4PA6QuH4atpesadPalM/Fv2YyrTekbko7486+alyMa/EDL0fvqWFdxr2Rj3oVt3sa7dtXrcqbVjcsyrG7GvorGr8AAASz0MdO+q8NW/WsYW87ArKsqYeROUK2617Z9wyo0rW3vXxVjKPmTNY64WFWO89Eyoz27YwzrU47/f1tRr/ZVAAWf4i632ZcjKOn6PYxq17KXcvKnk19NLNu3bpSvplJBvSB0kazrs99Szbt6Ea80MeNe548K+WOLDaO/nq5IAAAABox1YfBLhT3pc+fupJRt1YfBLhT3pc+fupJBQ7rt+FWR7w0z5FUHpw67fhVke8NM+RVB4AAPq0rUcjEvWr+Leu4961Xe3esXJW7ka+aca0rRNnBnWk4iwYwt5dMbU7ceWm+TCtq9t76s7b188oyQSAtxhdcPHrT6doN6EvH3HUYXKfFz48a0fJrnXClWEo4Oh0jcrT2N3Lz+eEa+LfFtWaVl+fFVIB0nSHxvqOvZdczUr9btzbltQpTltWre+/c7VmnZCO/+7mwAAB0PRtw7LVtW0XTo0rX17l49u5Wnitc1JZMvitxlVp7bhSNIxjSlKRpSkaU7KUpTsjSnm2VF6inAcp39Q1+/Da3jxliafvT29279e3aeaMeWH85LyLegAAAAAAAAAAAAAAAAAAAAAAAAAAAAPk1fAtZePl4t+FJ2cuzes3oV70reRCsLtPzZVfWAyr6R+Fr2i6rqumX96zwci7bjOtNu6Wt98e7SPklCUa/G55cHr79H3Pb0/iLHh7Kzy4epUjTvwlXfAv1+9rzwr99b8inw0P6tQrKUYxpvWVYxjTy1lXaNPyv5AWk4a6nGfetQnn6zj4V2caVrYx8KeZWFa+5ldrftR5qebmefxV1P9ax41ngahh6hy0r9LnCeHer97SUpw/LN2HVy6zNiVrG0riK53K7ZjC3jatKu9u5GO0YQy+zeFynZ9M9rXx7bb1srxTp1dT07OxsbNni1z8acbGfiSpKdvulN7d61OMqc1PRWnf7K074MvuLuF9Q0nIli6liXsS9TmrSF+FY0lGNdua3P2tyPni8dobZ4FxcDhvIweNtVsarjxyZ1tahmRlbnjxyKRhjwt5dyUrvdeaMq82/utu2lFQ+nfokvcOXcfJx71M/RtS9lp+pWtpRrStOaNq9OG8aXOX3VOyW29O9WlAi4AEi9FPTNrvDlYwwsnuuJzbywMre7jV+y5Ib81mte32korUdHPWu0PPpC3qdq7pORXakpSrXIxK18tMqEaShTzSj8dVEgGsega7hahapewcvHy7VdvpmNehdjTm71Jcla8tfNV6TJTStSyMS5G9i372Ndj7W7j3Z2rlPRdt1pVJ/DPWJ4twOWNNTlkwj7jOtW7/Z5OeVOb+0JjRwUq0Prkapb2pmaRg5O3jx8i9iSr5d5Spdjv6IrFdBPSde4oxb2bXSL2nY8Jclq9eyYXoX5x37rSztbhKsY/ZcvjESWAAAAAACG+sD0y5XCdcWVdDuZ2Nl0lG3m0zqWLNLtKbytXIUx5yjPbt7e/t2d6oJkFHtd64Wu3eamJp+n4lK96Uu7ZNynxylGFfzUbcUdPHFeoc1Lur5FqEt97eHy4se3ySs0pKn5wuNDeKuLtM0q33TUc/Fw47VrSmRehCcqU7/ACWd+ef4tEA9I3W50zFpO1ouJc1G920pkZFa4+JGvilSG1bt70ex9KlWVkXLs53Ls53Lk67zuXJynOVfLKcq1rWvpfkGO06TOlDWuIrnPqWZOdqEqytYlv6Xi26+55cWPZWX3UuaTiwFAAAAAAAAd70A8EV1/X9JwKxrWxS7G/m127KY2LWk71K+Tm5aQ/HabQjSlKUpSlKUptSlKbUpSnepSniorl1Gej79z9KyNZvw2ydc7nSxzU2rbwseteTb8Jc3l+Jb8ix4yAAAAAAAAAAAA4Xpa6MdM4kxo2c63y3rVJ+tc21SlL9msvJKvt7e/byV7PR31JOlvoT1rh2U53bVcvBpWXJqGLCVbfL4q3rXbKxL772Pnq0VfzONK0rStKVpWm1aVpvStK9+laeQGUA0E6Qer1w3q9Z3KY1dPyJ81a39PrG1SspeOWNWlbcu37lB3FnVI1WzWUtN1DFzYdvLDIhLEvfc0787dfTzR9AK2CSNb6C+KsSsufSMi5Snu8asL8fi7nKtXJ5/B2r2Kype0vULW3f7pg5EafnVhtWgPDH73MK9HslZux27/NbnT9dCzhXp9kLV2W/epG3KX6qA/AdBpvA+s5NdrGlajd38cMHIrH458m1HbcPdXrivMrH/AJbXGjX3eZet2abeXk5qyBFJSi1XB/VCuVrCeratGNOzfH06zWUq+aubf2pH4oV9KeOAOiDh/Q6wnh4FuV+G22Xk/T79Kx8cbtzst1+92BUboc6vetaxdxcjJty0zAjO1OV7Kt1peuQpWktrGJXaVa1pT20uWPb41+AAUK663hZm+8tK+Zovqr11iOr5kcR6jDU8HOx8e7OxZs5FnMhc5K+t+y1O3etUlWnsZbctY+57/aCkYsb9CHrv2y0n8/M/0x9CHrv2y0n8/M/0wK5J+6inhJlfBeX85Zff9CHrv2y0n8/M/wBMlfq3dA+Twzm5mfm5uPkXbuNLHs2cSN2sI0nOM7tyd67GNa1+lUptSPj74J9AAeHxxwzi6xgZ2nZkeaxmW6wlWm3NCXft3IVr3pxlSlfie4AzN6WOj3P4czruHmwrWNazli5UY1payLUa9lyEvFLatOaPud/Q5BqLxnwrgaxizw9RxreTYn20jOnsoS22pO3dp7K3Onloq90g9UnIhKd3Q86F23Wta0w8+nc7sfJGGbDeNyn30Y+moKtiQde6FeKMKtaXdHy50p7vGhTIjXbydxrWrl8nhTVLVdrmm6hbrTxXMHIhX82UAeMPZxOE9Uu15bWm59yvkt4OROv9mDruH+g3inNrHuekZFqNfd5fJjxp6e61pWn5oJh9T4+r8ZfgdE+XmrcoO6rHRDncMQ1m7qF6xO9qdNPjGxj1lOlqOF3etazvVpSkpVrld6P2Pfrv2TiCqHqhXteCPTxH+rTVTV/es10RZPFdnRPWmVYxr2l3M/aOTG53K5DUKWOf2duMpRlGuHH3Pupd5B/0Ieu/bLSfz8z/AEwK5Cxv0Ieu/bLSfz8z/TH0Ieu/bLSfz8z/AEwIs6v/AIT8KfCOP/eaTqqdE3Vi1LS9Y0nUczUMGVnT78b9beLTIncnKFK8kPptqEYx3r3/AOpasAAAABmb01+EfFfwrqXzsmmSpvSZ1XNU1HVtYz8TUcCNnUMm9kRhlUyIXYVyK804VpbtTjWlK1r27/ECqAsb9CHrv2y0n8/M/wBMfQh679stJ/PzP9MCuS3XqfX1vxf+H0X5GW5L6EPXftlpP5+Z/pk69WjomyOFcbVoZWVZyb+pXsadaY0Z0tW4YkbkYUpO5SkpSrXIlX2se8CXwAVO64nQ5duXLvEOmWq3OaO+q41uO8qclKUjlwjT21OWlaTp9zGvjrtU9rCgbpc6tGlavO7lafc/crMnWUp0t2qTxLsq9u88WlaVtVrXxw8veqCi4l3izq58U4FZ8uFHOtx32u4F2Nzenl7jPlnT0cqPtS4O1bGrtkaZqFnbx3cLIjT4p1htX4geGP2lh3qV2rauUr5K25Ur+p6Gm8Malk1jTG0/Nv1r3u4Yl+58iFQeSJU4X6vvFWfWm2nSxYS2+m51yFilKeXkrWs/i5U18B9UjGtVhd1rUJZNabVriYMK2bXnpLNnXnuU9EYfGCqXDWgZupZFrFwMa7lX7netWYVlWlOynNKVOyEfuqvy13Sr2DlZeHkx5L+Heu2b0N6SpGdmtYzpSVOytN499pxwhwpp2kWPW+nYlnEtex5qWYUpKdadlJXLvtrku/2yVz6ZurRqOq6zqepYGZgws6hcpelaye7QnC5WNI3aU7nblSUa1jvv5+8CowsTTqj6/wD+3aV+kyv8h/VOqLr32w0r8/L/ANOCxvVh8EuFPelz5+6klzHRdwxXRtH0fS63aX5afj0tzvUjy0nOsqznWMK1rWkeadafE6cFDuu34VZHvDTPkVQeut1iOr/ncR6rDUsLOxLPPjWbN6zmUvR2lj70tytztQnzUrSvery97x79kbfQh679stJ/PzP9MCuTqejvgPUNenqVrTbcbt7AxK5U7VZcsrkI3LduULcq9lbm92nZXyJk+hD137ZaT+fmf6ZNHVm6GL/C1dYvZmVYycnUI4tqFMWlzudqzj1uSl9NuxjKUpyuR7OXs7n49+wKIZ+Jdx7l2zftzs3bMpQuWrsKwuQlHsrGVqVN6V9L8WlXST0XaLr8NtQxIyvRjy28yz9KyYU9zT1xHtlGnklurfxx1R861Wc9H1C1l2+2scfNj63v0+xpTIjvbuemvJ6AVlHf6/0M8T4VZd20fMnSnu8a365jXl8nceark8rh7PtV2u4OZar5LmJehX82UKA8wehj6Hm3K7W8PKuVr3qQxrsq/mxi6nh/oh4lzqxpY0bNpSvu8izXGhTz1lf5ewHDO76FujHN4mzo4+PSVvFsyhXOzax3t2Lcq96nildlSMuWP/Siaujfql35StXtezIWrdKxrXBwfZ3J/ZRuZ1fY26fexl3+/RaXhXh3C0vFs4eBj28bHs09jbtx23r7qU69+c6+WoP64V0LG0zDw8DDt0t4+HahbtQp39o9+Upe6nWu9a1871QAAAAAAAAAAAAAAAAAAAAAAAAAAAAAAB5fFGiY+pYedgZUO6Y+bZu2b0fHy3abb0rXvSpXatK+ZmD0l8IZOhapqWmZVPZ4d2UYXOXal2zLtx70aeSUNq/H5mqSvXXP6LK6xp0NWw4b6hotu7W5GEd5ZGF7a/Ds7azt1pWcfTKnjCKHgDQnjqw9O9/h+/a07Ubk72jZE4xpWVaylgynX6ra79e47y9lD46eeBwGo/SPwdgcS6VewMmdZY2ZGzds5GPKNZRlHaePetT7Y19tSvn3c1p/R7oumcO4/DGpZsL2Ll1v2bNzPvWbF25dvTrchTGjKu1LkJTpWNI7/wBaJ+ox0pSyLN7hzNub3cOFb2l3Jy7Z2I7+usbt8cK7Sj9zKX2PbIfWj6Hr3FmLpVcTIt2MzSbmXWzG/wA3cbtvOpZpkQlOFK1hOlcS3WldvFKnj3oZUZ6UuC8nQNU1DTMrtljT+lXuXljesT7ce9GPipKO3Z99TxOYX66Yug25rnD2iWLl+FzX9DwbNq1m135cmtqFKX8e5cl7KsJSh7Gcu9Lt91VRDWdMyMO/kYuVZnYyMacrd6zdjWM4Th2SpWlf1jT5AAAAdl0McD3OIdZ0zTIVrGF6fPlXY03rbxrPssqdPuuWO0fupNNdE0uxhY2LiYtuNnHxLULVm1Cm0Ywt02jT+rvqt+p78MRjY4j1icfZ3ruPgY0q071uxTu2ZWlfJKV2zT+aWyEoAIAAAAPB464XxdZ0/O03Mhz2My1KFa7U5oS79q7DfvTjLatPQ94BlHxxw5f0jUdT03Jp9OwL92zKVKbUnSFfpVyO/uZR5ZfG8ZZz1QHhiOPqmiapbjtTVca/Yv1pT/vtMrb5JVr5ZWsqNP5tWMaAAAAAAAAAAHedA/R/d4k1rBwKUlTHjKl/Puxp9TxbNY929l4pS3pCP3U3CQhWVY0pStayrGkY0pvWtZdkaUjTv13aJdVfou/4b0iMsiO2patSzfzt6eytRjSvrXG5vuKXJVr91KXkBLeDjW7FqzZtQjbtWLdu3atwptGFu1GkbUIx8VKRjSnxP3AZAAAAAAAAAAAAAAAAAAAAAAAAAAAAAAAAAAAAAAAAAAAAAAAAAAAAAAAAAAAAAAAAAAAAAAAAAAAAAAAAAAAAAAAAAAAAAAAAAAAAAAAAAAAAAAAAAAAAAAAACoAoH1u+iGug5/7o4Vv/AJVqtydaRhH2OJky9ldsV29rbl2yh+NTxIGaucX8O4mrYWZp+bapdxsy3KFyNe/T7CcJe5nGu1aV8zNzpr6NszhjU7uDkb3LNznuYOXy7RyLG+1JU8VLkealJR9zv56DThgAexwTxFf0nUNN1HGrtewMi1ehTfakqQr7O3L7mUeaPxtSuGNZs6jh4Gdjy5rGdj2b9qvj5b8aSpSvnpvWnxMnVt+o/wBLcIR/4a1C5SO85T0i9OXZWs61rkYld+9Xf2UPTKnkEqRet5wtxJnY+iZXD2Rl0lptzLrlYeFkTsXbnd+5Vx70eSVO61h3CdOWv8p2eN/NeiGPFvD+i3OJbE8LX7eNKE8+zGEcqnJKtLNcm1T2N3eMY1rGvl7K03T2+DXtP9d4mfi91uWfXeNlWO72a7Xbfri3K33S3LxTjz709AihPHXVh4k0+V2uHC1q2PGtaUu4U6Ru7U+zwrkuaEvNSUvTVGedwBrtiXLd0fVIVp2dun5O3xTpb2r8S2/QJ0Aa5w3rvryerY89PpG/G9asVv0nlxlStLNLuJKnJCtKypLespcvi33SX1jNZ4iwdJhd4cxvXGVXIhHIrC13a7ax+SdZTtYvu5c9I0+PvDSg+k9GHEWVKMbGianKteylZ4V61H9LdjGKUeCuqlxHm1hLNljaXZry80r8+73qU91y4lmu1ZeaUo+lZnqy67xPn4GdPiXGrYnbvWaYNy7Y9b37tusZeuO6Yu1OWkZUhtKvtuaXkR301dEPGescQXMrD1alrTpTtVxK0zr2PTDhGkaSp60tdsrnNSteaPfBNvQ9wFY4a0rH0vHvTyI2rl+7cv3YRhK5cyJc069zj2Rj3qUp297v1do+TSsedqxiWrl2V+5Zs2bdy/KlIyuztQpGd2UKdlKyrSstvO+sZAAAAAAAAV06/Wn0u8Oaff29lh6rj1pXzZFq7blT0VrWP5FFWgPXipT/AIRy/Nn6Vt+lZ/CwAFAAAAAAASl1dOiS/wAU6jyS57Wm4UrU9QyqU8Va7wx7U/HenSNfvY9vk3CS+pV0Q1zsiPEOoW/4Jg3P+W2px7L+TCtea/2/93arSm3llX7ldh8mkadYxLGNi41uNmxi24WrNq3TaMIW6bQjSj6xkAAAAAAAAAAAAAAAAAAAAAAAAAAAAAAAAAAAAAAAAAAAAAAAAAAAAAAAAAAAAAAAAAAAAAAAAAAAAAAAAAAAAAAAAAAAAAAAAAAAAAAAAAAAAAAAAAAAAAAAAAAAAcX0vdHmDxLp17AzKcsqc08TKjGlbmNf22hchv36d6lY+6p+WnaAMr+kngnP4f1DI0/ULfJdtV3t3I79yvWpVrSF61OvtoV2r+qrmmnPTN0ZafxPgVxMync71rnlh5sIUldx7k6d+NK1pz268seaHj2p3q0pWmePSfwDqPDuddwdQtcsvZSsX40rWzkWo12pdszrTtj3uz3O/aNOUf1auShKE4SlGUJRlCca1jKMoV3jKMqdtK0rGld6P5AXA6v/AForVYY+ncSSrC5CkIWNXpvWM6d6Mcy1Sm8Z976ZT23jpTbetrNOzbORat3se7bv2bsaSt3rM43Lc4171Y3YVrStPQyTdNwPx9rGiT59M1DIxaSrvO1C5WtmdfLPFlvCVfPyiY1PFGeG+t7r1ikY5mFgZ1Kd+e1zGu1/Ht1rCn5rr8broW9vpvDs6V8dberRlT8ksOmwi24qNl9dCO30rh2Va+Kt3V6RpT8SOHXf8rl9c64WuXaSpi6fp2JSvelLu2Rcp+NKUYV/NBeEcN0EcR5WrcPaBqObKM8rNsTnelCFIRrKl25Hstx7I02hR3IAAAAAAAAIL68nglle/wDSvnas/mgHXlr/ANksrz5+lfOVZ/iwAFAAAAAd70L9Fmo8UZvrfEj3LHs1hXNz5wrWzjwn+Tul2tI15YU9tt4qdoPy6GejTO4n1CGHiU7nat8k83MlGsrWPZlWvspd7muV5a8sPdbeatWjfR9whhaHgYmnYFvudjHj2yrtW5duS+q3bs6e2uSr27vw6NeB9P4fwLOn6fa5LcNpXbstq3b93alLl69OlPZTry/9KOpGQAAAAAAAAAAAAAAAAAAAAAAAAAAAAAAAAAAAAAAAAAAAAAAAAAAAAAAAAAAAAAAAAAAAAAAAAAAAAAAAAAAAAAAAAAAAAAAAAAAAAAAAAAAAAAAAAAAAAAAAAAAAAAAABy3SRwJp3EGFdwdRs0uW680rV2O1L1i5Km1Ltm7t7CX6/Hu6kBmx05dDGp8LX97tK5Wn3ZypjajahWkK/YwvwpWvcb23ir7bxVqjFrVqun2Muzex8m1bv2L8Kwu2b0KThONe/SUK9lVPunfqsXrFb2fw3zX7Ps53dJnX6db8e+LfrX6dDv8AsJeyjt2Vlv2F1VYfplY9y1O7auwnbuWpSjct3I1hOEoV2rGUJU3jKlfFV+YoAAADSPqpV34P4V82Nep/591KSK+qdX/sfwv5rF75+4lQZAAAAAAAAQR15vBO98IaZ8uSgK/nXor/ANk7vn1DTPlSUDFgAKAAD6tJ06/l3rOPi2bmRfvypG1ZswrO5OUvFGEe2q3HQN1WI2q2M/iXluTpyTs6RCu8I17++XfpX2de99Lj2dnbWveBEXV/6BtQ4muQyb/PhaRCVO6ZcofTL/LX2VvEhL21eytOevsY+fvL68GcL4Oj4ePg6fYhj49im0YRp2yl2c9y5PvzuV29tV6uNYhbhC3bhG3btxjCFu3GkYRjCm0IxhHsjGlPFR+wyAAAAAAAAAAAAAAAAAAAAAAAAAAAAAAAAAAAAAAAAAAAAAAAAAAAAAAAAAAAAAAAAAAAAAAAAAAAAAAAAAAAAAAAAAAAAAAAAAAAAAAAAAAAAAAAAAAAAAAAAAAAAAAAAAAAAAAjTpf6F9F4lhKWVZ9b5tI7W9RxYxjfp2ex7rTvX407OyXxVopj0u9X/XeHu63q2v3QwI81fX2HCVaRjH3V/E7Z2ez76PnaMgMihot0o9Xnh7Xa3L3cK6dmT5q+u8CMbfNKvbzXcTbudzt+9r51XOkbqv8AEWl91uYkYavjR3rS5h0rC/y08c9PnWsqV28UZSF1Bg/bOw7ti5O1ftXLN23Xadq9blbuRr5JWp0pWNfS/nGsTuztW7cJXLl2UIW7cI1lOc51pSEYwp2ylWsqU2p5RWjXVJr/ANj+GvwWT8/cSu4boH4YvaPw7w/gZFNsjHxqSyI/Y3ciUrtyHpj3Xl/FdyMgAAAAAAAIE69df+yk/PqOm/rkoK0a62XCmRq/DGp2cSErmRizx8u3ZhSspXKYkq1vQhCnbKXJWVdqeRnLWni8gsB9ekaZk5l2FjEsXsm9P2tnHtTu3K+iEKVrsnfo36qeu6h3K7qU7ekY9eWtaXaUv5VaeSOJCVIxr99KPf8AH3hVfaU8njTf0QdWzW9b7lfy410nAltXu2VarXIuRr/I4Na0lXenup8tPStv0XdBnD/D/JcxsX1zlw2/h2by3r1JR91bjWnJZr97RJ4muE6K+ivRuG7XJp2NTu040jezr21zKu+Wkr23sI1r7mO1HdgIAAAAAAAAAAAAAAAAAAAAAAAAAAAAAAAAAAAAAAAAAAAAAAAAAAAAAAAAAAAAAAAAAAAAAAAAAAAAAAAAAAAAAAAAAAAAAAAAAAAAAAAAAAAAAAAAAAAAAAAAAAAAAAAAAAAAAAAAAAAA8Hivg/S9WhGGpYGLmUj7WuRZjKcfNC97eFPRV5nCnRhw/pV3u+n6Th416ntb0bXPcj95duVlWHfr3nYgAAAAAAAAAADhuIuiThrUL88nM0bCvX51rKd3udbcpyl2ylPuVY0nKvlq7kB4/DPDWn6Za7jp+HjYduvLvHGswt823erOcabzr55PYAAAAAAAAAAAAAAAAAAAAAAAAAAAAAAAAAAAAAAAAAAAAAAAAAAAAAAAAAAAAAAAAAAAAAAAAAAAAAAAAAAAAAAAAAAAAAAAAAAAAAAAAAAAAAAAAAAAAAAAAAAAAAAAAAAAAAAAAAAAAAAAAAAAAAAAAAAAAAAAAAAAAAAAAAAAAAAAAAAAAAAAAAAAAAAAAAAAAAAAAAAAAAAAAAAAAAAAAAAAAAAAAAAAAAAAAAAAAAAAAAAAAAAAAAAAAAAAAAAAAAAAAAAAAAAAAAAAAAAAAAAAAAAAAAAAAAAAAAAAAAAAAAAAAAAAAAAAAAAAAAAAAAAAAAAAAAAAAAAAAAAAAAAAAAAAAAAAAAAAAAAAAAAAAAAAAAAAAAAAAAAAAAAAAAAAAAAAAAAAAAAAAAAAAAAAAAAAAAAAAAAAAAAAAAAAAAAAAAAAAAAAAAAAAAAAAAAAAAAAAAAAAAAAAAAAAAAAAAAAAAAAAAAAAAAAAAAAAAAAAAAAAAAAAAAAAAAAAAAAAAAAAAAAAAAAAAAAAAAAAAAAAAAAAAAAAAAAAAAAAAAAAAAAAAAAAAAAAAAAAAAAAAAAAAAAAAAAAAAAAAAAAAAAAAAAAAAAAAAAAAAAAAAAAAAAAAAAAAAAAAAAAAAAAAAAAAAAAAAAAAAAAAAAAAAAAAAAAAAAAAAAAAAAAAAAAAAAAAAAAAAAAAAAAAAAAAAAAAAAAAAAAAAAAAAAAAAAAAAAAAAAAAAAAAAAAAAAAAAAAAAAAAAAAAAAAAAAAAAAAAAAAAAAAAAAAAAAAAAAAAAAAAAAAAAAAAAAAAAAAAAAAAAAAAAAAAAAAAAAAAAAAAAAAAAAAAAAAAAAAAAAAAAAAAAAAAAAAAAAAAAAAAAAAAAAAAAAAAAAAAAAAAAAAAAAAAAAAAAAAAAAAAAAAAAAAAAAAAAAAAAAAAAAAAAAAAAAAAAAAAAAAAAAAAAAAAAAAAAAAAAAAAAAAAAAAAAAAAAAAAAAAAAAAAAAAAAAAAAAAAAAAAAAAAAAAAAAAAAAAAAAAAAAAAAAAAAAAAAAAAAAAAAAAAAAAAAAAAAAAAAAAAAAAAAAAAAAAAAAAAAAAAAAAAAAAAAAAAAAAAAAAAAAAAAAAAAAAAAAAAAAAAAAAAAAAAAAAAAAAAAAAAAAAAAAAAAAAAAAAAAAAAAAAAAAAAAAAAAAAAAAAAAAAAAAAAAAAAAAAAAAAAAAAAAAAAAAAAAAAAAAAAAAAAAAAAAAAAAAAAAAAAAAAAAAAAAAAAAAAAAAAAAAAAAAAAAAAAAAAAAAAAAAAAAAAAAAAAAAAAAAAAAAAAAAAAAAAAAAAAAAAAAAAAAAAAAAAAAAAAAAAAAAAAAAAAAAAAAAAAAAAAAAAAAAAAAAAAAAAAAAAAAAAAAAAAAAAAAAAAAAAAAAAAAAAAAAAAAAAAAAAAAAAAAAAAAAAAAAAAAAAAAAAAAAAAAAAAAAAAAAAAAAAAAAAAAAAAAAAAAAAAAAAAAAAAAAAAAAAAAAAAAAAAAAAAAAAAAAAAAAAAAAAAAAAAAAAAAAAAAAAAAAAAAAAAAAAAAAAAAAAAAAAAAAAAAAAAAAAAAAAAAAAAAAAAAAAAAAAAAAAAAAAAAAAAAAAAAAAAAAAAAAAAAAAAAAAAAAAAAAAAAAAAAAAAAAAAAAAAAAAAAAAAAAAAAAAAAAAAAAAAAAAAAAAAAAAAAAAAAAAAAAAAAAAAAAAAAAAAAAAAAAAAAAAAAAAAAAAAAAAAAAAAAAAAAAAAAAAAAAAAAAAAAAAAAAAAAAAAAAAAAAAAAAAAAAAAAAAAAAAAAAAAAAAAAAAAAAAAAAAAAAAAAAAAAAAAAAAAAAAAAAAAAAAAAAAAAAAAAAAAAAAAAAAAAAAAAAAAAAAAAAAAAAAAAAAAAAAAAAAAAAAAAAAAAAAAAAAAAAAAAAAAAAAAAAAAAAAAAAAAAAAAAAAAAAAAAAAAAAAAAAAAAAAAAAAAAAAAAAAAAAAAAAAAAAAAAAAAAAAAAAAAAAAAAAAAH/2Q==;" vertex="1" parent="1">
                    <mxGeometry x="230" y="90.28" width="100" height="56.34" as="geometry"/>
                </mxCell>
            </root>
        </mxGraphModel>
    </diagram>
</mxfile>